NewsreaderDisplay-Italic.ufo
<glyph name="exclam" format="2">
  <advance width="507"/>
  <unicode hex="0021"/>
  <outline>
    <contour>
      <point x="637.0" y="1344.0" type="line" smooth="yes"/>
      <point x="658.9584343591745" y="1415.3649116673168"/>
      <point x="598.0" y="1450.0"/>
      <point x="529.0" y="1450.0" type="curve" smooth="yes"/>
      <point x="461.0" y="1450.0"/>
      <point x="395.8019343270791" y="1414.856286563007"/>
      <point x="374.0" y="1344.0" type="curve" smooth="yes"/>
      <point x="366.0" y="1318.0" type="line" smooth="yes"/>
      <point x="351.0" y="1270.0"/>
      <point x="347.0" y="1021.0"/>
      <point x="220.0" y="463.0" type="curve"/>
      <point x="251.0" y="463.0" type="line"/>
      <point x="450.0" y="979.0"/>
      <point x="601.0" y="1227.0"/>
      <point x="629.0" y="1318.0" type="curve" smooth="yes"/>
    </contour>
    <contour>
      <point x="154.0" y="259.0" type="curve" smooth="yes"/>
      <point x="62.0" y="259.0"/>
      <point x="-9.0" y="187.0"/>
      <point x="-9.0" y="95.0" type="curve" smooth="yes"/>
      <point x="-9.0" y="27.0"/>
      <point x="38.0" y="-19.0"/>
      <point x="110.0" y="-19.0" type="curve" smooth="yes"/>
      <point x="202.0" y="-19.0"/>
      <point x="273.0" y="53.0"/>
      <point x="273.0" y="144.0" type="curve" smooth="yes"/>
      <point x="273.0" y="213.0"/>
      <point x="226.0" y="259.0"/>
    </contour>
  </outline>
</glyph>
<glyph name="ampersand" format="2">
	<unicode hex="0026"/>
	<advance width="1398"/>
	<outline>
		<contour>
			<point x="934" y="232" type="line"/>
			<point x="1053" y="361"/>
			<point x="1177" y="543"/>
			<point x="1298" y="817" type="curve"/>
			<point x="1470" y="852" type="line"/>
			<point x="1477" y="874" type="line"/>
			<point x="1051" y="874" type="line"/>
			<point x="1044" y="852" type="line"/>
			<point x="1196" y="817" type="line"/>
			<point x="1110" y="539"/>
			<point x="1009" y="355"/>
			<point x="904" y="249" type="curve"/>
			<point x="865" y="212" type="line"/>
			<point x="757" y="118"/>
			<point x="647" y="102"/>
			<point x="549" y="102" type="curve" smooth="yes"/>
			<point x="369" y="102"/>
			<point x="249" y="205"/>
			<point x="249" y="379" type="curve" smooth="yes"/>
			<point x="249" y="547"/>
			<point x="311" y="672"/>
			<point x="550" y="777" type="curve"/>
			<point x="664" y="823" type="line"/>
			<point x="997" y="977"/>
			<point x="1071" y="1102"/>
			<point x="1071" y="1234" type="curve" smooth="yes"/>
			<point x="1071" y="1359"/>
			<point x="981" y="1450"/>
			<point x="800" y="1450" type="curve" smooth="yes"/>
			<point x="555" y="1450"/>
			<point x="416" y="1286"/>
			<point x="416" y="1079" type="curve" smooth="yes"/>
			<point x="416" y="996"/>
			<point x="434" y="907"/>
			<point x="482" y="818" type="curve" smooth="yes"/>
			<point x="920" y="0" type="line"/>
			<point x="1255" y="0" type="line"/>
			<point x="1262" y="20" type="line"/>
			<point x="1091" y="62" type="line"/>
			<point x="627" y="908" type="line" smooth="yes"/>
			<point x="577" y="999"/>
			<point x="556" y="1085"/>
			<point x="556" y="1159" type="curve" smooth="yes"/>
			<point x="556" y="1310"/>
			<point x="646" y="1412"/>
			<point x="787" y="1412" type="curve" smooth="yes"/>
			<point x="889" y="1412"/>
			<point x="935" y="1355"/>
			<point x="935" y="1257" type="curve" smooth="yes"/>
			<point x="935" y="1123"/>
			<point x="881" y="989"/>
			<point x="640" y="842" type="curve"/>
			<point x="527" y="799" type="line"/>
			<point x="166" y="651"/>
			<point x="72" y="503"/>
			<point x="72" y="309" type="curve" smooth="yes"/>
			<point x="72" y="129"/>
			<point x="196" y="-20"/>
			<point x="449" y="-20" type="curve" smooth="yes"/>
			<point x="595" y="-20"/>
			<point x="740" y="40"/>
			<point x="894" y="191" type="curve"/>
		</contour>
	</outline>
</glyph>
<glyph name="quotesingle" format="2">
	<unicode hex="0027"/>
	<advance width="371"/>
	<outline>
		<contour>
			<point x="286" y="931" type="line"/>
			<point x="315" y="931" type="line"/>
			<point x="558" y="1393" type="line"/>
			<point x="569" y="1430" type="line"/>
			<point x="350" y="1430" type="line"/>
			<point x="338" y="1393" type="line"/>
		</contour>
	</outline>
</glyph>
<glyph name="parenleft" format="2">
	<unicode hex="0028"/>
	<advance width="537"/>
	<outline>
		<contour>
			<point x="770" y="1465" type="curve"/>
			<point x="751" y="1484" type="line"/>
			<point x="211" y="946"/>
			<point x="68" y="670"/>
			<point x="68" y="348" type="curve" smooth="yes"/>
			<point x="68" y="169"/>
			<point x="125" y="0"/>
			<point x="220" y="-253" type="curve"/>
			<point x="246" y="-244" type="line"/>
			<point x="203" y="-69"/>
			<point x="190" y="55"/>
			<point x="190" y="237" type="curve" smooth="yes"/>
			<point x="190" y="589"/>
			<point x="299" y="914"/>
		</contour>
	</outline>
</glyph>
<glyph name="parenright" format="2">
	<unicode hex="0029"/>
	<advance width="537"/>
	<outline>
		<contour>
			<point x="-171" y="-234" type="curve"/>
			<point x="-152" y="-253" type="line"/>
			<point x="388" y="285"/>
			<point x="531" y="561"/>
			<point x="531" y="883" type="curve" smooth="yes"/>
			<point x="531" y="1062"/>
			<point x="474" y="1231"/>
			<point x="379" y="1484" type="curve"/>
			<point x="353" y="1475" type="line"/>
			<point x="396" y="1300"/>
			<point x="409" y="1176"/>
			<point x="409" y="994" type="curve" smooth="yes"/>
			<point x="409" y="642"/>
			<point x="300" y="317"/>
		</contour>
	</outline>
</glyph>
<glyph name="asterisk" format="2">
	<unicode hex="002A"/>
	<advance width="781"/>
	<outline>
		<contour>
			<point x="712" y="868" type="line"/>
			<point x="648" y="1107" type="line"/>
			<point x="889" y="1161" type="line"/>
			<point x="887" y="1186" type="line"/>
			<point x="641" y="1199" type="line"/>
			<point x="670" y="1446" type="line"/>
			<point x="645" y="1453" type="line"/>
			<point x="552" y="1221" type="line"/>
			<point x="325" y="1323" type="line"/>
			<point x="311" y="1300" type="line"/>
			<point x="503" y="1143" type="line"/>
			<point x="338" y="959" type="line"/>
			<point x="355" y="940" type="line"/>
			<point x="563" y="1072" type="line"/>
			<point x="689" y="859" type="line"/>
		</contour>
	</outline>
</glyph>
<glyph name="plus" format="2">
  <advance width="1150"/>
  <unicode hex="002B"/>
  <outline>
    <contour>
      <point x="415.0" y="101.0" type="line"/>
      <point x="483.0" y="101.0" type="line"/>
      <point x="735.0" y="923.0" type="line"/>
      <point x="667.0" y="923.0" type="line"/>
    </contour>
    <contour>
      <point x="174.0" y="545.0" type="line"/>
      <point x="154.0" y="479.0" type="line"/>
      <point x="976.0" y="479.0" type="line"/>
      <point x="996.0" y="545.0" type="line"/>
    </contour>
  </outline>
</glyph>
<glyph name="comma" format="2">
	<unicode hex="002C"/>
	<advance width="454"/>
	<outline>
		<contour>
			<point x="-148" y="-296" type="curve"/>
			<point x="-132" y="-321" type="line"/>
			<point x="136" y="-158"/>
			<point x="259" y="21"/>
			<point x="259" y="140" type="curve" smooth="yes"/>
			<point x="259" y="206"/>
			<point x="214" y="247"/>
			<point x="145" y="247" type="curve" smooth="yes"/>
			<point x="55" y="247"/>
			<point x="-9" y="177"/>
			<point x="-9" y="113" type="curve" smooth="yes"/>
			<point x="-9" y="82"/>
			<point x="83" y="55"/>
			<point x="83" y="-17" type="curve" smooth="yes"/>
			<point x="83" y="-84"/>
			<point x="16" y="-187"/>
		</contour>
	</outline>
</glyph>
<glyph name="hyphen" format="2">
	<unicode hex="002D"/>
	<advance width="629"/>
	<outline>
		<contour>
			<point x="141" y="575" type="line"/>
			<point x="105" y="458" type="line"/>
			<point x="490" y="458" type="line"/>
			<point x="526" y="575" type="line"/>
		</contour>
	</outline>
</glyph>
<glyph name="period" format="2">
	<unicode hex="002E"/>
	<advance width="456"/>
	<outline>
		<contour>
			<point x="151" y="258" type="curve" smooth="yes"/>
			<point x="59" y="258"/>
			<point x="-12" y="186"/>
			<point x="-12" y="95" type="curve" smooth="yes"/>
			<point x="-12" y="27"/>
			<point x="35" y="-19"/>
			<point x="107" y="-19" type="curve" smooth="yes"/>
			<point x="199" y="-19"/>
			<point x="270" y="53"/>
			<point x="270" y="144" type="curve" smooth="yes"/>
			<point x="270" y="212"/>
			<point x="223" y="258"/>
		</contour>
	</outline>
</glyph>
<glyph name="slash" format="2">
	<unicode hex="002F"/>
	<advance width="809"/>
	<outline>
		<contour>
			<point x="-71" y="0" type="line"/>
			<point x="2" y="0" type="line"/>
			<point x="1006" y="1430" type="line"/>
			<point x="933" y="1430" type="line"/>
		</contour>
	</outline>
</glyph>
<glyph name="zero" format="2">
	<unicode hex="0030"/>
	<advance width="1200"/>
	<outline>
		<contour>
			<point x="276" y="330" type="curve" smooth="yes"/>
			<point x="276" y="766"/>
			<point x="548" y="1408"/>
			<point x="873" y="1408" type="curve" smooth="yes"/>
			<point x="990" y="1408"/>
			<point x="1047" y="1291"/>
			<point x="1047" y="1100" type="curve" smooth="yes"/>
			<point x="1047" y="664"/>
			<point x="775" y="22"/>
			<point x="450" y="22" type="curve" smooth="yes"/>
			<point x="333" y="22"/>
			<point x="276" y="139"/>
		</contour>
		<contour>
			<point x="873" y="1450" type="curve" smooth="yes"/>
			<point x="419" y="1450"/>
			<point x="112" y="889"/>
			<point x="112" y="429" type="curve" smooth="yes"/>
			<point x="112" y="141"/>
			<point x="250" y="-20"/>
			<point x="450" y="-20" type="curve" smooth="yes"/>
			<point x="904" y="-20"/>
			<point x="1211" y="541"/>
			<point x="1211" y="1001" type="curve" smooth="yes"/>
			<point x="1211" y="1289"/>
			<point x="1073" y="1450"/>
		</contour>
	</outline>
</glyph>
<glyph name="one" format="2">
	<unicode hex="0031"/>
	<advance width="1200"/>
	<outline>
		<contour>
			<point x="441" y="70" type="line"/>
			<point x="110" y="20" type="line"/>
			<point x="101" y="0" type="line"/>
			<point x="934" y="0" type="line"/>
			<point x="944" y="20" type="line"/>
			<point x="627" y="70" type="line"/>
			<point x="1048" y="1450" type="line"/>
			<point x="1019" y="1450" type="line"/>
			<point x="344" y="1135" type="line"/>
			<point x="351" y="1117" type="line"/>
			<point x="887" y="1265" type="line"/>
			<point x="826" y="1332" type="line"/>
		</contour>
	</outline>
</glyph>
<glyph name="colon" format="2">
	<unicode hex="003A"/>
	<advance width="537"/>
	<outline>
		<contour>
			<point x="170" y="258" type="curve" smooth="yes"/>
			<point x="78" y="258"/>
			<point x="7" y="186"/>
			<point x="7" y="95" type="curve" smooth="yes"/>
			<point x="7" y="27"/>
			<point x="54" y="-19"/>
			<point x="126" y="-19" type="curve" smooth="yes"/>
			<point x="218" y="-19"/>
			<point x="289" y="53"/>
			<point x="289" y="144" type="curve" smooth="yes"/>
			<point x="289" y="212"/>
			<point x="242" y="258"/>
		</contour>
		<contour>
			<point x="410" y="1042" type="curve" smooth="yes"/>
			<point x="318" y="1042"/>
			<point x="247" y="970"/>
			<point x="247" y="879" type="curve" smooth="yes"/>
			<point x="247" y="811"/>
			<point x="294" y="765"/>
			<point x="366" y="765" type="curve" smooth="yes"/>
			<point x="458" y="765"/>
			<point x="529" y="837"/>
			<point x="529" y="928" type="curve" smooth="yes"/>
			<point x="529" y="996"/>
			<point x="482" y="1042"/>
		</contour>
	</outline>
</glyph>
<glyph name="semicolon" format="2">
	<unicode hex="003B"/>
	<advance width="541"/>
	<outline>
		<contour>
			<point x="-122" y="-296" type="curve"/>
			<point x="-106" y="-321" type="line"/>
			<point x="162" y="-158"/>
			<point x="285" y="21"/>
			<point x="285" y="140" type="curve" smooth="yes"/>
			<point x="285" y="206"/>
			<point x="240" y="247"/>
			<point x="171" y="247" type="curve" smooth="yes"/>
			<point x="81" y="247"/>
			<point x="17" y="177"/>
			<point x="17" y="113" type="curve" smooth="yes"/>
			<point x="17" y="82"/>
			<point x="109" y="55"/>
			<point x="109" y="-17" type="curve" smooth="yes"/>
			<point x="109" y="-84"/>
			<point x="42" y="-187"/>
		</contour>
		<contour>
			<point x="410" y="1042" type="curve" smooth="yes"/>
			<point x="318" y="1042"/>
			<point x="247" y="970"/>
			<point x="247" y="879" type="curve" smooth="yes"/>
			<point x="247" y="811"/>
			<point x="294" y="765"/>
			<point x="366" y="765" type="curve" smooth="yes"/>
			<point x="458" y="765"/>
			<point x="529" y="837"/>
			<point x="529" y="928" type="curve" smooth="yes"/>
			<point x="529" y="996"/>
			<point x="482" y="1042"/>
		</contour>
	</outline>
</glyph>
<glyph name="less" format="2">
	<unicode hex="003C"/>
	<advance width="1150"/>
	<outline>
		<contour>
			<point x="197" y="497" type="line"/>
			<point x="1077" y="829" type="line"/>
			<point x="1101" y="909" type="line"/>
			<point x="154" y="545" type="line"/>
			<point x="134" y="479" type="line"/>
			<point x="859" y="115" type="line"/>
			<point x="879" y="181" type="line"/>
			<point x="203" y="519" type="line"/>
		</contour>
	</outline>
</glyph>
<glyph name="greater" format="2">
	<unicode hex="003E"/>
	<advance width="1150"/>
	<outline>
		<contour>
			<point x="952" y="527" type="line"/>
			<point x="72" y="195" type="line"/>
			<point x="48" y="115" type="line"/>
			<point x="995" y="479" type="line"/>
			<point x="1015" y="545" type="line"/>
			<point x="290" y="909" type="line"/>
			<point x="270" y="843" type="line"/>
			<point x="946" y="505" type="line"/>
		</contour>
	</outline>
</glyph>
<glyph name="question" format="2">
	<unicode hex="003F"/>
	<advance width="971"/>
	<outline>
		<contour>
			<point x="311" y="259" type="curve" smooth="yes"/>
			<point x="219" y="259"/>
			<point x="148" y="187"/>
			<point x="148" y="95" type="curve" smooth="yes"/>
			<point x="148" y="27"/>
			<point x="195" y="-19"/>
			<point x="267" y="-19" type="curve" smooth="yes"/>
			<point x="359" y="-19"/>
			<point x="430" y="53"/>
			<point x="430" y="144" type="curve" smooth="yes"/>
			<point x="430" y="213"/>
			<point x="383" y="259"/>
		</contour>
		<contour>
			<point x="571" y="1450" type="curve" smooth="yes"/>
			<point x="400" y="1450"/>
			<point x="307" y="1396"/>
			<point x="307" y="1324" type="curve" smooth="yes"/>
			<point x="307" y="1283"/>
			<point x="335" y="1255"/>
			<point x="369" y="1255" type="curve" smooth="yes"/>
			<point x="387" y="1255"/>
			<point x="504" y="1366"/>
			<point x="679" y="1366" type="curve" smooth="yes"/>
			<point x="839" y="1366"/>
			<point x="930" y="1269"/>
			<point x="930" y="1100" type="curve" smooth="yes"/>
			<point x="930" y="878"/>
			<point x="783" y="784"/>
			<point x="441" y="843" type="curve"/>
			<point x="351" y="463" type="line"/>
			<point x="383" y="463" type="line"/>
			<point x="527" y="804" type="line"/>
			<point x="446" y="687" type="line"/>
			<point x="823" y="627"/>
			<point x="1015" y="759"/>
			<point x="1015" y="1032" type="curve" smooth="yes"/>
			<point x="1015" y="1239"/>
			<point x="846" y="1450"/>
		</contour>
	</outline>
</glyph>
<glyph name="at" format="2">
	<unicode hex="0040"/>
	<advance width="1797"/>
	<outline>
		<contour>
			<point x="1341" y="278" type="curve" smooth="yes"/>
			<point x="1275" y="278"/>
			<point x="1232" y="315"/>
			<point x="1232" y="403" type="curve" smooth="yes"/>
			<point x="1232" y="445"/>
			<point x="1241" y="499"/>
			<point x="1262" y="567" type="curve" smooth="yes"/>
			<point x="1404" y="1039" type="line"/>
			<point x="1225" y="1039" type="line"/>
			<point x="1199" y="954" type="line"/>
			<point x="1094" y="626" type="line"/>
			<point x="963" y="420"/>
			<point x="883" y="363"/>
			<point x="816" y="363" type="curve" smooth="yes"/>
			<point x="764" y="363"/>
			<point x="743" y="397"/>
			<point x="743" y="472" type="curve" smooth="yes"/>
			<point x="743" y="658"/>
			<point x="918" y="993"/>
			<point x="1090" y="993" type="curve" smooth="yes"/>
			<point x="1148" y="993"/>
			<point x="1187" y="966"/>
			<point x="1226" y="892" type="curve"/>
			<point x="1238" y="910" type="line"/>
			<point x="1197" y="1013"/>
			<point x="1125" y="1058"/>
			<point x="1046" y="1058" type="curve" smooth="yes"/>
			<point x="805" y="1058"/>
			<point x="551" y="693"/>
			<point x="551" y="434" type="curve" smooth="yes"/>
			<point x="551" y="313"/>
			<point x="600" y="243"/>
			<point x="721" y="243" type="curve" smooth="yes"/>
			<point x="824" y="243"/>
			<point x="941" y="314"/>
			<point x="1121" y="619" type="curve"/>
			<point x="1100" y="621" type="line"/>
			<point x="1080" y="532" type="line" smooth="yes"/>
			<point x="1073" y="500"/>
			<point x="1068" y="469"/>
			<point x="1068" y="442" type="curve" smooth="yes"/>
			<point x="1068" y="312"/>
			<point x="1152" y="243"/>
			<point x="1300" y="243" type="curve" smooth="yes"/>
			<point x="1612.3110556013" y="243"/>
			<point x="1817" y="556"/>
			<point x="1817" y="895" type="curve" smooth="yes"/>
			<point x="1817" y="1218"/>
			<point x="1556.2910447761" y="1454"/>
			<point x="1132" y="1454" type="curve" smooth="yes"/>
			<point x="568.1792183031" y="1454"/>
			<point x="98" y="972.5813953488"/>
			<point x="98" y="438" type="curve" smooth="yes"/>
			<point x="98" y="14.675"/>
			<point x="407" y="-218"/>
			<point x="850" y="-218" type="curve" smooth="yes"/>
			<point x="1081" y="-218"/>
			<point x="1323" y="-145"/>
			<point x="1511" y="-24" type="curve"/>
			<point x="1498" y="3" type="line"/>
			<point x="1291" y="-121"/>
			<point x="1060" y="-170"/>
			<point x="883" y="-170" type="curve" smooth="yes"/>
			<point x="476" y="-170"/>
			<point x="214" y="59"/>
			<point x="214" y="450" type="curve" smooth="yes"/>
			<point x="214" y="989"/>
			<point x="609.4669555796" y="1411"/>
			<point x="1122" y="1411" type="curve" smooth="yes"/>
			<point x="1490.2685025818" y="1411"/>
			<point x="1718" y="1180"/>
			<point x="1718" y="874" type="curve" smooth="yes"/>
			<point x="1718" y="530"/>
			<point x="1523.9782392076" y="278"/>
		</contour>
	</outline>
</glyph>
<glyph name="A" format="2">
	<unicode hex="0041"/>
	<advance width="1401"/>
	<outline>
		<contour>
			<point x="380" y="557" type="line"/>
			<point x="1052" y="557" type="line"/>
			<point x="1070" y="613" type="line"/>
			<point x="399" y="613" type="line"/>
		</contour>
		<contour>
			<point x="1153" y="58" type="line"/>
			<point x="978" y="1450" type="line"/>
			<point x="942" y="1450" type="line"/>
			<point x="13" y="66" type="line"/>
			<point x="-158" y="20" type="line"/>
			<point x="-164" y="0" type="line"/>
			<point x="228" y="0" type="line"/>
			<point x="234" y="20" type="line"/>
			<point x="78" y="63" type="line"/>
			<point x="848" y="1220" type="line"/>
			<point x="824" y="1220" type="line"/>
			<point x="962" y="56" type="line"/>
			<point x="804" y="20" type="line"/>
			<point x="798" y="0" type="line"/>
			<point x="1292" y="0" type="line"/>
			<point x="1298" y="20" type="line"/>
		</contour>
	</outline>
	<anchor name="UCtop" x="928" y="1430"/>
	<anchor name="bottom" x="520" y="0"/>
	<anchor name="right" x="1191" y="0"/>
</glyph>
<glyph name="B" format="2">
	<unicode hex="0042"/>
	<advance width="1271"/>
	<outline>
		<contour>
			<point x="525" y="1382" type="line"/>
			<point x="811" y="1382" type="line" smooth="yes"/>
			<point x="998" y="1382"/>
			<point x="1072" y="1309"/>
			<point x="1072" y="1175" type="curve" smooth="yes"/>
			<point x="1072" y="962"/>
			<point x="943" y="785"/>
			<point x="712" y="785" type="curve" smooth="yes"/>
			<point x="345" y="785" type="line"/>
			<point x="354" y="737" type="line"/>
			<point x="705" y="737" type="line" smooth="yes"/>
			<point x="888" y="737"/>
			<point x="962" y="649"/>
			<point x="962" y="514" type="curve" smooth="yes"/>
			<point x="962" y="222"/>
			<point x="795" y="48"/>
			<point x="495" y="48" type="curve" smooth="yes"/>
			<point x="146" y="48" type="line"/>
			<point x="198" y="0" type="line"/>
			<point x="506" y="0" type="line" smooth="yes"/>
			<point x="917" y="0"/>
			<point x="1162" y="215"/>
			<point x="1162" y="470" type="curve" smooth="yes"/>
			<point x="1162" y="617"/>
			<point x="1061" y="750"/>
			<point x="819" y="770" type="curve"/>
			<point x="789" y="758" type="line"/>
			<point x="1098" y="788"/>
			<point x="1264" y="958"/>
			<point x="1264" y="1158" type="curve" smooth="yes"/>
			<point x="1264" y="1307"/>
			<point x="1155" y="1430"/>
			<point x="895" y="1430" type="curve" smooth="yes"/>
			<point x="634" y="1430" type="line"/>
		</contour>
		<contour>
			<point x="505" y="1370" type="line"/>
			<point x="106" y="60" type="line"/>
			<point x="-72" y="20" type="line"/>
			<point x="-78" y="0" type="line"/>
			<point x="283" y="0" type="line"/>
			<point x="718" y="1430" type="line"/>
			<point x="348" y="1430" type="line"/>
			<point x="342" y="1410" type="line"/>
		</contour>
	</outline>
	<anchor name="UCtop" x="874" y="1430"/>
	<anchor name="bottom" x="516" y="0"/>
</glyph>
<glyph name="C" format="2">
	<unicode hex="0043"/>
	<advance width="1384"/>
	<outline>
		<contour>
			<point x="1081" y="144" type="line"/>
			<point x="954" y="51"/>
			<point x="819" y="20"/>
			<point x="705" y="20" type="curve" smooth="yes"/>
			<point x="482" y="20"/>
			<point x="325" y="172"/>
			<point x="325" y="505" type="curve" smooth="yes"/>
			<point x="325" y="1013"/>
			<point x="630" y="1404"/>
			<point x="1069" y="1404" type="curve" smooth="yes"/>
			<point x="1185" y="1404"/>
			<point x="1273" y="1376"/>
			<point x="1353" y="1283" type="curve"/>
			<point x="1308" y="1362" type="line"/>
			<point x="1396" y="994" type="line"/>
			<point x="1421" y="994" type="line"/>
			<point x="1465" y="1484" type="line"/>
			<point x="1452" y="1484" type="line"/>
			<point x="1316" y="1398" type="line"/>
			<point x="1409" y="1412" type="line"/>
			<point x="1310" y="1438"/>
			<point x="1218" y="1450"/>
			<point x="1112" y="1450" type="curve" smooth="yes"/>
			<point x="585" y="1450"/>
			<point x="140" y="1082"/>
			<point x="140" y="525" type="curve" smooth="yes"/>
			<point x="140" y="185"/>
			<point x="359" y="-20"/>
			<point x="697" y="-20" type="curve" smooth="yes"/>
			<point x="833" y="-20"/>
			<point x="966" y="-6"/>
			<point x="1117" y="34" type="curve"/>
			<point x="1288" y="361" type="line"/>
			<point x="1264" y="361" type="line"/>
			<point x="988" y="72" type="line"/>
		</contour>
	</outline>
	<anchor name="UCtop" x="993" y="1430"/>
	<anchor name="bottom" x="645" y="0"/>
	<anchor name="right" x="1108" y="0"/>
</glyph>
<glyph name="D" format="2">
	<unicode hex="0044"/>
	<advance width="1497"/>
	<outline>
		<contour>
			<point x="527" y="56" type="curve" smooth="yes"/>
			<point x="186" y="56" type="line"/>
			<point x="170" y="0" type="line"/>
			<point x="503" y="0" type="line" smooth="yes"/>
			<point x="1127" y="0"/>
			<point x="1480" y="422"/>
			<point x="1480" y="895" type="curve" smooth="yes"/>
			<point x="1480" y="1245"/>
			<point x="1211" y="1430"/>
			<point x="836" y="1430" type="curve" smooth="yes"/>
			<point x="608" y="1430" type="line"/>
			<point x="592" y="1374" type="line"/>
			<point x="821" y="1374" type="line" smooth="yes"/>
			<point x="1124" y="1374"/>
			<point x="1281" y="1211.9931972789"/>
			<point x="1281" y="941" type="curve" smooth="yes"/>
			<point x="1281" y="392.954087346"/>
			<point x="939" y="56"/>
		</contour>
		<contour>
			<point x="505" y="1370" type="line"/>
			<point x="106" y="60" type="line"/>
			<point x="-72" y="20" type="line"/>
			<point x="-78" y="0" type="line"/>
			<point x="283" y="0" type="line"/>
			<point x="718" y="1430" type="line"/>
			<point x="348" y="1430" type="line"/>
			<point x="342" y="1410" type="line"/>
		</contour>
	</outline>
	<anchor name="UCtop" x="1042" y="1430"/>
	<anchor name="bottom" x="644" y="0"/>
</glyph>
<glyph name="E" format="2">
	<unicode hex="0045"/>
	<advance width="1291"/>
	<outline>
		<contour>
			<point x="505" y="1370" type="line"/>
			<point x="106" y="60" type="line"/>
			<point x="-72" y="20" type="line"/>
			<point x="-78" y="0" type="line"/>
			<point x="283" y="0" type="line"/>
			<point x="718" y="1430" type="line"/>
			<point x="348" y="1430" type="line"/>
			<point x="342" y="1410" type="line"/>
		</contour>
		<contour>
			<point x="1251" y="1394" type="line"/>
			<point x="1318" y="1031" type="line"/>
			<point x="1342" y="1031" type="line"/>
			<point x="1416" y="1484" type="line"/>
			<point x="1409" y="1484" type="line"/>
			<point x="1262" y="1430" type="line"/>
			<point x="582" y="1430" type="line"/>
			<point x="564" y="1374" type="line"/>
			<point x="1376" y="1374" type="line"/>
		</contour>
		<contour>
			<point x="965" y="-54" type="line"/>
			<point x="972" y="-54" type="line"/>
			<point x="1202" y="369" type="line"/>
			<point x="1182" y="384" type="line"/>
			<point x="822" y="38" type="line"/>
			<point x="1003" y="56" type="line"/>
			<point x="163" y="56" type="line"/>
			<point x="145" y="0" type="line"/>
			<point x="838" y="0" type="line"/>
		</contour>
		<contour>
			<point x="871" y="455" type="line"/>
			<point x="928" y="746" type="line"/>
			<point x="1050" y="1039" type="line"/>
			<point x="1029" y="1039" type="line"/>
			<point x="846" y="784" type="line"/>
			<point x="382" y="756" type="line"/>
			<point x="375" y="737" type="line"/>
			<point x="831" y="713" type="line"/>
			<point x="850" y="455" type="line"/>
		</contour>
	</outline>
	<anchor name="UCtop" x="910" y="1430"/>
	<anchor name="right" x="969" y="0"/>
	<anchor name="bottom" x="542" y="0"/>
</glyph>
<glyph name="F" format="2">
	<unicode hex="0046"/>
	<advance width="1162"/>
	<outline>
		<contour>
			<point x="1053" y="1009" type="line"/>
			<point x="1032" y="1009" type="line"/>
			<point x="849" y="754" type="line"/>
			<point x="385" y="726" type="line"/>
			<point x="378" y="707" type="line"/>
			<point x="834" y="683" type="line"/>
			<point x="853" y="425" type="line"/>
			<point x="874" y="425" type="line"/>
			<point x="931" y="716" type="line"/>
		</contour>
		<contour>
			<point x="1280" y="1031" type="line"/>
			<point x="1354" y="1484" type="line"/>
			<point x="1347" y="1484" type="line"/>
			<point x="1200" y="1430" type="line"/>
			<point x="582" y="1430" type="line"/>
			<point x="564" y="1374" type="line"/>
			<point x="1314" y="1374" type="line"/>
			<point x="1189" y="1394" type="line"/>
			<point x="1256" y="1031" type="line"/>
		</contour>
		<contour>
			<point x="301" y="60" type="line"/>
			<point x="718" y="1430" type="line"/>
			<point x="348" y="1430" type="line"/>
			<point x="342" y="1410" type="line"/>
			<point x="505" y="1370" type="line"/>
			<point x="106" y="60" type="line"/>
			<point x="-72" y="20" type="line"/>
			<point x="-78" y="0" type="line"/>
			<point x="458" y="0" type="line"/>
			<point x="463" y="20" type="line"/>
		</contour>
	</outline>
	<anchor name="UCtop" x="879" y="1430"/>
	<anchor name="bottom" x="201" y="0"/>
</glyph>
<glyph name="G" format="2">
	<unicode hex="0047"/>
	<advance width="1495"/>
	<outline>
		<contour>
			<point x="725" y="20" type="curve" smooth="yes"/>
			<point x="469" y="20"/>
			<point x="325" y="182"/>
			<point x="325" y="505" type="curve" smooth="yes"/>
			<point x="325" y="1013"/>
			<point x="622" y="1404"/>
			<point x="1050" y="1404" type="curve" smooth="yes"/>
			<point x="1166" y="1404"/>
			<point x="1254" y="1376"/>
			<point x="1334" y="1283" type="curve"/>
			<point x="1289" y="1362" type="line"/>
			<point x="1377" y="994" type="line"/>
			<point x="1402" y="994" type="line"/>
			<point x="1446" y="1484" type="line"/>
			<point x="1433" y="1484" type="line"/>
			<point x="1297" y="1398" type="line"/>
			<point x="1390" y="1412" type="line"/>
			<point x="1291" y="1438"/>
			<point x="1199" y="1450"/>
			<point x="1093" y="1450" type="curve" smooth="yes"/>
			<point x="577" y="1450"/>
			<point x="140" y="1082"/>
			<point x="140" y="525" type="curve" smooth="yes"/>
			<point x="140" y="185"/>
			<point x="390" y="-20"/>
			<point x="738" y="-20" type="curve" smooth="yes"/>
			<point x="902" y="-20"/>
			<point x="1064" y="10"/>
			<point x="1304" y="83" type="curve"/>
			<point x="1311" y="104" type="line"/>
			<point x="1194" y="104" type="line"/>
			<point x="1339" y="583" type="line"/>
			<point x="1479" y="620" type="line"/>
			<point x="1486" y="640" type="line"/>
			<point x="970" y="640" type="line"/>
			<point x="963" y="620" type="line"/>
			<point x="1158" y="577" type="line"/>
			<point x="990" y="25" type="line"/>
			<point x="1055" y="99" type="line"/>
			<point x="938" y="35"/>
			<point x="831" y="20"/>
		</contour>
	</outline>
	<anchor name="UCtop" x="994" y="1430"/>
	<anchor name="bottom" x="736" y="0"/>
</glyph>
<glyph name="H" format="2">
	<unicode hex="0048"/>
	<advance width="1586"/>
	<outline>
		<contour>
			<point x="384" y="712" type="line"/>
			<point x="1318" y="712" type="line"/>
			<point x="1337" y="768" type="line"/>
			<point x="402" y="768" type="line"/>
		</contour>
		<contour>
			<point x="505" y="1370" type="line"/>
			<point x="106" y="60" type="line"/>
			<point x="-72" y="20" type="line"/>
			<point x="-78" y="0" type="line"/>
			<point x="458" y="0" type="line"/>
			<point x="463" y="20" type="line"/>
			<point x="301" y="60" type="line"/>
			<point x="700" y="1370" type="line"/>
			<point x="878" y="1410" type="line"/>
			<point x="884" y="1430" type="line"/>
			<point x="348" y="1430" type="line"/>
			<point x="342" y="1410" type="line"/>
		</contour>
		<contour>
			<point x="1406" y="1370" type="line"/>
			<point x="1007" y="60" type="line"/>
			<point x="829" y="20" type="line"/>
			<point x="823" y="0" type="line"/>
			<point x="1359" y="0" type="line"/>
			<point x="1365" y="20" type="line"/>
			<point x="1203" y="60" type="line"/>
			<point x="1602" y="1370" type="line"/>
			<point x="1779" y="1410" type="line"/>
			<point x="1785" y="1430" type="line"/>
			<point x="1249" y="1430" type="line"/>
			<point x="1244" y="1410" type="line"/>
		</contour>
	</outline>
	<anchor name="UCtop" x="1044" y="1430"/>
	<anchor name="bottom" x="666" y="0"/>
</glyph>
<glyph name="I" format="2">
	<unicode hex="0049"/>
	<advance width="684"/>
	<outline>
		<contour>
			<point x="505" y="1370" type="line"/>
			<point x="106" y="60" type="line"/>
			<point x="-72" y="20" type="line"/>
			<point x="-78" y="0" type="line"/>
			<point x="458" y="0" type="line"/>
			<point x="463" y="20" type="line"/>
			<point x="301" y="60" type="line"/>
			<point x="700" y="1370" type="line"/>
			<point x="878" y="1410" type="line"/>
			<point x="884" y="1430" type="line"/>
			<point x="348" y="1430" type="line"/>
			<point x="342" y="1410" type="line"/>
		</contour>
	</outline>
	<anchor name="UCtop" x="604" y="1430"/>
	<anchor name="right" x="293" y="0"/>
	<anchor name="bottom" x="183" y="0"/>
</glyph>
<glyph name="J" format="2">
	<unicode hex="004A"/>
	<advance width="772"/>
	<outline>
		<contour>
			<point x="564" y="528" type="curve" smooth="yes"/>
			<point x="821" y="1370" type="line"/>
			<point x="999" y="1410" type="line"/>
			<point x="1005" y="1430" type="line"/>
			<point x="469" y="1430" type="line"/>
			<point x="463" y="1410" type="line"/>
			<point x="626" y="1370" type="line"/>
			<point x="284" y="249" type="line" smooth="yes"/>
			<point x="245" y="120"/>
			<point x="209" y="89"/>
			<point x="141" y="89" type="curve" smooth="yes"/>
			<point x="59" y="89"/>
			<point x="10" y="169"/>
			<point x="-21" y="169" type="curve" smooth="yes"/>
			<point x="-64" y="169"/>
			<point x="-110" y="129"/>
			<point x="-110" y="72" type="curve" smooth="yes"/>
			<point x="-110" y="17"/>
			<point x="-68" y="-20"/>
			<point x="18" y="-20" type="curve" smooth="yes"/>
			<point x="182" y="-20"/>
			<point x="457" y="180"/>
		</contour>
	</outline>
	<anchor name="UCtop" x="728" y="1430"/>
	<anchor name="bottom" x="190" y="0"/>
</glyph>
<glyph name="K" format="2">
	<unicode hex="004B"/>
	<advance width="1439"/>
	<outline>
		<contour>
			<point x="1184" y="58" type="line"/>
			<point x="662" y="851" type="line"/>
			<point x="588" y="767" type="line"/>
			<point x="1459" y="1371" type="line"/>
			<point x="1636" y="1410" type="line"/>
			<point x="1641" y="1430" type="line"/>
			<point x="1213" y="1430" type="line"/>
			<point x="1207" y="1410" type="line"/>
			<point x="1375" y="1369" type="line"/>
			<point x="537" y="785" type="line"/>
			<point x="462" y="785" type="line"/>
			<point x="443" y="729" type="line"/>
			<point x="518" y="729" type="line"/>
			<point x="948" y="59" type="line"/>
			<point x="783" y="20" type="line"/>
			<point x="777" y="0" type="line"/>
			<point x="1322" y="0" type="line"/>
			<point x="1328" y="20" type="line"/>
		</contour>
		<contour>
			<point x="505" y="1370" type="line"/>
			<point x="106" y="60" type="line"/>
			<point x="-72" y="20" type="line"/>
			<point x="-78" y="0" type="line"/>
			<point x="458" y="0" type="line"/>
			<point x="463" y="20" type="line"/>
			<point x="301" y="60" type="line"/>
			<point x="700" y="1370" type="line"/>
			<point x="878" y="1410" type="line"/>
			<point x="884" y="1430" type="line"/>
			<point x="348" y="1430" type="line"/>
			<point x="342" y="1410" type="line"/>
		</contour>
	</outline>
	<anchor name="UCtop" x="1002" y="1430"/>
	<anchor name="bottom" x="614" y="0"/>
</glyph>
<glyph name="L" format="2">
	<unicode hex="004C"/>
	<advance width="1187"/>
	<outline>
		<contour>
			<point x="700" y="1370" type="line"/>
			<point x="878" y="1410" type="line"/>
			<point x="884" y="1430" type="line"/>
			<point x="348" y="1430" type="line"/>
			<point x="342" y="1410" type="line"/>
			<point x="505" y="1370" type="line"/>
			<point x="106" y="60" type="line"/>
			<point x="-72" y="20" type="line"/>
			<point x="-78" y="0" type="line"/>
			<point x="283" y="0" type="line"/>
		</contour>
		<contour>
			<point x="738" y="38" type="line"/>
			<point x="799" y="56" type="line"/>
			<point x="169" y="56" type="line"/>
			<point x="151" y="0" type="line"/>
			<point x="754" y="0" type="line"/>
			<point x="881" y="-54" type="line"/>
			<point x="888" y="-54" type="line"/>
			<point x="1130" y="387" type="line"/>
			<point x="1110" y="402" type="line"/>
		</contour>
	</outline>
	<anchor name="UCtop" x="607" y="1430"/>
	<anchor name="right" x="901" y="1430"/>
	<anchor name="bottom" x="469" y="0"/>
	<anchor name="mid" x="1021" y="773"/>
</glyph>
<glyph name="M" format="2">
	<unicode hex="004D"/>
	<advance width="1967"/>
	<outline>
		<contour>
			<point x="606" y="1369" type="line"/>
			<point x="571" y="1328" type="line"/>
			<point x="739" y="-20" type="line"/>
			<point x="771" y="-20" type="line"/>
			<point x="1771" y="1399" type="line"/>
			<point x="1780" y="1430" type="line"/>
			<point x="1733" y="1430" type="line"/>
			<point x="859" y="192" type="line"/>
			<point x="900" y="192" type="line"/>
			<point x="749" y="1430" type="line"/>
			<point x="391" y="1430" type="line"/>
			<point x="386" y="1410" type="line"/>
			<point x="540" y="1345" type="line"/>
			<point x="81" y="62" type="line"/>
			<point x="-102" y="20" type="line"/>
			<point x="-107" y="0" type="line"/>
			<point x="309" y="0" type="line"/>
			<point x="315" y="20" type="line"/>
			<point x="139" y="62" type="line"/>
		</contour>
		<contour>
			<point x="1733" y="1430" type="line"/>
			<point x="1426" y="62" type="line"/>
			<point x="1243" y="20" type="line"/>
			<point x="1237" y="0" type="line"/>
			<point x="1772" y="0" type="line"/>
			<point x="1778" y="20" type="line"/>
			<point x="1621" y="62" type="line"/>
			<point x="1910" y="1369" type="line"/>
			<point x="2111" y="1410" type="line"/>
			<point x="2116" y="1430" type="line"/>
		</contour>
	</outline>
	<anchor name="UCtop" x="1225" y="1430"/>
	<anchor name="bottom" x="787" y="0"/>
</glyph>
<glyph name="N" format="2">
	<unicode hex="004E"/>
	<advance width="1492"/>
	<outline>
		<contour>
			<point x="1162" y="251" type="line"/>
			<point x="709" y="1430" type="line"/>
			<point x="339" y="1430" type="line"/>
			<point x="333" y="1410" type="line"/>
			<point x="505" y="1353" type="line"/>
			<point x="110" y="58" type="line"/>
			<point x="-68" y="20" type="line"/>
			<point x="-74" y="0" type="line"/>
			<point x="344" y="0" type="line"/>
			<point x="350" y="20" type="line"/>
			<point x="168" y="58" type="line"/>
			<point x="566" y="1360" type="line"/>
			<point x="541" y="1322" type="line"/>
			<point x="1064" y="-20" type="line"/>
			<point x="1101" y="-20" type="line"/>
			<point x="1526" y="1372" type="line"/>
			<point x="1704" y="1410" type="line"/>
			<point x="1710" y="1430" type="line"/>
			<point x="1292" y="1430" type="line"/>
			<point x="1286" y="1410" type="line"/>
			<point x="1468" y="1372" type="line"/>
			<point x="1125" y="251" type="line"/>
		</contour>
	</outline>
	<anchor name="UCtop" x="1049" y="1430"/>
	<anchor name="bottom" x="661" y="0"/>
</glyph>
<glyph name="O" format="2">
	<unicode hex="004F"/>
	<advance width="1542"/>
	<outline>
		<contour>
			<point x="319" y="451" type="curve" smooth="yes"/>
			<point x="319" y="851"/>
			<point x="576" y="1403"/>
			<point x="999" y="1403" type="curve" smooth="yes"/>
			<point x="1217" y="1403"/>
			<point x="1346" y="1259"/>
			<point x="1346" y="979" type="curve" smooth="yes"/>
			<point x="1346" y="579"/>
			<point x="1089" y="27"/>
			<point x="666" y="27" type="curve" smooth="yes"/>
			<point x="448" y="27"/>
			<point x="319" y="171"/>
		</contour>
		<contour>
			<point x="1528" y="907" type="curve" smooth="yes"/>
			<point x="1528" y="1244"/>
			<point x="1320" y="1450"/>
			<point x="985" y="1450" type="curve" smooth="yes"/>
			<point x="505" y="1450"/>
			<point x="137" y="987"/>
			<point x="137" y="523" type="curve" smooth="yes"/>
			<point x="137" y="186"/>
			<point x="345" y="-20"/>
			<point x="680" y="-20" type="curve" smooth="yes"/>
			<point x="1160" y="-20"/>
			<point x="1528" y="443"/>
		</contour>
	</outline>
	<anchor name="UCtop" x="1051" y="1430"/>
	<anchor name="bottom" x="583" y="0"/>
	<anchor name="right" x="723" y="0"/>
	<anchor name="horn" x="1417" y="1430"/>
</glyph>
<glyph name="P" format="2">
	<unicode hex="0050"/>
	<advance width="1228"/>
	<outline>
		<contour>
			<point x="693" y="703" type="curve" smooth="yes"/>
			<point x="378" y="703" type="line"/>
			<point x="359" y="647" type="line"/>
			<point x="732" y="647" type="line" smooth="yes"/>
			<point x="1112" y="647"/>
			<point x="1342" y="844"/>
			<point x="1342" y="1110" type="curve" smooth="yes"/>
			<point x="1342" y="1282"/>
			<point x="1220" y="1430"/>
			<point x="886" y="1430" type="curve" smooth="yes"/>
			<point x="599" y="1430" type="line"/>
			<point x="581" y="1374" type="line"/>
			<point x="818" y="1374" type="line" smooth="yes"/>
			<point x="1064" y="1374"/>
			<point x="1148" y="1255"/>
			<point x="1148" y="1118" type="curve" smooth="yes"/>
			<point x="1148" y="865"/>
			<point x="979" y="703"/>
		</contour>
		<contour>
			<point x="301" y="60" type="line"/>
			<point x="718" y="1430" type="line"/>
			<point x="348" y="1430" type="line"/>
			<point x="342" y="1410" type="line"/>
			<point x="505" y="1370" type="line"/>
			<point x="106" y="60" type="line"/>
			<point x="-72" y="20" type="line"/>
			<point x="-78" y="0" type="line"/>
			<point x="458" y="0" type="line"/>
			<point x="463" y="20" type="line"/>
		</contour>
	</outline>
	<anchor name="UCtop" x="913" y="1430"/>
	<anchor name="bottom" x="205" y="0"/>
</glyph>
<glyph name="Q" format="2">
	<unicode hex="0051"/>
	<advance width="1542"/>
	<outline>
		<contour>
			<point x="855" y="-312" type="line" smooth="yes"/>
			<point x="960" y="-391"/>
			<point x="1047" y="-465"/>
			<point x="1206" y="-465" type="curve" smooth="yes"/>
			<point x="1290" y="-465"/>
			<point x="1405" y="-436"/>
			<point x="1501" y="-402" type="curve"/>
			<point x="1513" y="-363" type="line"/>
			<point x="1318" y="-383"/>
			<point x="1213" y="-339"/>
			<point x="1049" y="-239" type="curve" smooth="yes"/>
			<point x="663" y="-4" type="line"/>
			<point x="658" y="-14" type="line"/>
			<point x="1163" y="-30"/>
			<point x="1528" y="446"/>
			<point x="1528" y="907" type="curve" smooth="yes"/>
			<point x="1528" y="1244"/>
			<point x="1320" y="1450"/>
			<point x="985" y="1450" type="curve" smooth="yes"/>
			<point x="505" y="1450"/>
			<point x="137" y="987"/>
			<point x="137" y="523" type="curve" smooth="yes"/>
			<point x="137" y="316"/>
			<point x="213" y="170"/>
			<point x="346" y="70" type="curve" smooth="yes"/>
		</contour>
		<contour>
			<point x="319" y="451" type="curve" smooth="yes"/>
			<point x="319" y="851"/>
			<point x="576" y="1403"/>
			<point x="999" y="1403" type="curve" smooth="yes"/>
			<point x="1217" y="1403"/>
			<point x="1346" y="1259"/>
			<point x="1346" y="979" type="curve" smooth="yes"/>
			<point x="1346" y="579"/>
			<point x="1089" y="27"/>
			<point x="666" y="27" type="curve" smooth="yes"/>
			<point x="448" y="27"/>
			<point x="319" y="171"/>
		</contour>
	</outline>
	<anchor name="bottom" x="528" y="-142"/>
	<anchor name="UCtop" x="1052" y="1430"/>
</glyph>
<glyph name="R" format="2">
	<unicode hex="0052"/>
	<advance width="1357"/>
	<outline>
		<contour>
			<point x="707" y="768" type="curve" smooth="yes"/>
			<point x="367" y="768" type="line"/>
			<point x="351" y="716" type="line"/>
			<point x="675" y="716" type="line" smooth="yes"/>
			<point x="746" y="716"/>
			<point x="767" y="700"/>
			<point x="822" y="532" type="curve" smooth="yes"/>
			<point x="940" y="168" type="line" smooth="yes"/>
			<point x="993" y="6"/>
			<point x="1035" y="-22"/>
			<point x="1275" y="0" type="curve"/>
			<point x="1286" y="35" type="line"/>
			<point x="1195" y="34"/>
			<point x="1184" y="44"/>
			<point x="1135" y="184" type="curve" smooth="yes"/>
			<point x="1012" y="538" type="line" smooth="yes"/>
			<point x="964" y="676"/>
			<point x="898" y="739"/>
			<point x="756" y="740" type="curve"/>
			<point x="756" y="738" type="line"/>
			<point x="1099" y="747"/>
			<point x="1290" y="912"/>
			<point x="1290" y="1151" type="curve" smooth="yes"/>
			<point x="1290" y="1312"/>
			<point x="1167" y="1430"/>
			<point x="866" y="1430" type="curve" smooth="yes"/>
			<point x="570" y="1430" type="line"/>
			<point x="554" y="1378" type="line"/>
			<point x="810" y="1378" type="line" smooth="yes"/>
			<point x="1023" y="1378"/>
			<point x="1106" y="1305"/>
			<point x="1106" y="1150" type="curve" smooth="yes"/>
			<point x="1106" y="927"/>
			<point x="946" y="768"/>
		</contour>
		<contour>
			<point x="301" y="60" type="line"/>
			<point x="718" y="1430" type="line"/>
			<point x="348" y="1430" type="line"/>
			<point x="342" y="1410" type="line"/>
			<point x="505" y="1370" type="line"/>
			<point x="106" y="60" type="line"/>
			<point x="-72" y="20" type="line"/>
			<point x="-78" y="0" type="line"/>
			<point x="458" y="0" type="line"/>
			<point x="463" y="20" type="line"/>
		</contour>
	</outline>
	<anchor name="UCtop" x="893" y="1430"/>
	<anchor name="bottom" x="709" y="0"/>
</glyph>
<glyph name="S" format="2">
	<unicode hex="0053"/>
	<advance width="1077"/>
	<outline>
		<contour>
			<point x="1034" y="1249" type="curve"/>
			<point x="992" y="1343" type="line"/>
			<point x="1070" y="1021" type="line"/>
			<point x="1091" y="1021" type="line"/>
			<point x="1148" y="1484" type="line"/>
			<point x="1132" y="1484" type="line"/>
			<point x="1010" y="1374" type="line"/>
			<point x="1116" y="1342" type="line"/>
			<point x="1009" y="1413"/>
			<point x="908" y="1450"/>
			<point x="768" y="1450" type="curve" smooth="yes"/>
			<point x="483" y="1450"/>
			<point x="300" y="1282"/>
			<point x="300" y="1045" type="curve" smooth="yes"/>
			<point x="300" y="865"/>
			<point x="387" y="782"/>
			<point x="505" y="707" type="curve" smooth="yes"/>
			<point x="623" y="632"/>
			<point x="792" y="573"/>
			<point x="792" y="365" type="curve" smooth="yes"/>
			<point x="792" y="129"/>
			<point x="637" y="20"/>
			<point x="399" y="20" type="curve" smooth="yes"/>
			<point x="271" y="20"/>
			<point x="196" y="60"/>
			<point x="108" y="126" type="curve"/>
			<point x="205" y="22" type="line"/>
			<point x="74" y="413" type="line"/>
			<point x="46" y="413" type="line"/>
			<point x="51" y="42" type="line"/>
			<point x="143" y="1"/>
			<point x="263" y="-20"/>
			<point x="387" y="-20" type="curve" smooth="yes"/>
			<point x="727" y="-20"/>
			<point x="944" y="171"/>
			<point x="944" y="444" type="curve" smooth="yes"/>
			<point x="944" y="680"/>
			<point x="793" y="762"/>
			<point x="669" y="836" type="curve" smooth="yes"/>
			<point x="545" y="910"/>
			<point x="436" y="976"/>
			<point x="436" y="1139" type="curve" smooth="yes"/>
			<point x="436" y="1303"/>
			<point x="543" y="1404"/>
			<point x="739" y="1404" type="curve" smooth="yes"/>
			<point x="874" y="1404"/>
			<point x="976" y="1340"/>
		</contour>
	</outline>
	<anchor name="UCtop" x="778" y="1430"/>
	<anchor name="bottom" x="430" y="0"/>
</glyph>
<glyph name="T" format="2">
	<unicode hex="0054"/>
	<advance width="1373"/>
	<outline>
		<contour>
			<point x="1484" y="1374" type="line"/>
			<point x="1398" y="1389" type="line"/>
			<point x="1447" y="991" type="line"/>
			<point x="1477" y="991" type="line"/>
			<point x="1573" y="1503" type="line"/>
			<point x="1556" y="1503" type="line"/>
			<point x="1389" y="1414" type="line"/>
			<point x="1479" y="1430" type="line"/>
			<point x="452" y="1430" type="line"/>
			<point x="541" y="1414" type="line"/>
			<point x="420" y="1503" type="line"/>
			<point x="403" y="1503" type="line"/>
			<point x="190" y="1000" type="line"/>
			<point x="213" y="988" type="line"/>
			<point x="538" y="1389" type="line"/>
			<point x="410" y="1374" type="line"/>
		</contour>
		<contour>
			<point x="863" y="1400" type="line"/>
			<point x="455" y="60" type="line"/>
			<point x="277" y="20" type="line"/>
			<point x="271" y="0" type="line"/>
			<point x="807" y="0" type="line"/>
			<point x="812" y="20" type="line"/>
			<point x="650" y="60" type="line"/>
			<point x="1058" y="1400" type="line"/>
		</contour>
	</outline>
	<anchor name="UCtop" x="932" y="1430"/>
	<anchor name="bottom" x="554" y="0"/>
</glyph>
<glyph name="U" format="2">
	<unicode hex="0055"/>
	<advance width="1528"/>
	<outline>
		<contour>
			<point x="445" y="603" type="curve" smooth="yes"/>
			<point x="679" y="1370" type="line"/>
			<point x="857" y="1410" type="line"/>
			<point x="863" y="1430" type="line"/>
			<point x="327" y="1430" type="line"/>
			<point x="321" y="1410" type="line"/>
			<point x="484" y="1370" type="line"/>
			<point x="262" y="645" type="line" smooth="yes"/>
			<point x="121" y="184"/>
			<point x="337" y="-20"/>
			<point x="699" y="-20" type="curve" smooth="yes"/>
			<point x="1024" y="-20"/>
			<point x="1204" y="155"/>
			<point x="1323" y="543" type="curve" smooth="yes"/>
			<point x="1577" y="1372" type="line"/>
			<point x="1755" y="1410" type="line"/>
			<point x="1761" y="1430" type="line"/>
			<point x="1343" y="1430" type="line"/>
			<point x="1337" y="1410" type="line"/>
			<point x="1519" y="1372" type="line"/>
			<point x="1277" y="583" type="line" smooth="yes"/>
			<point x="1167" y="225"/>
			<point x="994" y="94"/>
			<point x="746" y="94" type="curve" smooth="yes"/>
			<point x="462" y="94"/>
			<point x="332" y="233"/>
		</contour>
	</outline>
	<anchor name="UCtop" x="1081" y="1430"/>
	<anchor name="right" x="824" y="0"/>
	<anchor name="bottom" x="653" y="0"/>
	<anchor name="horn" x="1632" y="1430"/>
</glyph>
<glyph name="V" format="2">
	<unicode hex="0056"/>
	<advance width="1368"/>
	<outline>
		<contour>
			<point x="365" y="1372" type="line"/>
			<point x="540" y="-20" type="line"/>
			<point x="576" y="-20" type="line"/>
			<point x="1475" y="1364" type="line"/>
			<point x="1646" y="1410" type="line"/>
			<point x="1652" y="1430" type="line"/>
			<point x="1260" y="1430" type="line"/>
			<point x="1254" y="1410" type="line"/>
			<point x="1410" y="1367" type="line"/>
			<point x="670" y="210" type="line"/>
			<point x="694" y="210" type="line"/>
			<point x="556" y="1374" type="line"/>
			<point x="714" y="1410" type="line"/>
			<point x="720" y="1430" type="line"/>
			<point x="226" y="1430" type="line"/>
			<point x="220" y="1410" type="line"/>
		</contour>
	</outline>
	<anchor name="UCtop" x="997" y="1430"/>
	<anchor name="bottom" x="579" y="0"/>
</glyph>
<glyph name="W" format="2">
	<unicode hex="0057"/>
	<advance width="1928"/>
	<outline>
		<contour>
			<point x="1987" y="1369" type="line"/>
			<point x="1340" y="228" type="line"/>
			<point x="1390" y="228" type="line"/>
			<point x="1332" y="1450" type="line"/>
			<point x="1285" y="1450" type="line"/>
			<point x="495" y="228" type="line"/>
			<point x="539" y="228" type="line"/>
			<point x="572" y="1369" type="line"/>
			<point x="750" y="1410" type="line"/>
			<point x="755" y="1430" type="line"/>
			<point x="243" y="1430" type="line"/>
			<point x="239" y="1410" type="line"/>
			<point x="381" y="1367" type="line"/>
			<point x="348" y="-20" type="line"/>
			<point x="384" y="-20" type="line"/>
			<point x="1233" y="1275" type="line"/>
			<point x="1155" y="1222" type="line"/>
			<point x="1213" y="-20" type="line"/>
			<point x="1249" y="-20" type="line"/>
			<point x="2049" y="1366" type="line"/>
			<point x="2215" y="1410" type="line"/>
			<point x="2219" y="1430" type="line"/>
			<point x="1831" y="1430" type="line"/>
			<point x="1826" y="1410" type="line"/>
		</contour>
	</outline>
	<anchor name="UCtop" x="1280" y="1430"/>
	<anchor name="bottom" x="842" y="0"/>
</glyph>
<glyph name="X" format="2">
	<unicode hex="0058"/>
	<advance width="1369"/>
	<outline>
		<contour>
			<point x="729" y="700" type="line"/>
			<point x="795" y="742" type="line"/>
			<point x="1436" y="1359" type="line"/>
			<point x="1597" y="1410" type="line"/>
			<point x="1603" y="1430" type="line"/>
			<point x="1204" y="1430" type="line"/>
			<point x="1199" y="1410" type="line"/>
			<point x="1364" y="1362" type="line"/>
			<point x="770" y="785" type="line"/>
			<point x="701" y="745" type="line"/>
			<point x="4" y="71" type="line"/>
			<point x="-157" y="20" type="line"/>
			<point x="-164" y="0" type="line"/>
			<point x="241" y="0" type="line"/>
			<point x="247" y="20" type="line"/>
			<point x="82" y="68" type="line"/>
		</contour>
		<contour>
			<point x="891" y="61" type="line"/>
			<point x="722" y="20" type="line"/>
			<point x="715" y="0" type="line"/>
			<point x="1238" y="0" type="line"/>
			<point x="1244" y="20" type="line"/>
			<point x="1093" y="63" type="line"/>
			<point x="842" y="808" type="line"/>
			<point x="834" y="832" type="line"/>
			<point x="657" y="1369" type="line"/>
			<point x="827" y="1410" type="line"/>
			<point x="832" y="1430" type="line"/>
			<point x="310" y="1430" type="line"/>
			<point x="304" y="1410" type="line"/>
			<point x="455" y="1367" type="line"/>
			<point x="679" y="704" type="line"/>
			<point x="688" y="679" type="line"/>
		</contour>
	</outline>
	<anchor name="UCtop" x="1030" y="1430"/>
	<anchor name="bottom" x="472" y="0"/>
</glyph>
<glyph name="Y" format="2">
	<unicode hex="0059"/>
	<advance width="1318"/>
	<outline>
		<contour>
			<point x="1360" y="1362" type="line"/>
			<point x="773" y="685" type="line"/>
			<point x="799" y="685" type="line"/>
			<point x="589" y="1369" type="line"/>
			<point x="765" y="1410" type="line"/>
			<point x="770" y="1430" type="line"/>
			<point x="244" y="1430" type="line"/>
			<point x="240" y="1410" type="line"/>
			<point x="388" y="1367" type="line"/>
			<point x="612" y="657" type="line"/>
			<point x="430" y="60" type="line"/>
			<point x="252" y="20" type="line"/>
			<point x="246" y="0" type="line"/>
			<point x="782" y="0" type="line"/>
			<point x="787" y="20" type="line"/>
			<point x="625" y="60" type="line"/>
			<point x="807" y="655" type="line"/>
			<point x="1425" y="1359" type="line"/>
			<point x="1586" y="1410" type="line"/>
			<point x="1591" y="1430" type="line"/>
			<point x="1199" y="1430" type="line"/>
			<point x="1194" y="1410" type="line"/>
		</contour>
	</outline>
	<anchor name="UCtop" x="957" y="1430"/>
	<anchor name="bottom" x="529" y="0"/>
</glyph>
<glyph name="Z" format="2">
	<unicode hex="005A"/>
	<advance width="1250"/>
	<outline>
		<contour>
			<point x="1419" y="1430" type="line"/>
			<point x="559" y="1430" type="line"/>
			<point x="455" y="1493" type="line"/>
			<point x="443" y="1493" type="line"/>
			<point x="230" y="1041" type="line"/>
			<point x="248" y="1028" type="line"/>
			<point x="560" y="1374" type="line"/>
			<point x="1334" y="1374" type="line"/>
			<point x="1190" y="1407" type="line"/>
			<point x="-49" y="11" type="line"/>
			<point x="-52" y="0" type="line"/>
			<point x="825" y="0" type="line"/>
			<point x="931" y="-52" type="line"/>
			<point x="947" y="-52" type="line"/>
			<point x="1152" y="390" type="line"/>
			<point x="1132" y="403" type="line"/>
			<point x="829" y="56" type="line"/>
			<point x="134" y="56" type="line"/>
			<point x="181" y="26" type="line"/>
			<point x="1416" y="1418" type="line"/>
		</contour>
	</outline>
	<anchor name="UCtop" x="955" y="1430"/>
	<anchor name="bottom" x="467" y="0"/>
</glyph>
<glyph name="bracketleft" format="2">
	<unicode hex="005B"/>
	<advance width="576"/>
	<outline>
		<contour>
			<point x="-34" y="-233" type="line"/>
			<point x="317" y="-233" type="line"/>
			<point x="326" y="-204" type="line"/>
			<point x="117" y="-180" type="line"/>
			<point x="604" y="1411" type="line"/>
			<point x="827" y="1435" type="line"/>
			<point x="836" y="1464" type="line"/>
			<point x="485" y="1464" type="line"/>
		</contour>
	</outline>
</glyph>
<glyph name="backslash" format="2">
	<unicode hex="005C"/>
	<advance width="752"/>
	<outline>
		<contour>
			<point x="538" y="0" type="line"/>
			<point x="408" y="1430" type="line"/>
			<point x="335" y="1430" type="line"/>
			<point x="465" y="0" type="line"/>
		</contour>
	</outline>
</glyph>
<glyph name="bracketright" format="2">
	<unicode hex="005D"/>
	<advance width="575"/>
	<outline>
		<contour>
			<point x="672" y="1464" type="line"/>
			<point x="321" y="1464" type="line"/>
			<point x="312" y="1435" type="line"/>
			<point x="521" y="1411" type="line"/>
			<point x="34" y="-180" type="line"/>
			<point x="-189" y="-204" type="line"/>
			<point x="-198" y="-233" type="line"/>
			<point x="153" y="-233" type="line"/>
		</contour>
	</outline>
</glyph>
<glyph name="asciicircum" format="2">
	<unicode hex="005E"/>
	<advance width="1150"/>
	<outline>
		<contour>
			<point x="838" y="1367" type="line"/>
			<point x="952" y="662" type="line"/>
			<point x="1016" y="662" type="line"/>
			<point x="889" y="1430" type="line"/>
			<point x="827" y="1430" type="line"/>
			<point x="232" y="662" type="line"/>
			<point x="312" y="662" type="line"/>
			<point x="853" y="1367" type="line"/>
		</contour>
	</outline>
</glyph>
<glyph name="a" format="2">
	<unicode hex="0061"/>
	<advance width="1038"/>
	<outline>
		<contour>
			<point x="537" y="63" type="line" smooth="yes"/>
			<point x="520" y="11"/>
			<point x="547" y="-20"/>
			<point x="613" y="-20" type="curve" smooth="yes"/>
			<point x="709" y="-20"/>
			<point x="839" y="65"/>
			<point x="1002" y="323" type="curve"/>
			<point x="993" y="330" type="line"/>
			<point x="842" y="152"/>
			<point x="731" y="100"/>
			<point x="678" y="118" type="curve"/>
			<point x="699" y="87" type="line"/>
			<point x="1014" y="1024" type="line"/>
			<point x="851" y="1024" type="line"/>
			<point x="816" y="923" type="line"/>
			<point x="651" y="446" type="line"/>
			<point x="474" y="193"/>
			<point x="354" y="111"/>
			<point x="277" y="111" type="curve" smooth="yes"/>
			<point x="219" y="111"/>
			<point x="180" y="142"/>
			<point x="180" y="226" type="curve" smooth="yes"/>
			<point x="180" y="511"/>
			<point x="475" y="975"/>
			<point x="688" y="975" type="curve" smooth="yes"/>
			<point x="745" y="975"/>
			<point x="790" y="953"/>
			<point x="825" y="882" type="curve"/>
			<point x="834" y="908" type="line"/>
			<point x="787" y="995"/>
			<point x="718" y="1040"/>
			<point x="642" y="1040" type="curve" smooth="yes"/>
			<point x="353" y="1040"/>
			<point x="3" y="525"/>
			<point x="3" y="169" type="curve" smooth="yes"/>
			<point x="3" y="45"/>
			<point x="80" y="-20"/>
			<point x="185" y="-20" type="curve" smooth="yes"/>
			<point x="296" y="-20"/>
			<point x="424" y="71"/>
			<point x="669" y="441" type="curve"/>
			<point x="658" y="441" type="line"/>
		</contour>
	</outline>
	<anchor name="top" x="687" y="1024"/>
	<anchor name="right" x="807" y="0"/>
	<anchor name="bottom" x="401" y="0"/>
</glyph>
<glyph name="c" format="2">
	<unicode hex="0063"/>
	<advance width="788"/>
	<outline>
		<contour>
			<point x="604" y="1009" type="curve" smooth="yes"/>
			<point x="654" y="1009"/>
			<point x="668" y="988"/>
			<point x="645" y="900" type="curve" smooth="yes"/>
			<point x="622" y="812"/>
			<point x="646" y="784"/>
			<point x="711" y="784" type="curve" smooth="yes"/>
			<point x="785" y="784"/>
			<point x="828" y="842"/>
			<point x="828" y="904" type="curve" smooth="yes"/>
			<point x="828" y="982"/>
			<point x="771" y="1044"/>
			<point x="638" y="1044" type="curve" smooth="yes"/>
			<point x="320" y="1044"/>
			<point x="40" y="660"/>
			<point x="40" y="246" type="curve" smooth="yes"/>
			<point x="40" y="73"/>
			<point x="132" y="-20"/>
			<point x="292" y="-20" type="curve" smooth="yes"/>
			<point x="443" y="-20"/>
			<point x="574" y="75"/>
			<point x="699" y="395" type="curve"/>
			<point x="688" y="397" type="line"/>
			<point x="573" y="181"/>
			<point x="457" y="109"/>
			<point x="349" y="109" type="curve" smooth="yes"/>
			<point x="255" y="109"/>
			<point x="209" y="163"/>
			<point x="209" y="305" type="curve" smooth="yes"/>
			<point x="209" y="613"/>
			<point x="383" y="1009"/>
		</contour>
	</outline>
	<anchor name="top" x="567" y="1024"/>
	<anchor name="right" x="561" y="0"/>
	<anchor name="bottom" x="284" y="0"/>
</glyph>
<glyph name="d" format="2">
	<unicode hex="0064"/>
	<advance width="1029"/>
	<outline>
		<contour>
			<point x="840" y="843" type="curve"/>
			<point x="847" y="877" type="line"/>
			<point x="800" y="985"/>
			<point x="726" y="1040"/>
			<point x="642" y="1040" type="curve" smooth="yes"/>
			<point x="333" y="1040"/>
			<point x="1" y="497"/>
			<point x="1" y="169" type="curve" smooth="yes"/>
			<point x="1" y="45"/>
			<point x="78" y="-20"/>
			<point x="183" y="-20" type="curve" smooth="yes"/>
			<point x="278" y="-20"/>
			<point x="410" y="48"/>
			<point x="667" y="441" type="curve"/>
			<point x="656" y="441" type="line"/>
			<point x="544" y="92" type="line" smooth="yes"/>
			<point x="518" y="11"/>
			<point x="539" y="-20"/>
			<point x="611" y="-20" type="curve" smooth="yes"/>
			<point x="709" y="-20"/>
			<point x="841" y="80"/>
			<point x="1013" y="323" type="curve"/>
			<point x="1004" y="330" type="line"/>
			<point x="834" y="148"/>
			<point x="722" y="101"/>
			<point x="671" y="117" type="curve"/>
			<point x="697" y="87" type="line"/>
			<point x="1139" y="1484" type="line"/>
			<point x="1136" y="1484" type="line"/>
			<point x="777" y="1407" type="line"/>
			<point x="776" y="1401" type="line"/>
			<point x="833" y="1364.0066225166"/>
			<point x="891" y="1326.3642384106"/>
			<point x="927" y="1303" type="curve"/>
			<point x="649" y="446" type="line"/>
			<point x="472" y="193"/>
			<point x="352" y="111"/>
			<point x="275" y="111" type="curve" smooth="yes"/>
			<point x="219" y="111"/>
			<point x="178" y="141"/>
			<point x="178" y="226" type="curve" smooth="yes"/>
			<point x="178" y="472"/>
			<point x="444" y="975"/>
			<point x="686" y="975" type="curve" smooth="yes"/>
			<point x="752" y="975"/>
			<point x="802" y="945"/>
		</contour>
	</outline>
	<anchor name="UCtop" x="811" y="1430"/>
	<anchor name="right" x="1133" y="1464"/>
	<anchor name="bottom" x="373" y="0"/>
	<anchor name="center" x="928" y="1207"/>
</glyph>
<glyph name="e" format="2">
	<unicode hex="0065"/>
	<advance width="808"/>
	<outline>
		<contour>
			<point x="586" y="1004" type="curve" smooth="yes"/>
			<point x="644" y="1004"/>
			<point x="678" y="960.4444444444"/>
			<point x="678" y="892" type="curve" smooth="yes"/>
			<point x="678" y="747"/>
			<point x="582" y="646"/>
			<point x="192" y="524" type="curve"/>
			<point x="186" y="493" type="line"/>
			<point x="420" y="552"/>
			<point x="687" y="646"/>
			<point x="765" y="695" type="curve"/>
			<point x="805" y="754"/>
			<point x="820" y="816"/>
			<point x="820" y="873" type="curve" smooth="yes"/>
			<point x="820" y="969.251497006"/>
			<point x="762" y="1044"/>
			<point x="623" y="1044" type="curve" smooth="yes"/>
			<point x="297" y="1044"/>
			<point x="35" y="601.7833753149"/>
			<point x="35" y="246" type="curve" smooth="yes"/>
			<point x="35" y="73"/>
			<point x="129.9722246033" y="-20"/>
			<point x="294" y="-20" type="curve" smooth="yes"/>
			<point x="440" y="-20"/>
			<point x="577" y="68"/>
			<point x="708" y="395" type="curve"/>
			<point x="697" y="397" type="line"/>
			<point x="578" y="177"/>
			<point x="464" y="109"/>
			<point x="353" y="109" type="curve" smooth="yes"/>
			<point x="256" y="109"/>
			<point x="204" y="163"/>
			<point x="204" y="305" type="curve" smooth="yes"/>
			<point x="204" y="536"/>
			<point x="362" y="1004"/>
		</contour>
	</outline>
	<anchor name="top" x="554" y="1024"/>
	<anchor name="right" x="603" y="0"/>
	<anchor name="bottom" x="298" y="0"/>
</glyph>
<glyph name="f" format="2">
	<unicode hex="0066"/>
	<advance width="576"/>
	<outline>
		<contour>
			<point x="133" y="972" type="line"/>
			<point x="721" y="972" type="line"/>
			<point x="731" y="1024" type="line"/>
			<point x="142" y="1024" type="line"/>
		</contour>
		<contour>
			<point x="304" y="237" type="curve" smooth="yes"/>
			<point x="509" y="1056" type="line" smooth="yes"/>
			<point x="579" y="1334"/>
			<point x="692" y="1445"/>
			<point x="795" y="1445" type="curve" smooth="yes"/>
			<point x="838" y="1445"/>
			<point x="852" y="1417"/>
			<point x="839" y="1343" type="curve" smooth="yes"/>
			<point x="826" y="1269"/>
			<point x="837" y="1235"/>
			<point x="888" y="1235" type="curve" smooth="yes"/>
			<point x="967" y="1235"/>
			<point x="1025" y="1287"/>
			<point x="1025" y="1368" type="curve" smooth="yes"/>
			<point x="1025" y="1435"/>
			<point x="976" y="1484"/>
			<point x="856" y="1484" type="curve" smooth="yes"/>
			<point x="636" y="1484"/>
			<point x="406" y="1321"/>
			<point x="329" y="982" type="curve" smooth="yes"/>
			<point x="124" y="81" type="line" smooth="yes"/>
			<point x="35" y="-309"/>
			<point x="-64" y="-418"/>
			<point x="-157" y="-418" type="curve" smooth="yes"/>
			<point x="-192" y="-418"/>
			<point x="-202" y="-404"/>
			<point x="-186" y="-331" type="curve" smooth="yes"/>
			<point x="-170" y="-258"/>
			<point x="-187" y="-233"/>
			<point x="-240" y="-233" type="curve" smooth="yes"/>
			<point x="-303" y="-233"/>
			<point x="-340" y="-284"/>
			<point x="-340" y="-342" type="curve" smooth="yes"/>
			<point x="-340" y="-416"/>
			<point x="-287" y="-465"/>
			<point x="-195" y="-465" type="curve" smooth="yes"/>
			<point x="-19" y="-465"/>
			<point x="176" y="-276"/>
		</contour>
	</outline>
	<anchor name="UCtop" x="755" y="1430"/>
	<anchor name="bottom" x="-127" y="-445"/>
</glyph>
<glyph name="g" format="2">
	<unicode hex="0067"/>
	<advance width="868"/>
	<outline>
		<contour>
			<point x="928" y="900" type="curve" smooth="yes"/>
			<point x="974" y="900"/>
			<point x="1022" y="953"/>
			<point x="1022" y="1012" type="curve" smooth="yes"/>
			<point x="1022" y="1037"/>
			<point x="1012" y="1051"/>
			<point x="985" y="1051" type="curve" smooth="yes"/>
			<point x="929" y="1051"/>
			<point x="853" y="1016"/>
			<point x="606" y="1034" type="curve"/>
			<point x="619" y="1015" type="line"/>
			<point x="847" y="1004"/>
			<point x="882" y="900"/>
		</contour>
		<contour>
			<point x="330" y="398" type="curve" smooth="yes"/>
			<point x="284" y="398"/>
			<point x="261" y="429"/>
			<point x="261" y="514" type="curve" smooth="yes"/>
			<point x="261" y="805"/>
			<point x="437" y="1010"/>
			<point x="575" y="1010" type="curve" smooth="yes"/>
			<point x="621" y="1010"/>
			<point x="644" y="979"/>
			<point x="644" y="894" type="curve" smooth="yes"/>
			<point x="644" y="603"/>
			<point x="468" y="398"/>
		</contour>
		<contour>
			<point x="566" y="1043" type="curve" smooth="yes"/>
			<point x="326" y="1043"/>
			<point x="115" y="822"/>
			<point x="115" y="586" type="curve" smooth="yes"/>
			<point x="115" y="446"/>
			<point x="194" y="365"/>
			<point x="339" y="365" type="curve" smooth="yes"/>
			<point x="574" y="365"/>
			<point x="790" y="566"/>
			<point x="790" y="812" type="curve" smooth="yes"/>
			<point x="790" y="952"/>
			<point x="711" y="1043"/>
		</contour>
		<contour>
			<point x="295" y="-465" type="curve" smooth="yes"/>
			<point x="596" y="-465"/>
			<point x="759" y="-331"/>
			<point x="759" y="-173" type="curve" smooth="yes"/>
			<point x="759" y="-49"/>
			<point x="677" y="45"/>
			<point x="428" y="124" type="curve" smooth="yes"/>
			<point x="180" y="203"/>
			<point x="162" y="223"/>
			<point x="162" y="268" type="curve" smooth="yes"/>
			<point x="162" y="314"/>
			<point x="200" y="355"/>
			<point x="288" y="373" type="curve"/>
			<point x="270" y="394" type="line"/>
			<point x="129" y="355"/>
			<point x="53" y="282"/>
			<point x="53" y="195" type="curve" smooth="yes"/>
			<point x="53" y="108"/>
			<point x="103" y="50"/>
			<point x="326" y="-10" type="curve" smooth="yes"/>
			<point x="560" y="-73"/>
			<point x="640" y="-148"/>
			<point x="640" y="-238" type="curve" smooth="yes"/>
			<point x="640" y="-337"/>
			<point x="530" y="-431"/>
			<point x="290" y="-431" type="curve" smooth="yes"/>
			<point x="70" y="-431"/>
			<point x="-17" y="-347"/>
			<point x="-17" y="-220" type="curve" smooth="yes"/>
			<point x="-17" y="-87"/>
			<point x="113" y="24"/>
			<point x="411" y="24" type="curve"/>
			<point x="411" y="43" type="line"/>
			<point x="333" y="43" type="line"/>
			<point x="-16" y="9"/>
			<point x="-140" y="-98"/>
			<point x="-140" y="-223" type="curve" smooth="yes"/>
			<point x="-140" y="-358"/>
			<point x="-23" y="-465"/>
		</contour>
	</outline>
	<anchor name="top" x="548" y="1024"/>
	<anchor name="bottom" x="292" y="-445"/>
</glyph>
<glyph name="h" format="2">
	<unicode hex="0068"/>
	<advance width="1054"/>
	<outline>
		<contour>
			<point x="321" y="524" type="line" smooth="yes"/>
			<point x="360" y="641"/>
			<point x="551" y="903"/>
			<point x="716" y="903" type="curve" smooth="yes"/>
			<point x="780" y="903"/>
			<point x="809" y="879"/>
			<point x="809" y="837" type="curve" smooth="yes"/>
			<point x="809" y="813"/>
			<point x="797" y="783"/>
			<point x="760" y="692" type="curve" smooth="yes"/>
			<point x="513" y="92" type="line" smooth="yes"/>
			<point x="480" y="11"/>
			<point x="514" y="-20"/>
			<point x="600" y="-20" type="curve" smooth="yes"/>
			<point x="701" y="-20"/>
			<point x="841" y="77"/>
			<point x="1015" y="323" type="curve"/>
			<point x="1006" y="330" type="line"/>
			<point x="828" y="146"/>
			<point x="713" y="103"/>
			<point x="654" y="117" type="curve"/>
			<point x="676" y="88" type="line"/>
			<point x="923" y="694" type="line" smooth="yes"/>
			<point x="973" y="817"/>
			<point x="983" y="857"/>
			<point x="983" y="902" type="curve" smooth="yes"/>
			<point x="983" y="980"/>
			<point x="938" y="1044"/>
			<point x="817" y="1044" type="curve" smooth="yes"/>
			<point x="688" y="1044"/>
			<point x="569" y="979"/>
			<point x="329" y="598" type="curve"/>
			<point x="344" y="598" type="line"/>
			<point x="622" y="1484" type="line"/>
			<point x="619" y="1484" type="line"/>
			<point x="260" y="1407" type="line"/>
			<point x="259" y="1401" type="line"/>
			<point x="316" y="1364.0066225166"/>
			<point x="374" y="1326.3642384106"/>
			<point x="410" y="1303" type="curve"/>
			<point x="-18" y="0" type="line"/>
			<point x="145" y="0" type="line"/>
		</contour>
	</outline>
	<anchor name="UCtop" x="795" y="1430"/>
	<anchor name="bottom" x="371" y="0"/>
	<anchor name="center" x="503" y="1207"/>
</glyph>
<glyph name="i" format="2">
  <advance width="588"/>
  <unicode hex="0069"/>
  <anchor x="589.0" y="1430" name="top"/>
  <anchor x="130.0" y="0" name="bottom"/>
  <anchor x="271.0" y="0" name="right"/>
  <outline>
    <contour>
      <point x="65.0" y="92.0" type="line" smooth="yes"/>
      <point x="35.0" y="11.0"/>
      <point x="59.0" y="-20.0"/>
      <point x="138.0" y="-20.0" type="curve" smooth="yes"/>
      <point x="237.0" y="-20.0"/>
      <point x="369.0" y="80.0"/>
      <point x="541.0" y="323.0" type="curve"/>
      <point x="532.0" y="330.0" type="line"/>
      <point x="328.0" y="123.0"/>
      <point x="242.0" y="97.0"/>
      <point x="199.0" y="124.0" type="curve"/>
      <point x="223.0" y="88.0" type="line"/>
      <point x="538.0" y="932.0" type="line" smooth="yes"/>
      <point x="565.0" y="1003.0"/>
      <point x="547.0" y="1044.0"/>
      <point x="466.0" y="1044.0" type="curve" smooth="yes"/>
      <point x="359.0" y="1044.0"/>
      <point x="234.0" y="944.0"/>
      <point x="62.0" y="701.0" type="curve"/>
      <point x="71.0" y="694.0" type="line"/>
      <point x="250.0" y="881.0"/>
      <point x="345.0" y="920.0"/>
      <point x="399.0" y="906.0" type="curve"/>
      <point x="380.0" y="936.0" type="line"/>
    </contour>
    <contour>
      <point x="454.0" y="1341.0" type="curve" smooth="yes"/>
      <point x="454.0" y="1275.0"/>
      <point x="502.0" y="1212.0"/>
      <point x="580.0" y="1212.0" type="curve" smooth="yes"/>
      <point x="657.0" y="1212.0"/>
      <point x="702.0" y="1275.0"/>
      <point x="702.0" y="1341.0" type="curve" smooth="yes"/>
      <point x="702.0" y="1405.0"/>
      <point x="657.0" y="1461.0"/>
      <point x="580.0" y="1461.0" type="curve" smooth="yes"/>
      <point x="502.0" y="1461.0"/>
      <point x="454.0" y="1405.0"/>
    </contour>
  </outline>
</glyph>
<glyph name="j" format="2">
	<unicode hex="006A"/>
	<advance width="532"/>
	<outline>
		<contour>
			<point x="438" y="1341" type="curve" smooth="yes"/>
			<point x="438" y="1275"/>
			<point x="486" y="1212"/>
			<point x="564" y="1212" type="curve" smooth="yes"/>
			<point x="641" y="1212"/>
			<point x="686" y="1275"/>
			<point x="686" y="1341" type="curve" smooth="yes"/>
			<point x="686" y="1405"/>
			<point x="641" y="1461"/>
			<point x="564" y="1461" type="curve" smooth="yes"/>
			<point x="486" y="1461"/>
			<point x="438" y="1405"/>
		</contour>
		<contour>
			<point x="243" y="85" type="curve" smooth="yes"/>
			<point x="522" y="932" type="line" smooth="yes"/>
			<point x="545" y="1003"/>
			<point x="531" y="1044"/>
			<point x="450" y="1044" type="curve" smooth="yes"/>
			<point x="343" y="1044"/>
			<point x="218" y="944"/>
			<point x="46" y="701" type="curve"/>
			<point x="55" y="694" type="line"/>
			<point x="234" y="881"/>
			<point x="329" y="920"/>
			<point x="383" y="906" type="curve"/>
			<point x="364" y="936" type="line"/>
			<point x="51" y="-48" type="line" smooth="yes"/>
			<point x="-49" y="-361"/>
			<point x="-105" y="-418"/>
			<point x="-171" y="-418" type="curve" smooth="yes"/>
			<point x="-214" y="-418"/>
			<point x="-232" y="-399"/>
			<point x="-219" y="-330" type="curve" smooth="yes"/>
			<point x="-206" y="-261"/>
			<point x="-220" y="-233"/>
			<point x="-274" y="-233" type="curve" smooth="yes"/>
			<point x="-337" y="-233"/>
			<point x="-374" y="-284"/>
			<point x="-374" y="-342" type="curve" smooth="yes"/>
			<point x="-374" y="-409"/>
			<point x="-325" y="-465"/>
			<point x="-229" y="-465" type="curve" smooth="yes"/>
			<point x="-72" y="-465"/>
			<point x="118" y="-294"/>
		</contour>
	</outline>
	<anchor name="top" x="571" y="1430"/>
	<anchor name="bottom" x="-163" y="-445"/>
</glyph>
<glyph name="k" format="2">
	<unicode hex="006B"/>
	<advance width="975"/>
	<outline>
		<contour>
			<point x="622" y="1484" type="line"/>
			<point x="619" y="1484" type="line"/>
			<point x="260" y="1407" type="line"/>
			<point x="259" y="1401" type="line"/>
			<point x="316" y="1364.0066225166"/>
			<point x="374" y="1326.3642384106"/>
			<point x="410" y="1303" type="curve"/>
			<point x="-18" y="0" type="line"/>
			<point x="145" y="0" type="line"/>
		</contour>
		<contour>
			<point x="322" y="563" type="line"/>
			<point x="459" y="34"/>
			<point x="505" y="-20"/>
			<point x="591" y="-20" type="curve" smooth="yes"/>
			<point x="682" y="-20"/>
			<point x="763" y="40"/>
			<point x="915" y="321" type="curve"/>
			<point x="903" y="328" type="line"/>
			<point x="778" y="142"/>
			<point x="718" y="100"/>
			<point x="672" y="100" type="curve" smooth="yes"/>
			<point x="620" y="100"/>
			<point x="560" y="209"/>
			<point x="443" y="680" type="curve"/>
			<point x="383" y="601" type="line"/>
			<point x="561" y="803"/>
			<point x="744" y="920"/>
			<point x="815" y="920" type="curve" smooth="yes"/>
			<point x="835" y="920"/>
			<point x="842" y="908"/>
			<point x="834" y="859" type="curve" smooth="yes"/>
			<point x="826" y="810"/>
			<point x="842" y="782"/>
			<point x="899" y="782" type="curve" smooth="yes"/>
			<point x="973" y="782"/>
			<point x="1042" y="843"/>
			<point x="1042" y="934" type="curve" smooth="yes"/>
			<point x="1042" y="997"/>
			<point x="1004" y="1044"/>
			<point x="919" y="1044" type="curve" smooth="yes"/>
			<point x="811" y="1044"/>
			<point x="683" y="956"/>
			<point x="324" y="571" type="curve"/>
		</contour>
	</outline>
	<anchor name="UCtop" x="809" y="1430"/>
	<anchor name="bottom" x="375" y="0"/>
</glyph>
<glyph name="l" format="2">
	<unicode hex="006C"/>
	<advance width="528"/>
	<outline>
		<contour>
			<point x="412" y="1303" type="curve"/>
			<point x="24" y="92" type="line" smooth="yes"/>
			<point x="-3" y="9"/>
			<point x="18" y="-20"/>
			<point x="104" y="-20" type="curve" smooth="yes"/>
			<point x="192" y="-20"/>
			<point x="324" y="80"/>
			<point x="496" y="323" type="curve"/>
			<point x="487" y="330" type="line"/>
			<point x="294" y="127"/>
			<point x="191" y="99"/>
			<point x="160" y="124" type="curve"/>
			<point x="180" y="87" type="line"/>
			<point x="628" y="1484" type="line"/>
			<point x="625" y="1484" type="line"/>
			<point x="262" y="1407" type="line"/>
			<point x="261" y="1401" type="line"/>
			<point x="318" y="1364.0066225166"/>
			<point x="376" y="1326.3642384106"/>
		</contour>
	</outline>
	<anchor name="UCtop" x="484" y="1430"/>
	<anchor name="right" x="622" y="1464"/>
	<anchor name="bottom" x="93" y="0"/>
	<anchor name="mid" x="523" y="582"/>
</glyph>
<glyph name="m" format="2">
	<unicode hex="006D"/>
	<advance width="1627"/>
	<outline>
		<contour>
			<point x="1249" y="88" type="line"/>
			<point x="1496" y="694" type="line" smooth="yes"/>
			<point x="1546" y="817"/>
			<point x="1556" y="857"/>
			<point x="1556" y="902" type="curve" smooth="yes"/>
			<point x="1556" y="980"/>
			<point x="1511" y="1044"/>
			<point x="1390" y="1044" type="curve" smooth="yes"/>
			<point x="1251" y="1044"/>
			<point x="1123" y="936"/>
			<point x="922" y="605" type="curve"/>
			<point x="939" y="605" type="line"/>
			<point x="1012" y="814" type="line" smooth="yes"/>
			<point x="1024" y="849"/>
			<point x="1030" y="880"/>
			<point x="1030" y="908" type="curve" smooth="yes"/>
			<point x="1030" y="993"/>
			<point x="976" y="1044"/>
			<point x="873" y="1044" type="curve" smooth="yes"/>
			<point x="743" y="1044"/>
			<point x="628" y="957"/>
			<point x="433" y="633" type="curve"/>
			<point x="443" y="633" type="line"/>
			<point x="567" y="1021" type="line"/>
			<point x="528" y="1037"/>
			<point x="497" y="1044"/>
			<point x="448" y="1044" type="curve" smooth="yes"/>
			<point x="309" y="1044"/>
			<point x="202" y="940"/>
			<point x="64" y="614" type="curve"/>
			<point x="75" y="609" type="line"/>
			<point x="211" y="849"/>
			<point x="301" y="907"/>
			<point x="344" y="907" type="curve" smooth="yes"/>
			<point x="367" y="907"/>
			<point x="370" y="885"/>
			<point x="362" y="862" type="curve" smooth="yes"/>
			<point x="72" y="0" type="line"/>
			<point x="235" y="0" type="line"/>
			<point x="412" y="530" type="line" smooth="yes"/>
			<point x="471" y="706"/>
			<point x="652" y="903"/>
			<point x="772" y="903" type="curve" smooth="yes"/>
			<point x="823" y="903"/>
			<point x="851" y="888"/>
			<point x="851" y="845" type="curve" smooth="yes"/>
			<point x="851" y="824"/>
			<point x="844" y="795"/>
			<point x="831" y="758" type="curve" smooth="yes"/>
			<point x="566" y="0" type="line"/>
			<point x="729" y="0" type="line"/>
			<point x="914" y="531" type="line" smooth="yes"/>
			<point x="961" y="666"/>
			<point x="1138" y="903"/>
			<point x="1289" y="903" type="curve" smooth="yes"/>
			<point x="1353" y="903"/>
			<point x="1382" y="879"/>
			<point x="1382" y="837" type="curve" smooth="yes"/>
			<point x="1382" y="813"/>
			<point x="1370" y="783"/>
			<point x="1333" y="692" type="curve" smooth="yes"/>
			<point x="1086" y="92" type="line" smooth="yes"/>
			<point x="1053" y="11"/>
			<point x="1087" y="-20"/>
			<point x="1173" y="-20" type="curve" smooth="yes"/>
			<point x="1274" y="-20"/>
			<point x="1414" y="77"/>
			<point x="1588" y="323" type="curve"/>
			<point x="1579" y="330" type="line"/>
			<point x="1401" y="146"/>
			<point x="1286" y="103"/>
			<point x="1227" y="117" type="curve"/>
		</contour>
	</outline>
	<anchor name="top" x="983" y="1024"/>
	<anchor name="bottom" x="659" y="0"/>
</glyph>
<glyph name="n" format="2">
	<unicode hex="006E"/>
	<advance width="1144"/>
	<outline>
		<contour>
			<point x="75" y="609" type="line"/>
			<point x="211" y="849"/>
			<point x="301" y="907"/>
			<point x="344" y="907" type="curve" smooth="yes"/>
			<point x="367" y="907"/>
			<point x="370" y="885"/>
			<point x="362" y="862" type="curve" smooth="yes"/>
			<point x="72" y="0" type="line"/>
			<point x="235" y="0" type="line"/>
			<point x="411" y="524" type="line" smooth="yes"/>
			<point x="450" y="641"/>
			<point x="641" y="903"/>
			<point x="806" y="903" type="curve" smooth="yes"/>
			<point x="870" y="903"/>
			<point x="899" y="879"/>
			<point x="899" y="837" type="curve" smooth="yes"/>
			<point x="899" y="813"/>
			<point x="887" y="783"/>
			<point x="850" y="692" type="curve" smooth="yes"/>
			<point x="603" y="92" type="line" smooth="yes"/>
			<point x="570" y="11"/>
			<point x="604" y="-20"/>
			<point x="690" y="-20" type="curve" smooth="yes"/>
			<point x="791" y="-20"/>
			<point x="931" y="77"/>
			<point x="1105" y="323" type="curve"/>
			<point x="1096" y="330" type="line"/>
			<point x="918" y="146"/>
			<point x="803" y="103"/>
			<point x="744" y="117" type="curve"/>
			<point x="766" y="88" type="line"/>
			<point x="1013" y="694" type="line" smooth="yes"/>
			<point x="1063" y="817"/>
			<point x="1073" y="857"/>
			<point x="1073" y="902" type="curve" smooth="yes"/>
			<point x="1073" y="980"/>
			<point x="1028" y="1044"/>
			<point x="907" y="1044" type="curve" smooth="yes"/>
			<point x="778" y="1044"/>
			<point x="659" y="979"/>
			<point x="419" y="598" type="curve"/>
			<point x="434" y="598" type="line"/>
			<point x="567" y="1021" type="line"/>
			<point x="528" y="1037"/>
			<point x="497" y="1044"/>
			<point x="448" y="1044" type="curve" smooth="yes"/>
			<point x="309" y="1044"/>
			<point x="202" y="940"/>
			<point x="64" y="614" type="curve"/>
		</contour>
	</outline>
	<anchor name="top" x="722" y="1024"/>
	<anchor name="bottom" x="428" y="0"/>
</glyph>
<glyph name="o" format="2">
	<unicode hex="006F"/>
	<advance width="921"/>
	<outline>
		<contour>
			<point x="629" y="1044" type="curve" smooth="yes"/>
			<point x="319" y="1044"/>
			<point x="40" y="643"/>
			<point x="40" y="274" type="curve" smooth="yes"/>
			<point x="40" y="87"/>
			<point x="125" y="-20"/>
			<point x="290" y="-20" type="curve" smooth="yes"/>
			<point x="600" y="-20"/>
			<point x="879" y="381"/>
			<point x="879" y="750" type="curve" smooth="yes"/>
			<point x="879" y="937"/>
			<point x="794" y="1044"/>
		</contour>
		<contour>
			<point x="293" y="14" type="curve" smooth="yes"/>
			<point x="225" y="14"/>
			<point x="197" y="69"/>
			<point x="197" y="184" type="curve" smooth="yes"/>
			<point x="197" y="556"/>
			<point x="425" y="1010"/>
			<point x="626" y="1010" type="curve" smooth="yes"/>
			<point x="694" y="1010"/>
			<point x="722" y="955"/>
			<point x="722" y="840" type="curve" smooth="yes"/>
			<point x="722" y="468"/>
			<point x="494" y="14"/>
		</contour>
	</outline>
	<anchor name="top" x="616" y="1024"/>
	<anchor name="bottom" x="282" y="0"/>
	<anchor name="horn" x="776" y="1024"/>
	<anchor name="right" x="372" y="0"/>
</glyph>
<glyph name="p" format="2">
	<unicode hex="0070"/>
	<advance width="1096"/>
	<outline>
		<contour>
			<point x="330" y="257" type="curve" smooth="yes"/>
			<point x="401" y="499" type="line" smooth="yes"/>
			<point x="454" y="680"/>
			<point x="631" y="928"/>
			<point x="797" y="928" type="curve" smooth="yes"/>
			<point x="859" y="928"/>
			<point x="897" y="887"/>
			<point x="897" y="787" type="curve" smooth="yes"/>
			<point x="897" y="437"/>
			<point x="628" y="16"/>
			<point x="433" y="16" type="curve" smooth="yes"/>
			<point x="353" y="16"/>
			<point x="316" y="82"/>
			<point x="316" y="165" type="curve" smooth="yes"/>
			<point x="316" y="194"/>
			<point x="321" y="226"/>
		</contour>
		<contour>
			<point x="212" y="120" type="line"/>
			<point x="240" y="40"/>
			<point x="305" y="-20"/>
			<point x="435" y="-20" type="curve" smooth="yes"/>
			<point x="710" y="-20"/>
			<point x="1079" y="411"/>
			<point x="1079" y="820" type="curve" smooth="yes"/>
			<point x="1079" y="971"/>
			<point x="1009" y="1044"/>
			<point x="877" y="1044" type="curve" smooth="yes"/>
			<point x="750" y="1044"/>
			<point x="605" y="951"/>
			<point x="419" y="606" type="curve"/>
			<point x="433" y="606" type="line"/>
			<point x="561" y="1021" type="line"/>
			<point x="522" y="1037"/>
			<point x="491" y="1044"/>
			<point x="442" y="1044" type="curve" smooth="yes"/>
			<point x="303" y="1044"/>
			<point x="196" y="940"/>
			<point x="58" y="614" type="curve"/>
			<point x="69" y="609" type="line"/>
			<point x="205" y="849"/>
			<point x="295" y="907"/>
			<point x="338" y="907" type="curve" smooth="yes"/>
			<point x="359" y="907"/>
			<point x="365" y="890"/>
			<point x="356" y="862" type="curve" smooth="yes"/>
			<point x="-22" y="-388" type="line"/>
			<point x="-165" y="-418" type="line"/>
			<point x="-172" y="-445" type="line"/>
			<point x="298" y="-445" type="line"/>
			<point x="305" y="-418" type="line"/>
			<point x="141" y="-388" type="line"/>
			<point x="283" y="91" type="line"/>
		</contour>
	</outline>
	<anchor name="top" x="700" y="1024"/>
	<anchor name="bottom" x="52" y="-445"/>
</glyph>
<glyph name="q" format="2">
	<unicode hex="0071"/>
	<advance width="979"/>
	<outline>
		<contour>
			<point x="406" y="-388" type="line"/>
			<point x="235" y="-418" type="line"/>
			<point x="228" y="-445" type="line"/>
			<point x="697" y="-445" type="line"/>
			<point x="704" y="-418" type="line"/>
			<point x="569" y="-388" type="line"/>
			<point x="993" y="1024" type="line"/>
			<point x="837" y="1024" type="line"/>
			<point x="806" y="928" type="line"/>
			<point x="649" y="446" type="line"/>
			<point x="472" y="193"/>
			<point x="352" y="111"/>
			<point x="275" y="111" type="curve" smooth="yes"/>
			<point x="219" y="111"/>
			<point x="178" y="141"/>
			<point x="178" y="226" type="curve" smooth="yes"/>
			<point x="178" y="472"/>
			<point x="444" y="975"/>
			<point x="686" y="975" type="curve" smooth="yes"/>
			<point x="752" y="975"/>
			<point x="802" y="945"/>
			<point x="840" y="843" type="curve"/>
			<point x="847" y="877" type="line"/>
			<point x="800" y="985"/>
			<point x="726" y="1040"/>
			<point x="642" y="1040" type="curve" smooth="yes"/>
			<point x="333" y="1040"/>
			<point x="1" y="497"/>
			<point x="1" y="169" type="curve" smooth="yes"/>
			<point x="1" y="45"/>
			<point x="78" y="-20"/>
			<point x="183" y="-20" type="curve" smooth="yes"/>
			<point x="278" y="-20"/>
			<point x="410" y="48"/>
			<point x="667" y="441" type="curve"/>
			<point x="656" y="441" type="line"/>
		</contour>
	</outline>
	<anchor name="top" x="654" y="1024"/>
	<anchor name="bottom" x="484" y="-445"/>
</glyph>
<glyph name="s" format="2">
	<unicode hex="0073"/>
	<advance width="691"/>
	<outline>
		<contour>
			<point x="136" y="221" type="curve"/>
			<point x="20" y="221"/>
			<point x="-29" y="188"/>
			<point x="-29" y="110" type="curve" smooth="yes"/>
			<point x="-29" y="31"/>
			<point x="22" y="-20"/>
			<point x="168" y="-20" type="curve" smooth="yes"/>
			<point x="386" y="-20"/>
			<point x="546" y="122"/>
			<point x="546" y="322" type="curve" smooth="yes"/>
			<point x="546" y="400"/>
			<point x="519" y="474"/>
			<point x="429" y="599" type="curve" smooth="yes"/>
			<point x="339" y="724"/>
			<point x="316" y="782"/>
			<point x="316" y="843" type="curve" smooth="yes"/>
			<point x="316" y="947"/>
			<point x="387" y="1003"/>
			<point x="497" y="1003" type="curve" smooth="yes"/>
			<point x="535" y="1003"/>
			<point x="557" y="998"/>
			<point x="573" y="979" type="curve" smooth="yes"/>
			<point x="589" y="960"/>
			<point x="596" y="914"/>
			<point x="591" y="820" type="curve"/>
			<point x="706" y="820"/>
			<point x="744" y="856"/>
			<point x="744" y="916" type="curve" smooth="yes"/>
			<point x="744" y="993"/>
			<point x="695" y="1044"/>
			<point x="552" y="1044" type="curve" smooth="yes"/>
			<point x="346" y="1044"/>
			<point x="197" y="904"/>
			<point x="197" y="730" type="curve" smooth="yes"/>
			<point x="197" y="653"/>
			<point x="222" y="573"/>
			<point x="313" y="455" type="curve" smooth="yes"/>
			<point x="404" y="337"/>
			<point x="437" y="267"/>
			<point x="437" y="203" type="curve" smooth="yes"/>
			<point x="437" y="94"/>
			<point x="363" y="32"/>
			<point x="238" y="32" type="curve" smooth="yes"/>
			<point x="209" y="32"/>
			<point x="186" y="35"/>
			<point x="168" y="58" type="curve" smooth="yes"/>
			<point x="150" y="81"/>
			<point x="140" y="130"/>
		</contour>
	</outline>
	<anchor name="top" x="501" y="1024"/>
	<anchor name="bottom" x="234" y="0"/>
</glyph>
<glyph name="t" format="2">
	<unicode hex="0074"/>
	<advance width="628"/>
	<outline>
		<contour>
			<point x="146" y="972" type="line"/>
			<point x="714" y="972" type="line"/>
			<point x="727" y="1024" type="line"/>
			<point x="162" y="1024" type="line"/>
		</contour>
		<contour>
			<point x="262" y="234" type="curve" smooth="yes"/>
			<point x="594" y="1270" type="line"/>
			<point x="428" y="1270" type="line"/>
			<point x="105" y="262" type="line" smooth="yes"/>
			<point x="71" y="157"/>
			<point x="69" y="119"/>
			<point x="69" y="93" type="curve" smooth="yes"/>
			<point x="69" y="12"/>
			<point x="114" y="-20"/>
			<point x="173" y="-20" type="curve" smooth="yes"/>
			<point x="262" y="-20"/>
			<point x="384" y="27"/>
			<point x="586" y="333" type="curve"/>
			<point x="577" y="340" type="line"/>
			<point x="423" y="150"/>
			<point x="336" y="117"/>
			<point x="289" y="117" type="curve" smooth="yes"/>
			<point x="260" y="117"/>
			<point x="244" y="127"/>
			<point x="244" y="152" type="curve" smooth="yes"/>
			<point x="244" y="167"/>
			<point x="247" y="188"/>
		</contour>
	</outline>
	<anchor name="right" x="650" y="1535"/>
	<anchor name="bottom" x="201" y="0"/>
</glyph>
<glyph name="u" format="2">
	<unicode hex="0075"/>
	<advance width="1068"/>
	<outline>
		<contour>
			<point x="575" y="63" type="line" smooth="yes"/>
			<point x="559" y="11"/>
			<point x="585" y="-20"/>
			<point x="651" y="-20" type="curve" smooth="yes"/>
			<point x="747" y="-20"/>
			<point x="877" y="65"/>
			<point x="1040" y="323" type="curve"/>
			<point x="1031" y="330" type="line"/>
			<point x="880" y="152"/>
			<point x="769" y="100"/>
			<point x="716" y="118" type="curve"/>
			<point x="734" y="87" type="line"/>
			<point x="1051" y="1024" type="line"/>
			<point x="888" y="1024" type="line"/>
			<point x="690" y="435" type="line" smooth="yes"/>
			<point x="651" y="319"/>
			<point x="482" y="121"/>
			<point x="365" y="121" type="curve" smooth="yes"/>
			<point x="304" y="121"/>
			<point x="271" y="138"/>
			<point x="271" y="186" type="curve" smooth="yes"/>
			<point x="271" y="209"/>
			<point x="279" y="241"/>
			<point x="295" y="281" type="curve" smooth="yes"/>
			<point x="550" y="932" type="line" smooth="yes"/>
			<point x="582" y="1013"/>
			<point x="549" y="1044"/>
			<point x="471" y="1044" type="curve" smooth="yes"/>
			<point x="365" y="1044"/>
			<point x="235" y="942"/>
			<point x="61" y="696" type="curve"/>
			<point x="70" y="689" type="line"/>
			<point x="255" y="896"/>
			<point x="367" y="925"/>
			<point x="403" y="903" type="curve"/>
			<point x="379" y="936" type="line"/>
			<point x="122" y="254" type="line" smooth="yes"/>
			<point x="106" y="211"/>
			<point x="96" y="167"/>
			<point x="96" y="128" type="curve" smooth="yes"/>
			<point x="96" y="45"/>
			<point x="140" y="-20"/>
			<point x="261" y="-20" type="curve" smooth="yes"/>
			<point x="388" y="-20"/>
			<point x="492" y="70"/>
			<point x="678" y="364" type="curve"/>
			<point x="669" y="364" type="line"/>
		</contour>
	</outline>
	<anchor name="top" x="683" y="1024"/>
	<anchor name="right" x="834" y="0"/>
	<anchor name="bottom" x="399" y="0"/>
	<anchor name="horn" x="1008" y="1024"/>
</glyph>
<glyph name="x" format="2">
	<unicode hex="0078"/>
	<advance width="988"/>
	<outline>
		<contour>
			<point x="535" y="524" type="line"/>
			<point x="652" y="707" type="line" smooth="yes"/>
			<point x="748" y="857"/>
			<point x="808" y="906"/>
			<point x="863" y="906" type="curve" smooth="yes"/>
			<point x="892" y="906"/>
			<point x="898" y="895"/>
			<point x="895" y="851" type="curve" smooth="yes"/>
			<point x="892" y="807"/>
			<point x="908" y="791"/>
			<point x="954" y="791" type="curve" smooth="yes"/>
			<point x="1034" y="791"/>
			<point x="1087" y="858"/>
			<point x="1087" y="939" type="curve" smooth="yes"/>
			<point x="1087" y="999"/>
			<point x="1042" y="1044"/>
			<point x="968" y="1044" type="curve" smooth="yes"/>
			<point x="879" y="1044"/>
			<point x="805" y="1002"/>
			<point x="711" y="854" type="curve" smooth="yes"/>
			<point x="524" y="559" type="line"/>
			<point x="467" y="500" type="line"/>
			<point x="333" y="288" type="line" smooth="yes"/>
			<point x="257" y="168"/>
			<point x="183" y="119"/>
			<point x="135" y="119" type="curve" smooth="yes"/>
			<point x="109" y="119"/>
			<point x="100" y="131"/>
			<point x="104" y="174" type="curve" smooth="yes"/>
			<point x="108" y="217"/>
			<point x="92" y="236"/>
			<point x="46" y="236" type="curve" smooth="yes"/>
			<point x="-33" y="236"/>
			<point x="-85" y="169"/>
			<point x="-85" y="86" type="curve" smooth="yes"/>
			<point x="-85" y="26"/>
			<point x="-41" y="-20"/>
			<point x="33" y="-20" type="curve" smooth="yes"/>
			<point x="128" y="-20"/>
			<point x="216" y="36"/>
			<point x="313" y="194" type="curve" smooth="yes"/>
			<point x="479" y="465" type="line"/>
		</contour>
		<contour>
			<point x="906" y="380" type="curve"/>
			<point x="894" y="380" type="line"/>
			<point x="814" y="176"/>
			<point x="749" y="104"/>
			<point x="708" y="104" type="curve" smooth="yes"/>
			<point x="687" y="104"/>
			<point x="671" y="120"/>
			<point x="663" y="158" type="curve" smooth="yes"/>
			<point x="497" y="927" type="line" smooth="yes"/>
			<point x="479" y="1010"/>
			<point x="439" y="1044"/>
			<point x="386" y="1044" type="curve" smooth="yes"/>
			<point x="283" y="1044"/>
			<point x="205" y="968"/>
			<point x="139" y="644" type="curve"/>
			<point x="151" y="644" type="line"/>
			<point x="216" y="848"/>
			<point x="273" y="921"/>
			<point x="310" y="921" type="curve" smooth="yes"/>
			<point x="329" y="921"/>
			<point x="344" y="901"/>
			<point x="352" y="866" type="curve" smooth="yes"/>
			<point x="518" y="97" type="line" smooth="yes"/>
			<point x="536" y="15"/>
			<point x="576" y="-20"/>
			<point x="629" y="-20" type="curve" smooth="yes"/>
			<point x="734" y="-20"/>
			<point x="820" y="56"/>
		</contour>
	</outline>
	<anchor name="top" x="658" y="1024"/>
	<anchor name="bottom" x="374" y="0"/>
</glyph>
<glyph name="y" format="2">
	<unicode hex="0079"/>
	<advance width="1014"/>
	<outline>
		<contour>
			<point x="65" y="599" type="line"/>
			<point x="158" y="840"/>
			<point x="210" y="892"/>
			<point x="260" y="892" type="curve" smooth="yes"/>
			<point x="289" y="892"/>
			<point x="318" y="862"/>
			<point x="346" y="750" type="curve" smooth="yes"/>
			<point x="374" y="638"/>
			<point x="406" y="338"/>
			<point x="420" y="-228" type="curve"/>
			<point x="571" y="-49" type="line"/>
			<point x="574" y="416"/>
			<point x="530" y="764"/>
			<point x="490" y="885" type="curve" smooth="yes"/>
			<point x="450" y="1006"/>
			<point x="407" y="1044"/>
			<point x="352" y="1044" type="curve" smooth="yes"/>
			<point x="243" y="1044"/>
			<point x="138" y="942"/>
			<point x="51" y="599" type="curve"/>
		</contour>
		<contour>
			<point x="490" y="-114" type="line"/>
			<point x="339" y="-303"/>
			<point x="168" y="-404"/>
			<point x="48" y="-404" type="curve" smooth="yes"/>
			<point x="6" y="-404"/>
			<point x="-8" y="-385"/>
			<point x="11" y="-310" type="curve" smooth="yes"/>
			<point x="30" y="-235"/>
			<point x="15" y="-202"/>
			<point x="-53" y="-202" type="curve" smooth="yes"/>
			<point x="-122" y="-202"/>
			<point x="-166" y="-260"/>
			<point x="-166" y="-332" type="curve" smooth="yes"/>
			<point x="-166" y="-410"/>
			<point x="-119" y="-465"/>
			<point x="-6" y="-465" type="curve" smooth="yes"/>
			<point x="178" y="-465"/>
			<point x="383" y="-336"/>
			<point x="605" y="-29" type="curve" smooth="yes"/>
			<point x="827" y="278"/>
			<point x="1023" y="830"/>
			<point x="1023" y="989" type="curve" smooth="yes"/>
			<point x="1023" y="1018"/>
			<point x="1006" y="1034"/>
			<point x="962" y="1034" type="curve" smooth="yes"/>
			<point x="937" y="1034"/>
			<point x="916" y="1033"/>
			<point x="885" y="1024" type="curve"/>
			<point x="885" y="600"/>
			<point x="740" y="209"/>
			<point x="512" y="-85" type="curve"/>
		</contour>
	</outline>
	<anchor name="top" x="625" y="1024"/>
	<anchor name="bottom" x="691" y="-141"/>
</glyph>
<glyph name="z" format="2">
	<unicode hex="007A"/>
	<advance width="820"/>
	<outline>
		<contour>
			<point x="-68" y="3" type="line"/>
			<point x="-41" y="-20" type="line"/>
			<point x="897" y="1020" type="line"/>
			<point x="870" y="1045" type="line"/>
		</contour>
		<contour>
			<point x="113" y="668" type="line"/>
			<point x="239" y="907"/>
			<point x="325" y="951"/>
			<point x="476" y="869" type="curve" smooth="yes"/>
			<point x="664" y="767" type="line"/>
			<point x="770" y="895" type="line"/>
			<point x="509" y="1019" type="line" smooth="yes"/>
			<point x="370" y="1085"/>
			<point x="231" y="1035"/>
			<point x="100" y="671" type="curve"/>
		</contour>
		<contour>
			<point x="290" y="25" type="line" smooth="yes"/>
			<point x="424" y="-73"/>
			<point x="564" y="-38"/>
			<point x="773" y="401" type="curve"/>
			<point x="760" y="406" type="line"/>
			<point x="603" y="136"/>
			<point x="488" y="62"/>
			<point x="336" y="193" type="curve" smooth="yes"/>
			<point x="211" y="301" type="line"/>
			<point x="95" y="168" type="line"/>
		</contour>
	</outline>
	<anchor name="top" x="522" y="1024"/>
	<anchor name="bottom" x="258" y="0"/>
</glyph>
<glyph name="braceleft" format="2">
	<unicode hex="007B"/>
	<advance width="567"/>
	<outline>
		<contour>
			<point x="72" y="600" type="line"/>
			<point x="143" y="595" type="line" smooth="yes"/>
			<point x="211" y="589"/>
			<point x="238" y="559"/>
			<point x="238" y="512" type="curve" smooth="yes"/>
			<point x="238" y="342"/>
			<point x="16" y="141"/>
			<point x="16" y="-41" type="curve" smooth="yes"/>
			<point x="16" y="-153"/>
			<point x="73" y="-231"/>
			<point x="202" y="-245" type="curve" smooth="yes"/>
			<point x="278" y="-253" type="line"/>
			<point x="292" y="-225" type="line"/>
			<point x="238" y="-216" type="line" smooth="yes"/>
			<point x="166" y="-204"/>
			<point x="136" y="-164"/>
			<point x="136" y="-87" type="curve" smooth="yes"/>
			<point x="136" y="78"/>
			<point x="330" y="288"/>
			<point x="330" y="470" type="curve" smooth="yes"/>
			<point x="330" y="543"/>
			<point x="286" y="597"/>
			<point x="189" y="614" type="curve"/>
			<point x="183" y="602" type="line"/>
			<point x="330" y="623"/>
			<point x="428" y="715"/>
			<point x="459" y="858" type="curve" smooth="yes"/>
			<point x="490" y="1002"/>
			<point x="504" y="1134"/>
			<point x="536" y="1253" type="curve" smooth="yes"/>
			<point x="568" y="1372"/>
			<point x="635" y="1434"/>
			<point x="746" y="1449" type="curve" smooth="yes"/>
			<point x="806" y="1457" type="line"/>
			<point x="809" y="1484" type="line"/>
			<point x="728" y="1477" type="line" smooth="yes"/>
			<point x="553" y="1462"/>
			<point x="431" y="1351"/>
			<point x="387" y="1212" type="curve" smooth="yes"/>
			<point x="343" y="1073"/>
			<point x="353" y="942"/>
			<point x="332" y="809" type="curve" smooth="yes"/>
			<point x="311" y="676"/>
			<point x="255" y="645"/>
			<point x="156" y="637" type="curve" smooth="yes"/>
			<point x="82" y="632" type="line"/>
		</contour>
	</outline>
</glyph>
<glyph name="bar" format="2">
	<unicode hex="007C"/>
	<advance width="471"/>
	<outline>
		<contour>
			<point x="-94" y="-465" type="line"/>
			<point x="-10" y="-465" type="line"/>
			<point x="578" y="1535" type="line"/>
			<point x="494" y="1535" type="line"/>
		</contour>
	</outline>
</glyph>
<glyph name="braceright" format="2">
	<unicode hex="007D"/>
	<advance width="565"/>
	<outline>
		<contour>
			<point x="557" y="631" type="line"/>
			<point x="486" y="636" type="line" smooth="yes"/>
			<point x="418" y="642"/>
			<point x="391" y="672"/>
			<point x="391" y="719" type="curve" smooth="yes"/>
			<point x="391" y="889"/>
			<point x="613" y="1090"/>
			<point x="613" y="1272" type="curve" smooth="yes"/>
			<point x="613" y="1384"/>
			<point x="556" y="1462"/>
			<point x="427" y="1476" type="curve" smooth="yes"/>
			<point x="351" y="1484" type="line"/>
			<point x="337" y="1456" type="line"/>
			<point x="391" y="1447" type="line" smooth="yes"/>
			<point x="463" y="1435"/>
			<point x="493" y="1395"/>
			<point x="493" y="1318" type="curve" smooth="yes"/>
			<point x="493" y="1153"/>
			<point x="299" y="943"/>
			<point x="299" y="761" type="curve" smooth="yes"/>
			<point x="299" y="688"/>
			<point x="343" y="634"/>
			<point x="440" y="617" type="curve"/>
			<point x="446" y="629" type="line"/>
			<point x="299" y="608"/>
			<point x="201" y="516"/>
			<point x="170" y="373" type="curve" smooth="yes"/>
			<point x="139" y="229"/>
			<point x="125" y="97"/>
			<point x="93" y="-22" type="curve" smooth="yes"/>
			<point x="61" y="-141"/>
			<point x="-6" y="-203"/>
			<point x="-117" y="-218" type="curve" smooth="yes"/>
			<point x="-177" y="-226" type="line"/>
			<point x="-180" y="-253" type="line"/>
			<point x="-99" y="-246" type="line" smooth="yes"/>
			<point x="76" y="-231"/>
			<point x="198" y="-120"/>
			<point x="242" y="19" type="curve" smooth="yes"/>
			<point x="286" y="158"/>
			<point x="276" y="289"/>
			<point x="297" y="422" type="curve" smooth="yes"/>
			<point x="318" y="555"/>
			<point x="374" y="586"/>
			<point x="473" y="594" type="curve" smooth="yes"/>
			<point x="547" y="599" type="line"/>
		</contour>
	</outline>
</glyph>
<glyph name="asciitilde" format="2">
	<unicode hex="007E"/>
	<advance width="1150"/>
	<outline>
		<contour>
			<point x="127" y="396" type="curve"/>
			<point x="195" y="396" type="line"/>
			<point x="243" y="512"/>
			<point x="300" y="568"/>
			<point x="405" y="568" type="curve" smooth="yes"/>
			<point x="550" y="568"/>
			<point x="566" y="388"/>
			<point x="733" y="388" type="curve" smooth="yes"/>
			<point x="846" y="388"/>
			<point x="958" y="440"/>
			<point x="1023" y="628" type="curve"/>
			<point x="955" y="628" type="line"/>
			<point x="907" y="512"/>
			<point x="850" y="456"/>
			<point x="745" y="456" type="curve" smooth="yes"/>
			<point x="600" y="456"/>
			<point x="584" y="636"/>
			<point x="417" y="636" type="curve" smooth="yes"/>
			<point x="304" y="636"/>
			<point x="192" y="584"/>
		</contour>
	</outline>
</glyph>
<glyph name="exclamdown" format="2">
	<unicode hex="00A1"/>
	<advance width="474"/>
	<outline>
		<contour>
			<point x="-148" y="-320" type="line" smooth="yes"/>
			<point x="-170" y="-391"/>
			<point x="-109" y="-426"/>
			<point x="-40" y="-426" type="curve" smooth="yes"/>
			<point x="28" y="-426"/>
			<point x="93" y="-391"/>
			<point x="115" y="-320" type="curve" smooth="yes"/>
			<point x="123" y="-294" type="line" smooth="yes"/>
			<point x="138" y="-246"/>
			<point x="142" y="3"/>
			<point x="269" y="561" type="curve"/>
			<point x="238" y="561" type="line"/>
			<point x="39" y="45"/>
			<point x="-112" y="-203"/>
			<point x="-140" y="-294" type="curve" smooth="yes"/>
		</contour>
		<contour>
			<point x="335" y="765" type="curve" smooth="yes"/>
			<point x="427" y="765"/>
			<point x="498" y="837"/>
			<point x="498" y="929" type="curve" smooth="yes"/>
			<point x="498" y="997"/>
			<point x="451" y="1043"/>
			<point x="379" y="1043" type="curve" smooth="yes"/>
			<point x="287" y="1043"/>
			<point x="216" y="971"/>
			<point x="216" y="880" type="curve" smooth="yes"/>
			<point x="216" y="811"/>
			<point x="263" y="765"/>
		</contour>
	</outline>
</glyph>
<glyph name="currency" format="2">
	<unicode hex="00A4"/>
	<advance width="927"/>
	<outline>
		<contour>
			<point x="216" y="822" type="line"/>
			<point x="299" y="695" type="line"/>
			<point x="354" y="736" type="line"/>
			<point x="268" y="861" type="line"/>
		</contour>
		<contour>
			<point x="842" y="841" type="line"/>
			<point x="678" y="716" type="line"/>
			<point x="713" y="665" type="line"/>
			<point x="878" y="788" type="line"/>
		</contour>
		<contour>
			<point x="710" y="202" type="line"/>
			<point x="627" y="329" type="line"/>
			<point x="572" y="288" type="line"/>
			<point x="658" y="163" type="line"/>
		</contour>
		<contour>
			<point x="48" y="236" type="line"/>
			<point x="84" y="183" type="line"/>
			<point x="248" y="308" type="line"/>
			<point x="213" y="359" type="line"/>
		</contour>
		<contour>
			<point x="525" y="808" type="curve" smooth="yes"/>
			<point x="330" y="808"/>
			<point x="156" y="664"/>
			<point x="156" y="449" type="curve" smooth="yes"/>
			<point x="156" y="313"/>
			<point x="241" y="216"/>
			<point x="402" y="216" type="curve" smooth="yes"/>
			<point x="597" y="216"/>
			<point x="771" y="360"/>
			<point x="771" y="575" type="curve" smooth="yes"/>
			<point x="771" y="711"/>
			<point x="686" y="808"/>
		</contour>
		<contour>
			<point x="404" y="278" type="curve" smooth="yes"/>
			<point x="289" y="278"/>
			<point x="227" y="352"/>
			<point x="227" y="462" type="curve" smooth="yes"/>
			<point x="227" y="634"/>
			<point x="350" y="746"/>
			<point x="523" y="746" type="curve" smooth="yes"/>
			<point x="638" y="746"/>
			<point x="700" y="672"/>
			<point x="700" y="562" type="curve" smooth="yes"/>
			<point x="700" y="390"/>
			<point x="577" y="278"/>
		</contour>
	</outline>
</glyph>
<glyph name="brokenbar" format="2">
  <advance width="471"/>
  <unicode hex="00A6"/>
  <outline>
    <contour>
      <point x="335.0" y="725.0" type="line"/>
      <point x="582.0" y="1535.0" type="line"/>
      <point x="514.0" y="1535.0" type="line"/>
      <point x="266.0" y="725.0" type="line"/>
    </contour>
    <contour>
      <point x="-98.0" y="-465.0" type="line"/>
      <point x="-29.0" y="-465.0" type="line"/>
      <point x="218.0" y="345.0" type="line"/>
      <point x="150.0" y="345.0" type="line"/>
    </contour>
  </outline>
</glyph>
<glyph name="section" format="2">
	<unicode hex="00A7"/>
	<advance width="1048"/>
	<outline>
		<contour>
			<point x="483" y="887" type="curve"/>
			<point x="467" y="907" type="line"/>
			<point x="232" y="846"/>
			<point x="110" y="738"/>
			<point x="110" y="560" type="curve" smooth="yes"/>
			<point x="110" y="236"/>
			<point x="614" y="299"/>
			<point x="614" y="29" type="curve" smooth="yes"/>
			<point x="614" y="-72"/>
			<point x="524" y="-173"/>
			<point x="346" y="-173" type="curve" smooth="yes"/>
			<point x="140" y="-173"/>
			<point x="140" y="24"/>
			<point x="70" y="24" type="curve" smooth="yes"/>
			<point x="6" y="24"/>
			<point x="-32" y="-18"/>
			<point x="-32" y="-69" type="curve" smooth="yes"/>
			<point x="-32" y="-140"/>
			<point x="32" y="-218"/>
			<point x="265" y="-218" type="curve" smooth="yes"/>
			<point x="575" y="-218"/>
			<point x="755" y="-55"/>
			<point x="755" y="131" type="curve" smooth="yes"/>
			<point x="755" y="465"/>
			<point x="240" y="409"/>
			<point x="240" y="656" type="curve" smooth="yes"/>
			<point x="240" y="777"/>
			<point x="343" y="858"/>
		</contour>
		<contour>
			<point x="871" y="576" type="curve" smooth="yes"/>
			<point x="871" y="455"/>
			<point x="768" y="374"/>
			<point x="628" y="345" type="curve"/>
			<point x="644" y="325" type="line"/>
			<point x="879" y="386"/>
			<point x="1001" y="494"/>
			<point x="1001" y="672" type="curve" smooth="yes"/>
			<point x="1001" y="996"/>
			<point x="497" y="933"/>
			<point x="497" y="1203" type="curve" smooth="yes"/>
			<point x="497" y="1304"/>
			<point x="587" y="1405"/>
			<point x="765" y="1405" type="curve" smooth="yes"/>
			<point x="971" y="1405"/>
			<point x="971" y="1208"/>
			<point x="1041" y="1208" type="curve" smooth="yes"/>
			<point x="1105" y="1208"/>
			<point x="1143" y="1250"/>
			<point x="1143" y="1301" type="curve" smooth="yes"/>
			<point x="1143" y="1372"/>
			<point x="1079" y="1450"/>
			<point x="846" y="1450" type="curve" smooth="yes"/>
			<point x="536" y="1450"/>
			<point x="356" y="1287"/>
			<point x="356" y="1101" type="curve" smooth="yes"/>
			<point x="356" y="767"/>
			<point x="871" y="823"/>
		</contour>
	</outline>
</glyph>
<glyph name="copyright" format="2">
	<unicode hex="00A9"/>
	<advance width="1755"/>
	<outline>
		<contour>
			<point x="915" y="305" type="curve" smooth="yes"/>
			<point x="771" y="305"/>
			<point x="680" y="407"/>
			<point x="680" y="588" type="curve" smooth="yes"/>
			<point x="680" y="868"/>
			<point x="841" y="1127"/>
			<point x="1092" y="1127" type="curve" smooth="yes"/>
			<point x="1166" y="1127"/>
			<point x="1219" y="1104"/>
			<point x="1269" y="1052" type="curve"/>
			<point x="1231" y="1107" type="line"/>
			<point x="1289" y="858" type="line"/>
			<point x="1309" y="858" type="line"/>
			<point x="1356" y="1193" type="line"/>
			<point x="1347" y="1193" type="line"/>
			<point x="1261" y="1126" type="line"/>
			<point x="1315" y="1132" type="line"/>
			<point x="1250" y="1157"/>
			<point x="1166" y="1170"/>
			<point x="1092" y="1170" type="curve" smooth="yes"/>
			<point x="773" y="1170"/>
			<point x="503" y="924"/>
			<point x="503" y="635" type="curve" smooth="yes"/>
			<point x="503" y="425"/>
			<point x="653" y="268"/>
			<point x="897" y="268" type="curve" smooth="yes"/>
			<point x="993" y="268"/>
			<point x="1062" y="279"/>
			<point x="1142" y="308" type="curve"/>
			<point x="1258" y="529" type="line"/>
			<point x="1238" y="529" type="line"/>
			<point x="1031" y="315" type="line"/>
			<point x="1102" y="354" type="line"/>
			<point x="1041" y="322"/>
			<point x="976" y="305"/>
		</contour>
		<contour>
			<point x="835" y="29" type="curve" smooth="yes"/>
			<point x="465" y="29"/>
			<point x="240" y="258"/>
			<point x="240" y="593" type="curve" smooth="yes"/>
			<point x="240" y="1034"/>
			<point x="592" y="1401"/>
			<point x="1043" y="1401" type="curve" smooth="yes"/>
			<point x="1413" y="1401"/>
			<point x="1638" y="1172"/>
			<point x="1638" y="837" type="curve" smooth="yes"/>
			<point x="1638" y="396"/>
			<point x="1286" y="29"/>
		</contour>
		<contour>
			<point x="1045" y="1450" type="curve" smooth="yes"/>
			<point x="551" y="1450"/>
			<point x="177" y="1057"/>
			<point x="177" y="587" type="curve" smooth="yes"/>
			<point x="177" y="220"/>
			<point x="434" y="-20"/>
			<point x="833" y="-20" type="curve" smooth="yes"/>
			<point x="1327" y="-20"/>
			<point x="1701" y="373"/>
			<point x="1701" y="843" type="curve" smooth="yes"/>
			<point x="1701" y="1210"/>
			<point x="1444" y="1450"/>
		</contour>
	</outline>
</glyph>
<glyph name="ordfeminine" format="2">
	<unicode hex="00AA"/>
	<advance width="865"/>
	<outline>
		<contour>
			<point x="169" y="570" type="line"/>
			<point x="739" y="570" type="line"/>
			<point x="757" y="629" type="line"/>
			<point x="188" y="629" type="line"/>
		</contour>
		<contour>
			<point x="614" y="842" type="line" smooth="yes"/>
			<point x="604" y="810"/>
			<point x="621" y="791"/>
			<point x="665" y="791" type="curve" smooth="yes"/>
			<point x="725" y="791"/>
			<point x="803" y="837"/>
			<point x="914" y="989" type="curve"/>
			<point x="907" y="996" type="line"/>
			<point x="807" y="892"/>
			<point x="733" y="876"/>
			<point x="701" y="889" type="curve"/>
			<point x="738" y="857" type="line"/>
			<point x="930" y="1430" type="line"/>
			<point x="809" y="1430" type="line"/>
			<point x="787" y="1374" type="line"/>
			<point x="685" y="1079" type="line"/>
			<point x="582" y="930"/>
			<point x="511" y="879"/>
			<point x="466" y="879" type="curve" smooth="yes"/>
			<point x="434" y="879"/>
			<point x="412" y="898"/>
			<point x="412" y="949" type="curve" smooth="yes"/>
			<point x="412" y="1099"/>
			<point x="579" y="1395"/>
			<point x="723" y="1395" type="curve" smooth="yes"/>
			<point x="752" y="1395"/>
			<point x="777" y="1384"/>
			<point x="798" y="1352" type="curve"/>
			<point x="804" y="1360" type="line"/>
			<point x="775" y="1417"/>
			<point x="732" y="1446"/>
			<point x="684" y="1446" type="curve" smooth="yes"/>
			<point x="465" y="1446"/>
			<point x="260" y="1110"/>
			<point x="260" y="908" type="curve" smooth="yes"/>
			<point x="260" y="831"/>
			<point x="308" y="791"/>
			<point x="401" y="791" type="curve" smooth="yes"/>
			<point x="459" y="791"/>
			<point x="541" y="833"/>
			<point x="700" y="1076" type="curve"/>
			<point x="689" y="1076" type="line"/>
		</contour>
	</outline>
</glyph>
<glyph name="guillemotleft" format="2">
	<unicode hex="00AB"/>
	<advance width="872"/>
	<outline>
		<contour>
			<point x="219" y="584" type="line"/>
			<point x="193" y="434" type="line"/>
			<point x="592" y="938" type="line"/>
			<point x="579" y="951" type="line"/>
			<point x="67" y="529" type="line"/>
			<point x="62" y="515" type="line"/>
			<point x="316" y="93" type="line"/>
			<point x="334" y="101" type="line"/>
		</contour>
		<contour>
			<point x="549" y="584" type="line"/>
			<point x="523" y="434" type="line"/>
			<point x="922" y="938" type="line"/>
			<point x="909" y="951" type="line"/>
			<point x="397" y="529" type="line"/>
			<point x="392" y="515" type="line"/>
			<point x="646" y="93" type="line"/>
			<point x="664" y="101" type="line"/>
		</contour>
	</outline>
</glyph>
<glyph name="logicalnot" format="2">
	<unicode hex="00AC"/>
	<advance width="1150"/>
	<outline>
		<contour>
			<point x="229" y="742" type="line"/>
			<point x="209" y="675" type="line"/>
			<point x="964" y="675" type="line"/>
			<point x="839" y="268" type="line"/>
			<point x="906" y="268" type="line"/>
			<point x="1051" y="742" type="line"/>
		</contour>
	</outline>
</glyph>
<glyph name="registered" format="2">
	<unicode hex="00AE"/>
	<advance width="1095"/>
	<outline>
		<contour>
			<point x="877" y="838" type="line"/>
			<point x="848" y="838"/>
			<point x="839" y="843"/>
			<point x="837" y="881" type="curve" smooth="yes"/>
			<point x="833" y="956" type="line" smooth="yes"/>
			<point x="831" y="1009"/>
			<point x="807" y="1038"/>
			<point x="755" y="1040" type="curve"/>
			<point x="755" y="1039" type="line"/>
			<point x="853" y="1044"/>
			<point x="910" y="1100"/>
			<point x="910" y="1166" type="curve" smooth="yes"/>
			<point x="910" y="1212"/>
			<point x="878" y="1244"/>
			<point x="786" y="1244" type="curve" smooth="yes"/>
			<point x="674" y="1244" type="line"/>
			<point x="665" y="1214" type="line"/>
			<point x="747" y="1214" type="line" smooth="yes"/>
			<point x="798" y="1214"/>
			<point x="822" y="1198"/>
			<point x="822" y="1160" type="curve" smooth="yes"/>
			<point x="822" y="1095"/>
			<point x="778" y="1052"/>
			<point x="705" y="1052" type="curve" smooth="yes"/>
			<point x="616" y="1052" type="line"/>
			<point x="606" y="1022" type="line"/>
			<point x="704" y="1022" type="line" smooth="yes"/>
			<point x="738" y="1022"/>
			<point x="750" y="1012"/>
			<point x="751" y="973" type="curve" smooth="yes"/>
			<point x="753" y="891" type="line" smooth="yes"/>
			<point x="755" y="819"/>
			<point x="764" y="809"/>
			<point x="871" y="817" type="curve"/>
		</contour>
		<contour>
			<point x="712" y="1244" type="line"/>
			<point x="563" y="1244" type="line"/>
			<point x="559" y="1229" type="line"/>
			<point x="615" y="1215" type="line"/>
			<point x="503" y="848" type="line"/>
			<point x="438" y="833" type="line"/>
			<point x="433" y="818" type="line"/>
			<point x="643" y="818" type="line"/>
			<point x="648" y="833" type="line"/>
			<point x="591" y="848" type="line"/>
		</contour>
		<contour>
			<point x="629" y="643" type="curve" smooth="yes"/>
			<point x="418" y="643"/>
			<point x="316" y="763"/>
			<point x="316" y="943" type="curve" smooth="yes"/>
			<point x="316" y="1204"/>
			<point x="521" y="1403"/>
			<point x="769" y="1403" type="curve" smooth="yes"/>
			<point x="980" y="1403"/>
			<point x="1082" y="1283"/>
			<point x="1082" y="1103" type="curve" smooth="yes"/>
			<point x="1082" y="842"/>
			<point x="877" y="643"/>
		</contour>
		<contour>
			<point x="772" y="1450" type="curve" smooth="yes"/>
			<point x="488" y="1450"/>
			<point x="263" y="1226"/>
			<point x="263" y="938" type="curve" smooth="yes"/>
			<point x="263" y="735"/>
			<point x="386" y="596"/>
			<point x="626" y="596" type="curve" smooth="yes"/>
			<point x="910" y="596"/>
			<point x="1135" y="820"/>
			<point x="1135" y="1108" type="curve" smooth="yes"/>
			<point x="1135" y="1311"/>
			<point x="1012" y="1450"/>
		</contour>
	</outline>
</glyph>
<glyph name="degree" format="2">
	<unicode hex="00B0"/>
	<advance width="752"/>
	<outline>
		<contour>
			<point x="599" y="1444" type="curve" smooth="yes"/>
			<point x="401" y="1444"/>
			<point x="262" y="1281"/>
			<point x="262" y="1097" type="curve" smooth="yes"/>
			<point x="262" y="954"/>
			<point x="357" y="856"/>
			<point x="529" y="856" type="curve" smooth="yes"/>
			<point x="727" y="856"/>
			<point x="866" y="1019"/>
			<point x="866" y="1203" type="curve" smooth="yes"/>
			<point x="866" y="1346"/>
			<point x="771" y="1444"/>
		</contour>
		<contour>
			<point x="533" y="915" type="curve" smooth="yes"/>
			<point x="392" y="915"/>
			<point x="327" y="995"/>
			<point x="327" y="1101" type="curve" smooth="yes"/>
			<point x="327" y="1258"/>
			<point x="427" y="1385"/>
			<point x="595" y="1385" type="curve" smooth="yes"/>
			<point x="736" y="1385"/>
			<point x="801" y="1305"/>
			<point x="801" y="1199" type="curve" smooth="yes"/>
			<point x="801" y="1042"/>
			<point x="701" y="915"/>
		</contour>
	</outline>
</glyph>
<glyph name="plusminus" format="2">
	<unicode hex="00B1"/>
	<advance width="1150"/>
	<outline>
		<contour>
			<point x="697" y="1023" type="line"/>
			<point x="445" y="201" type="line"/>
			<point x="513" y="201" type="line"/>
			<point x="765" y="1023" type="line"/>
		</contour>
		<contour>
			<point x="204" y="645" type="line"/>
			<point x="184" y="579" type="line"/>
			<point x="1006" y="579" type="line"/>
			<point x="1026" y="645" type="line"/>
		</contour>
		<contour>
			<point x="27" y="66" type="line"/>
			<point x="7" y="0" type="line"/>
			<point x="829" y="0" type="line"/>
			<point x="849" y="66" type="line"/>
		</contour>
	</outline>
</glyph>
<glyph name="uni00B2" format="2">
	<unicode hex="00B2"/>
	<advance width="692"/>
	<outline>
		<contour>
			<point x="532" y="722" type="line"/>
			<point x="668" y="789" type="line"/>
			<point x="294" y="789" type="line"/>
			<point x="284" y="766" type="line"/>
			<point x="479" y="919" type="line" smooth="yes"/>
			<point x="737" y="1121"/>
			<point x="765" y="1184"/>
			<point x="765" y="1272" type="curve" smooth="yes"/>
			<point x="765" y="1370"/>
			<point x="698" y="1444"/>
			<point x="571" y="1444" type="curve" smooth="yes"/>
			<point x="414" y="1444"/>
			<point x="303" y="1342"/>
			<point x="249" y="1165" type="curve"/>
			<point x="276" y="1160" type="line"/>
			<point x="319" y="1295"/>
			<point x="398" y="1340"/>
			<point x="491" y="1340" type="curve" smooth="yes"/>
			<point x="573" y="1340"/>
			<point x="621" y="1296"/>
			<point x="621" y="1219" type="curve" smooth="yes"/>
			<point x="621" y="1141.5267203497"/>
			<point x="559.5758715703" y="1048.5031322275"/>
			<point x="370" y="879" type="curve" smooth="yes"/>
			<point x="140" y="674" type="line"/>
			<point x="136" y="662" type="line"/>
			<point x="566" y="662" type="line"/>
			<point x="607" y="632" type="line"/>
			<point x="617" y="632" type="line"/>
			<point x="770" y="915" type="line"/>
			<point x="758" y="915" type="line"/>
		</contour>
	</outline>
</glyph>
<glyph name="uni00B3" format="2">
	<unicode hex="00B3"/>
	<advance width="633"/>
	<outline>
		<contour>
			<point x="361" y="1034" type="line"/>
			<point x="398" y="1042" type="line" smooth="yes"/>
			<point x="504.25" y="1063.25"/>
			<point x="556" y="1026"/>
			<point x="556" y="946" type="curve" smooth="yes"/>
			<point x="556" y="817"/>
			<point x="460" y="690"/>
			<point x="332" y="690" type="curve" smooth="yes"/>
			<point x="247" y="690"/>
			<point x="202" y="793"/>
			<point x="181" y="793" type="curve" smooth="yes"/>
			<point x="148" y="793"/>
			<point x="122" y="766"/>
			<point x="122" y="730" type="curve" smooth="yes"/>
			<point x="122" y="688"/>
			<point x="159" y="648"/>
			<point x="300" y="648" type="curve" smooth="yes"/>
			<point x="543" y="648"/>
			<point x="696" y="787"/>
			<point x="696" y="950" type="curve" smooth="yes"/>
			<point x="696" y="1035"/>
			<point x="642" y="1103"/>
			<point x="528" y="1103" type="curve"/>
			<point x="513" y="1092" type="line"/>
			<point x="664.8282043468" y="1129.1135610626"/>
			<point x="718" y="1213"/>
			<point x="718" y="1303" type="curve" smooth="yes"/>
			<point x="718" y="1379"/>
			<point x="674" y="1444"/>
			<point x="571" y="1444" type="curve" smooth="yes"/>
			<point x="435" y="1444"/>
			<point x="341" y="1359"/>
			<point x="292" y="1222" type="curve"/>
			<point x="315" y="1214" type="line"/>
			<point x="350" y="1299"/>
			<point x="414" y="1343"/>
			<point x="492" y="1343" type="curve" smooth="yes"/>
			<point x="551" y="1343"/>
			<point x="587" y="1308"/>
			<point x="587" y="1255" type="curve" smooth="yes"/>
			<point x="587" y="1178.2747990172"/>
			<point x="547.5916870601" y="1116.9872633245"/>
			<point x="361" y="1066" type="curve"/>
		</contour>
	</outline>
</glyph>
<glyph name="uni00B5" format="2">
	<unicode hex="00B5"/>
	<advance width="1104"/>
	<outline>
		<contour>
			<point x="665" y="435" type="line" smooth="yes"/>
			<point x="626" y="319"/>
			<point x="479" y="121"/>
			<point x="362" y="121" type="curve" smooth="yes"/>
			<point x="301" y="121"/>
			<point x="267" y="138"/>
			<point x="263" y="186" type="curve" smooth="yes"/>
			<point x="262" y="209"/>
			<point x="268" y="241"/>
			<point x="281" y="281" type="curve" smooth="yes"/>
			<point x="519" y="1024" type="line"/>
			<point x="356" y="1024" type="line"/>
			<point x="-106" y="-456" type="line"/>
			<point x="-96" y="-456" type="line"/>
			<point x="91" y="-440" type="line"/>
			<point x="130" y="131" type="line"/>
			<point x="123" y="131" type="line"/>
			<point x="130" y="28"/>
			<point x="167" y="-20"/>
			<point x="267" y="-20" type="curve" smooth="yes"/>
			<point x="394" y="-20"/>
			<point x="467" y="70"/>
			<point x="653" y="364" type="curve"/>
			<point x="644" y="364" type="line"/>
			<point x="550" y="63" type="line" smooth="yes"/>
			<point x="534" y="11"/>
			<point x="560" y="-20"/>
			<point x="626" y="-20" type="curve" smooth="yes"/>
			<point x="722" y="-20"/>
			<point x="852" y="65"/>
			<point x="1015" y="323" type="curve"/>
			<point x="1006" y="330" type="line"/>
			<point x="855" y="152"/>
			<point x="744" y="100"/>
			<point x="691" y="118" type="curve"/>
			<point x="709" y="87" type="line"/>
			<point x="1026" y="1024" type="line"/>
			<point x="863" y="1024" type="line"/>
		</contour>
	</outline>
</glyph>
<glyph name="paragraph" format="2">
	<unicode hex="00B6"/>
	<advance width="1159"/>
	<outline>
		<contour>
			<point x="464" y="-218" type="line"/>
			<point x="950" y="1372" type="line"/>
			<point x="1124" y="1372" type="line"/>
			<point x="1142" y="1430" type="line"/>
			<point x="905" y="1430" type="line"/>
			<point x="401" y="-218" type="line"/>
		</contour>
		<contour>
			<point x="682" y="-218" type="line"/>
			<point x="1169" y="1374" type="line"/>
			<point x="1355" y="1408" type="line"/>
			<point x="1362" y="1430" type="line"/>
			<point x="1124" y="1430" type="line"/>
			<point x="620" y="-218" type="line"/>
		</contour>
		<contour>
			<point x="953" y="1430" type="line"/>
			<point x="722" y="1430" type="line" smooth="yes"/>
			<point x="379.7175325792" y="1430"/>
			<point x="209" y="1163"/>
			<point x="209" y="958" type="curve" smooth="yes"/>
			<point x="209" y="814"/>
			<point x="294" y="724"/>
			<point x="505" y="724" type="curve" smooth="yes"/>
			<point x="737" y="724" type="line"/>
		</contour>
	</outline>
</glyph>
<glyph name="uni00B9" format="2">
  <advance width="528"/>
  <unicode hex="00B9"/>
  <outline>
    <contour>
      <point x="286.0" y="710.0" type="line"/>
      <point x="137.0" y="679.0" type="line"/>
      <point x="132.0" y="662.0" type="line"/>
      <point x="535.0" y="662.0" type="line"/>
      <point x="540.0" y="679.0" type="line"/>
      <point x="424.0" y="710.0" type="line"/>
      <point x="648.0" y="1444.0" type="line"/>
      <point x="625.0" y="1444.0" type="line"/>
      <point x="259.0" y="1276.0" type="line"/>
      <point x="265.0" y="1255.0" type="line"/>
      <point x="552.0" y="1322.0" type="line"/>
      <point x="480.0" y="1345.0" type="line"/>
    </contour>
  </outline>
</glyph>
<glyph name="ordmasculine" format="2">
	<unicode hex="00BA"/>
	<advance width="823"/>
	<outline>
		<contour>
			<point x="143" y="570" type="line"/>
			<point x="713" y="570" type="line"/>
			<point x="731" y="629" type="line"/>
			<point x="162" y="629" type="line"/>
		</contour>
		<contour>
			<point x="705" y="1450" type="curve" smooth="yes"/>
			<point x="519" y="1450"/>
			<point x="309" y="1239"/>
			<point x="309" y="982" type="curve" smooth="yes"/>
			<point x="309" y="854"/>
			<point x="374" y="790"/>
			<point x="495" y="790" type="curve" smooth="yes"/>
			<point x="681" y="790"/>
			<point x="891" y="1001"/>
			<point x="891" y="1258" type="curve" smooth="yes"/>
			<point x="891" y="1386"/>
			<point x="826" y="1450"/>
		</contour>
		<contour>
			<point x="499" y="822" type="curve" smooth="yes"/>
			<point x="461" y="822"/>
			<point x="444" y="855"/>
			<point x="444" y="923" type="curve" smooth="yes"/>
			<point x="444" y="1146"/>
			<point x="580" y="1418"/>
			<point x="701" y="1418" type="curve" smooth="yes"/>
			<point x="739" y="1418"/>
			<point x="756" y="1385"/>
			<point x="756" y="1317" type="curve" smooth="yes"/>
			<point x="756" y="1094"/>
			<point x="620" y="822"/>
		</contour>
	</outline>
</glyph>
<glyph name="guillemotright" format="2">
	<unicode hex="00BB"/>
	<advance width="935"/>
	<outline>
		<contour>
			<point x="347" y="460" type="line"/>
			<point x="373" y="610" type="line"/>
			<point x="-26" y="106" type="line"/>
			<point x="-13" y="93" type="line"/>
			<point x="499" y="515" type="line"/>
			<point x="504" y="529" type="line"/>
			<point x="250" y="951" type="line"/>
			<point x="232" y="943" type="line"/>
		</contour>
		<contour>
			<point x="689" y="460" type="line"/>
			<point x="715" y="610" type="line"/>
			<point x="316" y="106" type="line"/>
			<point x="329" y="93" type="line"/>
			<point x="841" y="515" type="line"/>
			<point x="846" y="529" type="line"/>
			<point x="592" y="951" type="line"/>
			<point x="574" y="943" type="line"/>
		</contour>
	</outline>
</glyph>
<glyph name="questiondown" format="2">
	<unicode hex="00BF"/>
	<advance width="954"/>
	<outline>
		<contour>
			<point x="649" y="764" type="curve" smooth="yes"/>
			<point x="741" y="764"/>
			<point x="812" y="836"/>
			<point x="812" y="928" type="curve" smooth="yes"/>
			<point x="812" y="996"/>
			<point x="765" y="1042"/>
			<point x="693" y="1042" type="curve" smooth="yes"/>
			<point x="601" y="1042"/>
			<point x="530" y="970"/>
			<point x="530" y="879" type="curve" smooth="yes"/>
			<point x="530" y="810"/>
			<point x="577" y="764"/>
		</contour>
		<contour>
			<point x="389" y="-427" type="curve" smooth="yes"/>
			<point x="560" y="-427"/>
			<point x="653" y="-373"/>
			<point x="653" y="-301" type="curve" smooth="yes"/>
			<point x="653" y="-260"/>
			<point x="625" y="-232"/>
			<point x="591" y="-232" type="curve" smooth="yes"/>
			<point x="573" y="-232"/>
			<point x="456" y="-343"/>
			<point x="281" y="-343" type="curve" smooth="yes"/>
			<point x="121" y="-343"/>
			<point x="30" y="-246"/>
			<point x="30" y="-77" type="curve" smooth="yes"/>
			<point x="30" y="145"/>
			<point x="177" y="239"/>
			<point x="519" y="180" type="curve"/>
			<point x="609" y="560" type="line"/>
			<point x="577" y="560" type="line"/>
			<point x="433" y="219" type="line"/>
			<point x="514" y="336" type="line"/>
			<point x="137" y="396"/>
			<point x="-55" y="264"/>
			<point x="-55" y="-9" type="curve" smooth="yes"/>
			<point x="-55" y="-216"/>
			<point x="114" y="-427"/>
		</contour>
	</outline>
</glyph>
<glyph name="AE" format="2">
	<unicode hex="00C6"/>
	<advance width="2011"/>
	<outline>
		<contour>
			<point x="59" y="63" type="line"/>
			<point x="1244" y="1390" type="line"/>
			<point x="1233" y="1397" type="line"/>
			<point x="826" y="60" type="line"/>
			<point x="648" y="20" type="line"/>
			<point x="642" y="0" type="line"/>
			<point x="1003" y="0" type="line"/>
			<point x="1438" y="1430" type="line"/>
			<point x="1008" y="1430" type="line"/>
			<point x="1002" y="1410" type="line"/>
			<point x="1169" y="1375" type="line"/>
			<point x="-8" y="66" type="line"/>
			<point x="-179" y="20" type="line"/>
			<point x="-185" y="0" type="line"/>
			<point x="209" y="0" type="line"/>
			<point x="215" y="20" type="line"/>
		</contour>
		<contour>
			<point x="1685" y="-54" type="line"/>
			<point x="1692" y="-54" type="line"/>
			<point x="1922" y="369" type="line"/>
			<point x="1902" y="384" type="line"/>
			<point x="1542" y="38" type="line"/>
			<point x="1723" y="56" type="line"/>
			<point x="883" y="56" type="line"/>
			<point x="865" y="0" type="line"/>
			<point x="1558" y="0" type="line"/>
		</contour>
		<contour>
			<point x="499" y="557" type="line"/>
			<point x="1031" y="557" type="line"/>
			<point x="1049" y="613" type="line"/>
			<point x="518" y="613" type="line"/>
		</contour>
		<contour>
			<point x="1570" y="455" type="line"/>
			<point x="1591" y="455" type="line"/>
			<point x="1648" y="746" type="line"/>
			<point x="1770" y="1039" type="line"/>
			<point x="1749" y="1039" type="line"/>
			<point x="1566" y="784" type="line"/>
			<point x="1102" y="756" type="line"/>
			<point x="1095" y="737" type="line"/>
			<point x="1551" y="713" type="line"/>
		</contour>
		<contour>
			<point x="2038" y="1031" type="line"/>
			<point x="2062" y="1031" type="line"/>
			<point x="2136" y="1484" type="line"/>
			<point x="2129" y="1484" type="line"/>
			<point x="1982" y="1430" type="line"/>
			<point x="1302" y="1430" type="line"/>
			<point x="1284" y="1374" type="line"/>
			<point x="2096" y="1374" type="line"/>
			<point x="1971" y="1394" type="line"/>
		</contour>
	</outline>
	<anchor name="UCtop" x="1341" y="1430"/>
	<anchor name="bottom" x="904" y="0"/>
</glyph>
<glyph name="Ccedilla" format="2">
	<unicode hex="00C7"/>
	<advance width="1384"/>
	<outline>
		<contour>
			<point x="1081" y="144" type="line"/>
			<point x="954" y="51"/>
			<point x="819" y="20"/>
			<point x="705" y="20" type="curve" smooth="yes"/>
			<point x="482" y="20"/>
			<point x="325" y="172"/>
			<point x="325" y="505" type="curve" smooth="yes"/>
			<point x="325" y="1013"/>
			<point x="630" y="1404"/>
			<point x="1069" y="1404" type="curve" smooth="yes"/>
			<point x="1185" y="1404"/>
			<point x="1273" y="1376"/>
			<point x="1353" y="1283" type="curve"/>
			<point x="1308" y="1362" type="line"/>
			<point x="1396" y="994" type="line"/>
			<point x="1421" y="994" type="line"/>
			<point x="1465" y="1484" type="line"/>
			<point x="1452" y="1484" type="line"/>
			<point x="1316" y="1398" type="line"/>
			<point x="1409" y="1412" type="line"/>
			<point x="1310" y="1438"/>
			<point x="1218" y="1450"/>
			<point x="1112" y="1450" type="curve" smooth="yes"/>
			<point x="585" y="1450"/>
			<point x="140" y="1082"/>
			<point x="140" y="525" type="curve" smooth="yes"/>
			<point x="140" y="185"/>
			<point x="359" y="-20"/>
			<point x="697" y="-20" type="curve" smooth="yes"/>
			<point x="833" y="-20"/>
			<point x="966" y="-6"/>
			<point x="1117" y="34" type="curve"/>
			<point x="1288" y="361" type="line"/>
			<point x="1264" y="361" type="line"/>
			<point x="988" y="72" type="line"/>
		</contour>
		<contour>
			<point x="509" y="-426" type="curve" smooth="yes"/>
			<point x="435" y="-426"/>
			<point x="410" y="-348"/>
			<point x="395" y="-348" type="curve" smooth="yes"/>
			<point x="364" y="-348"/>
			<point x="344" y="-370"/>
			<point x="344" y="-402" type="curve" smooth="yes"/>
			<point x="344" y="-436"/>
			<point x="371" y="-465"/>
			<point x="459" y="-465" type="curve" smooth="yes"/>
			<point x="602" y="-465"/>
			<point x="710" y="-372"/>
			<point x="710" y="-270" type="curve" smooth="yes"/>
			<point x="710" y="-204"/>
			<point x="675" y="-152"/>
			<point x="549" y="-108" type="curve"/>
			<point x="528" y="-163" type="line"/>
			<point x="690" y="15" type="line"/>
			<point x="649" y="15" type="line"/>
			<point x="460" y="-192" type="line"/>
			<point x="460" y="-196" type="line"/>
			<point x="590" y="-233"/>
			<point x="626" y="-278"/>
			<point x="626" y="-327" type="curve" smooth="yes"/>
			<point x="626" y="-387"/>
			<point x="575" y="-426"/>
		</contour>
	</outline>
</glyph>
<glyph name="multiply" format="2">
	<unicode hex="00D7"/>
	<advance width="1150"/>
	<outline>
		<contour>
			<point x="132" y="213" type="line"/>
			<point x="166" y="163" type="line"/>
			<point x="1018" y="811" type="line"/>
			<point x="984" y="861" type="line"/>
		</contour>
		<contour>
			<point x="328" y="822" type="line"/>
			<point x="770" y="163" type="line"/>
			<point x="822" y="202" type="line"/>
			<point x="380" y="861" type="line"/>
		</contour>
	</outline>
</glyph>
<glyph name="Oslash" format="2">
	<unicode hex="00D8"/>
	<advance width="1570"/>
	<outline>
		<contour>
			<point x="1744" y="1430" type="line"/>
			<point x="1641" y="1430" type="line"/>
			<point x="1424" y="1249" type="line"/>
			<point x="1357" y="1196" type="line"/>
			<point x="297" y="286" type="line"/>
			<point x="225" y="229" type="line"/>
			<point x="-50" y="0" type="line"/>
			<point x="53" y="0" type="line"/>
			<point x="270" y="181" type="line"/>
			<point x="337" y="234" type="line"/>
			<point x="1397" y="1144" type="line"/>
			<point x="1469" y="1201" type="line"/>
		</contour>
		<contour>
			<point x="333" y="451" type="curve" smooth="yes"/>
			<point x="333" y="851"/>
			<point x="590" y="1403"/>
			<point x="1013" y="1403" type="curve" smooth="yes"/>
			<point x="1231" y="1403"/>
			<point x="1360" y="1259"/>
			<point x="1360" y="979" type="curve" smooth="yes"/>
			<point x="1360" y="579"/>
			<point x="1103" y="27"/>
			<point x="680" y="27" type="curve" smooth="yes"/>
			<point x="462" y="27"/>
			<point x="333" y="171"/>
		</contour>
		<contour>
			<point x="1542" y="907" type="curve" smooth="yes"/>
			<point x="1542" y="1244"/>
			<point x="1334" y="1450"/>
			<point x="999" y="1450" type="curve" smooth="yes"/>
			<point x="519" y="1450"/>
			<point x="151" y="987"/>
			<point x="151" y="523" type="curve" smooth="yes"/>
			<point x="151" y="186"/>
			<point x="359" y="-20"/>
			<point x="694" y="-20" type="curve" smooth="yes"/>
			<point x="1174" y="-20"/>
			<point x="1542" y="443"/>
		</contour>
	</outline>
	<anchor name="UCtop" x="1065" y="1430"/>
	<anchor name="bottom" x="597" y="0"/>
</glyph>
<glyph name="Thorn" format="2">
	<unicode hex="00DE"/>
	<advance width="1253"/>
	<outline>
		<contour>
			<point x="599" y="396" type="curve" smooth="yes"/>
			<point x="284" y="396" type="line"/>
			<point x="265" y="340" type="line"/>
			<point x="638" y="340" type="line" smooth="yes"/>
			<point x="1018" y="340"/>
			<point x="1248" y="537"/>
			<point x="1248" y="803" type="curve" smooth="yes"/>
			<point x="1248" y="975"/>
			<point x="1126" y="1123"/>
			<point x="792" y="1123" type="curve" smooth="yes"/>
			<point x="505" y="1123" type="line"/>
			<point x="487" y="1067" type="line"/>
			<point x="724" y="1067" type="line" smooth="yes"/>
			<point x="970" y="1067"/>
			<point x="1054" y="948"/>
			<point x="1054" y="811" type="curve" smooth="yes"/>
			<point x="1054" y="558"/>
			<point x="885" y="396"/>
		</contour>
		<contour>
			<point x="505" y="1370" type="line"/>
			<point x="106" y="60" type="line"/>
			<point x="-72" y="20" type="line"/>
			<point x="-78" y="0" type="line"/>
			<point x="458" y="0" type="line"/>
			<point x="463" y="20" type="line"/>
			<point x="301" y="60" type="line"/>
			<point x="700" y="1370" type="line"/>
			<point x="878" y="1410" type="line"/>
			<point x="884" y="1430" type="line"/>
			<point x="348" y="1430" type="line"/>
			<point x="342" y="1410" type="line"/>
		</contour>
	</outline>
</glyph>
<glyph name="germandbls" format="2">
  <advance width="1074"/>
  <unicode hex="00DF"/>
  <outline>
    <contour>
      <point x="133.0" y="972.0" type="line"/>
      <point x="421.0" y="972.0" type="line"/>
      <point x="431.0" y="1024.0" type="line"/>
      <point x="142.0" y="1024.0" type="line"/>
    </contour>
    <contour>
      <point x="304" y="237" type="curve" smooth="yes"/>
      <point x="509" y="1056" type="line" smooth="yes"/>
      <point x="584" y="1354"/>
      <point x="666" y="1450"/>
      <point x="818" y="1450" type="curve" smooth="yes"/>
      <point x="914" y="1450"/>
      <point x="962" y="1397"/>
      <point x="962" y="1301" type="curve" smooth="yes"/>
      <point x="962.0" y="1186.0"/>
      <point x="921.0" y="1090.0"/>
      <point x="770" y="958" type="curve" smooth="yes"/>
      <point x="619" y="826"/>
      <point x="595.0" y="773.0"/>
      <point x="595" y="698" type="curve" smooth="yes"/>
      <point x="595" y="622"/>
      <point x="626" y="568"/>
      <point x="718" y="453" type="curve" smooth="yes"/>
      <point x="810" y="338"/>
      <point x="841" y="272"/>
      <point x="841" y="197" type="curve" smooth="yes"/>
      <point x="841" y="99"/>
      <point x="776" y="32"/>
      <point x="673" y="32" type="curve" smooth="yes"/>
      <point x="644" y="32"/>
      <point x="621" y="35"/>
      <point x="603" y="58" type="curve" smooth="yes"/>
      <point x="585" y="81"/>
      <point x="575" y="130"/>
      <point x="571" y="221" type="curve"/>
      <point x="455" y="221"/>
      <point x="406" y="188"/>
      <point x="406" y="110" type="curve" smooth="yes"/>
      <point x="406" y="31"/>
      <point x="457" y="-20"/>
      <point x="603" y="-20" type="curve" smooth="yes"/>
      <point x="814" y="-20"/>
      <point x="947" y="142"/>
      <point x="947" y="326" type="curve" smooth="yes"/>
      <point x="947" y="397"/>
      <point x="918" y="471"/>
      <point x="834" y="575" type="curve" smooth="yes"/>
      <point x="750" y="679"/>
      <point x="725" y="740"/>
      <point x="725" y="801" type="curve" smooth="yes"/>
      <point x="725.0" y="868"/>
      <point x="754" y="918"/>
      <point x="897" y="1014" type="curve" smooth="yes"/>
      <point x="1040" y="1110.0"/>
      <point x="1093" y="1181"/>
      <point x="1093" y="1284" type="curve" smooth="yes"/>
      <point x="1093" y="1397"/>
      <point x="1009" y="1484"/>
      <point x="826" y="1484" type="curve" smooth="yes"/>
      <point x="619" y="1484"/>
      <point x="407" y="1323"/>
      <point x="329" y="982" type="curve" smooth="yes"/>
      <point x="124" y="81" type="line" smooth="yes"/>
      <point x="35" y="-309"/>
      <point x="-64" y="-418"/>
      <point x="-157" y="-418" type="curve" smooth="yes"/>
      <point x="-192" y="-418"/>
      <point x="-202" y="-404"/>
      <point x="-186" y="-331" type="curve" smooth="yes"/>
      <point x="-170" y="-258"/>
      <point x="-187" y="-233"/>
      <point x="-240" y="-233" type="curve" smooth="yes"/>
      <point x="-303" y="-233"/>
      <point x="-340" y="-284"/>
      <point x="-340" y="-342" type="curve" smooth="yes"/>
      <point x="-340" y="-416"/>
      <point x="-287" y="-465"/>
      <point x="-195" y="-465" type="curve" smooth="yes"/>
      <point x="-19" y="-465"/>
      <point x="176" y="-276"/>
    </contour>
  </outline>
</glyph>
<glyph name="ae" format="2">
	<unicode hex="00E6"/>
	<advance width="1409"/>
	<outline>
		<contour>
			<point x="962" y="876" type="line"/>
			<point x="1012" y="1024" type="line"/>
			<point x="849" y="1024" type="line"/>
			<point x="814" y="923" type="line"/>
			<point x="649" y="446" type="line"/>
			<point x="472" y="193"/>
			<point x="352" y="111"/>
			<point x="275" y="111" type="curve" smooth="yes"/>
			<point x="219" y="111"/>
			<point x="178" y="141"/>
			<point x="178" y="226" type="curve" smooth="yes"/>
			<point x="178" y="472"/>
			<point x="444" y="975"/>
			<point x="686" y="975" type="curve" smooth="yes"/>
			<point x="752" y="975"/>
			<point x="802" y="945"/>
			<point x="840" y="843" type="curve"/>
			<point x="847" y="877" type="line"/>
			<point x="800" y="985"/>
			<point x="726" y="1040"/>
			<point x="642" y="1040" type="curve" smooth="yes"/>
			<point x="333" y="1040"/>
			<point x="1" y="497"/>
			<point x="1" y="169" type="curve" smooth="yes"/>
			<point x="1" y="45"/>
			<point x="78" y="-20"/>
			<point x="183" y="-20" type="curve" smooth="yes"/>
			<point x="278" y="-20"/>
			<point x="410" y="48"/>
			<point x="667" y="441" type="curve"/>
			<point x="654" y="441" type="line"/>
			<point x="580" y="120"/>
			<point x="692" y="-20"/>
			<point x="895" y="-20" type="curve" smooth="yes"/>
			<point x="1041" y="-20"/>
			<point x="1178" y="68"/>
			<point x="1309" y="395" type="curve"/>
			<point x="1298" y="397" type="line"/>
			<point x="1179" y="177"/>
			<point x="1065" y="109"/>
			<point x="954" y="109" type="curve" smooth="yes"/>
			<point x="857" y="109"/>
			<point x="805" y="163"/>
			<point x="805" y="305" type="curve" smooth="yes"/>
			<point x="805" y="536"/>
			<point x="963" y="1004"/>
			<point x="1187" y="1004" type="curve" smooth="yes"/>
			<point x="1245" y="1004"/>
			<point x="1279" y="960"/>
			<point x="1279" y="892" type="curve" smooth="yes"/>
			<point x="1279" y="747"/>
			<point x="1183" y="646"/>
			<point x="793" y="524" type="curve"/>
			<point x="787" y="493" type="line"/>
			<point x="1021" y="552"/>
			<point x="1288" y="646"/>
			<point x="1366" y="695" type="curve"/>
			<point x="1406" y="754"/>
			<point x="1421" y="816"/>
			<point x="1421" y="873" type="curve" smooth="yes"/>
			<point x="1421" y="969"/>
			<point x="1360" y="1044"/>
			<point x="1237" y="1044" type="curve" smooth="yes"/>
			<point x="1124" y="1044"/>
			<point x="1034" y="989"/>
			<point x="957" y="876" type="curve"/>
		</contour>
	</outline>
	<anchor name="top" x="924" y="1024"/>
	<anchor name="bottom" x="611" y="0"/>
</glyph>
<glyph name="ccedilla" format="2">
	<unicode hex="00E7"/>
	<advance width="788"/>
	<outline>
		<contour>
			<point x="98" y="-465" type="curve" smooth="yes"/>
			<point x="241" y="-465"/>
			<point x="349" y="-372"/>
			<point x="349" y="-270" type="curve" smooth="yes"/>
			<point x="349" y="-204"/>
			<point x="314" y="-152"/>
			<point x="188" y="-108" type="curve"/>
			<point x="167" y="-163" type="line"/>
			<point x="329" y="15" type="line"/>
			<point x="288" y="15" type="line"/>
			<point x="99" y="-192" type="line"/>
			<point x="99" y="-196" type="line"/>
			<point x="229" y="-233"/>
			<point x="265" y="-278"/>
			<point x="265" y="-327" type="curve" smooth="yes"/>
			<point x="265" y="-387"/>
			<point x="214" y="-426"/>
			<point x="148" y="-426" type="curve" smooth="yes"/>
			<point x="74" y="-426"/>
			<point x="49" y="-348"/>
			<point x="34" y="-348" type="curve" smooth="yes"/>
			<point x="3" y="-348"/>
			<point x="-17" y="-370"/>
			<point x="-17" y="-402" type="curve" smooth="yes"/>
			<point x="-17" y="-436"/>
			<point x="10" y="-465"/>
		</contour>
		<contour>
			<point x="604" y="1009" type="curve" smooth="yes"/>
			<point x="654" y="1009"/>
			<point x="668" y="988"/>
			<point x="645" y="900" type="curve" smooth="yes"/>
			<point x="622" y="812"/>
			<point x="646" y="784"/>
			<point x="711" y="784" type="curve" smooth="yes"/>
			<point x="785" y="784"/>
			<point x="828" y="842"/>
			<point x="828" y="904" type="curve" smooth="yes"/>
			<point x="828" y="982"/>
			<point x="771" y="1044"/>
			<point x="638" y="1044" type="curve" smooth="yes"/>
			<point x="320" y="1044"/>
			<point x="40" y="660"/>
			<point x="40" y="246" type="curve" smooth="yes"/>
			<point x="40" y="73"/>
			<point x="132" y="-20"/>
			<point x="292" y="-20" type="curve" smooth="yes"/>
			<point x="443" y="-20"/>
			<point x="574" y="75"/>
			<point x="699" y="395" type="curve"/>
			<point x="688" y="397" type="line"/>
			<point x="573" y="181"/>
			<point x="457" y="109"/>
			<point x="349" y="109" type="curve" smooth="yes"/>
			<point x="255" y="109"/>
			<point x="209" y="163"/>
			<point x="209" y="305" type="curve" smooth="yes"/>
			<point x="209" y="613"/>
			<point x="383" y="1009"/>
		</contour>
	</outline>
</glyph>
<glyph name="eth" format="2">
	<unicode hex="00F0"/>
	<advance width="924"/>
	<outline>
		<contour>
			<point x="753" y="854" type="line"/>
			<point x="753" y="946"/>
			<point x="713" y="1012"/>
			<point x="624" y="1012" type="curve" smooth="yes"/>
			<point x="314" y="1012"/>
			<point x="35" y="623"/>
			<point x="35" y="265" type="curve" smooth="yes"/>
			<point x="35" y="84"/>
			<point x="120" y="-20"/>
			<point x="285" y="-20" type="curve" smooth="yes"/>
			<point x="635" y="-20"/>
			<point x="893" y="431"/>
			<point x="893" y="849" type="curve" smooth="yes"/>
			<point x="893" y="1113"/>
			<point x="780" y="1355"/>
			<point x="428" y="1483" type="curve"/>
			<point x="413" y="1453" type="line"/>
			<point x="654" y="1353"/>
			<point x="773" y="1103"/>
			<point x="737" y="855" type="curve"/>
		</contour>
		<contour>
			<point x="288" y="14" type="curve" smooth="yes"/>
			<point x="220" y="14"/>
			<point x="192" y="67"/>
			<point x="192" y="178" type="curve" smooth="yes"/>
			<point x="192" y="539"/>
			<point x="420" y="978"/>
			<point x="621" y="978" type="curve" smooth="yes"/>
			<point x="689" y="978"/>
			<point x="717" y="925"/>
			<point x="717" y="814" type="curve" smooth="yes"/>
			<point x="717" y="453"/>
			<point x="489" y="14"/>
		</contour>
		<contour>
			<point x="429" y="1081" type="line"/>
			<point x="950" y="1437" type="line"/>
			<point x="927" y="1473" type="line"/>
			<point x="406" y="1118" type="line"/>
		</contour>
	</outline>
</glyph>
<glyph name="divide" format="2">
	<unicode hex="00F7"/>
	<advance width="1150"/>
	<outline>
		<contour>
			<point x="174" y="545" type="line"/>
			<point x="154" y="479" type="line"/>
			<point x="976" y="479" type="line"/>
			<point x="996" y="545" type="line"/>
		</contour>
		<contour>
			<point x="684" y="972" type="curve" smooth="yes"/>
			<point x="625" y="972"/>
			<point x="581" y="926"/>
			<point x="581" y="870" type="curve" smooth="yes"/>
			<point x="581" y="814"/>
			<point x="625" y="768"/>
			<point x="684" y="768" type="curve" smooth="yes"/>
			<point x="743" y="768"/>
			<point x="787" y="814"/>
			<point x="787" y="870" type="curve" smooth="yes"/>
			<point x="787" y="926"/>
			<point x="743" y="972"/>
		</contour>
		<contour>
			<point x="466" y="257" type="curve" smooth="yes"/>
			<point x="407" y="257"/>
			<point x="363" y="210"/>
			<point x="363" y="154" type="curve" smooth="yes"/>
			<point x="363" y="98"/>
			<point x="407" y="52"/>
			<point x="466" y="52" type="curve" smooth="yes"/>
			<point x="525" y="52"/>
			<point x="569" y="98"/>
			<point x="569" y="154" type="curve" smooth="yes"/>
			<point x="569" y="210"/>
			<point x="525" y="257"/>
		</contour>
	</outline>
</glyph>
<glyph name="oslash" format="2">
	<unicode hex="00F8"/>
	<advance width="957"/>
	<outline>
		<contour>
			<point x="646" y="1044" type="curve" smooth="yes"/>
			<point x="336" y="1044"/>
			<point x="57" y="643"/>
			<point x="57" y="274" type="curve" smooth="yes"/>
			<point x="57" y="87"/>
			<point x="142" y="-20"/>
			<point x="307" y="-20" type="curve" smooth="yes"/>
			<point x="617" y="-20"/>
			<point x="896" y="381"/>
			<point x="896" y="750" type="curve" smooth="yes"/>
			<point x="896" y="937"/>
			<point x="811" y="1044"/>
		</contour>
		<contour>
			<point x="310" y="14" type="curve" smooth="yes"/>
			<point x="242" y="14"/>
			<point x="214" y="69"/>
			<point x="214" y="184" type="curve" smooth="yes"/>
			<point x="214" y="556"/>
			<point x="442" y="1010"/>
			<point x="643" y="1010" type="curve" smooth="yes"/>
			<point x="711" y="1010"/>
			<point x="739" y="955"/>
			<point x="739" y="840" type="curve" smooth="yes"/>
			<point x="739" y="468"/>
			<point x="511" y="14"/>
		</contour>
		<contour>
			<point x="947" y="1024" type="line"/>
			<point x="827" y="904" type="line"/>
			<point x="784" y="879" type="line"/>
			<point x="154" y="196" type="line"/>
			<point x="108" y="174" type="line"/>
			<point x="-64" y="0" type="line"/>
			<point x="25" y="0" type="line"/>
			<point x="145" y="120" type="line"/>
			<point x="188" y="145" type="line"/>
			<point x="818" y="828" type="line"/>
			<point x="864" y="850" type="line"/>
			<point x="1036" y="1024" type="line"/>
		</contour>
	</outline>
	<anchor name="top" x="633" y="1024"/>
	<anchor name="bottom" x="299" y="0"/>
</glyph>
<glyph name="thorn" format="2">
	<unicode hex="00FE"/>
	<advance width="995"/>
	<outline>
		<contour>
			<point x="229" y="257" type="curve" smooth="yes"/>
			<point x="300" y="499" type="line" smooth="yes"/>
			<point x="353" y="680"/>
			<point x="530" y="928"/>
			<point x="696" y="928" type="curve" smooth="yes"/>
			<point x="758" y="928"/>
			<point x="796" y="887"/>
			<point x="796" y="787" type="curve" smooth="yes"/>
			<point x="796" y="437"/>
			<point x="527" y="16"/>
			<point x="332" y="16" type="curve" smooth="yes"/>
			<point x="252" y="16"/>
			<point x="215" y="82"/>
			<point x="215" y="165" type="curve" smooth="yes"/>
			<point x="215" y="194"/>
			<point x="220" y="226"/>
		</contour>
		<contour>
			<point x="332" y="606" type="line"/>
			<point x="606" y="1484" type="line"/>
			<point x="603" y="1484" type="line"/>
			<point x="240" y="1407" type="line"/>
			<point x="239" y="1401" type="line"/>
			<point x="296" y="1364.0066225166"/>
			<point x="354" y="1326.3642384106"/>
			<point x="390" y="1303" type="curve"/>
			<point x="-123" y="-388" type="line"/>
			<point x="-266" y="-418" type="line"/>
			<point x="-273" y="-445" type="line"/>
			<point x="197" y="-445" type="line"/>
			<point x="204" y="-418" type="line"/>
			<point x="40" y="-388" type="line"/>
			<point x="182" y="91" type="line"/>
			<point x="111" y="120" type="line"/>
			<point x="139" y="40"/>
			<point x="204" y="-20"/>
			<point x="334" y="-20" type="curve" smooth="yes"/>
			<point x="609" y="-20"/>
			<point x="978" y="411"/>
			<point x="978" y="820" type="curve" smooth="yes"/>
			<point x="978" y="971"/>
			<point x="908" y="1044"/>
			<point x="776" y="1044" type="curve" smooth="yes"/>
			<point x="649" y="1044"/>
			<point x="504" y="951"/>
			<point x="318" y="606" type="curve"/>
		</contour>
	</outline>
</glyph>
<glyph name="Aogonek" format="2">
	<unicode hex="0104"/>
	<advance width="1401"/>
	<outline>
		<contour>
			<point x="380" y="557" type="line"/>
			<point x="1052" y="557" type="line"/>
			<point x="1070" y="613" type="line"/>
			<point x="399" y="613" type="line"/>
		</contour>
		<contour>
			<point x="1153" y="58" type="line"/>
			<point x="978" y="1450" type="line"/>
			<point x="942" y="1450" type="line"/>
			<point x="13" y="66" type="line"/>
			<point x="-158" y="20" type="line"/>
			<point x="-164" y="0" type="line"/>
			<point x="228" y="0" type="line"/>
			<point x="234" y="20" type="line"/>
			<point x="78" y="63" type="line"/>
			<point x="848" y="1220" type="line"/>
			<point x="824" y="1220" type="line"/>
			<point x="962" y="56" type="line"/>
			<point x="804" y="20" type="line"/>
			<point x="798" y="0" type="line"/>
			<point x="1292" y="0" type="line"/>
			<point x="1298" y="20" type="line"/>
		</contour>
		<contour>
			<point x="926" y="-303" type="curve" smooth="yes"/>
			<point x="926" y="-258"/>
			<point x="938" y="-197"/>
			<point x="1026" y="-56" type="curve" smooth="yes"/>
			<point x="1105" y="71" type="line"/>
			<point x="1084" y="71" type="line"/>
			<point x="959" y="-93" type="line" smooth="yes"/>
			<point x="849" y="-237"/>
			<point x="808" y="-287"/>
			<point x="808" y="-365" type="curve" smooth="yes"/>
			<point x="808" y="-424"/>
			<point x="848" y="-465"/>
			<point x="935" y="-465" type="curve" smooth="yes"/>
			<point x="1003" y="-465"/>
			<point x="1056" y="-429"/>
			<point x="1129" y="-328" type="curve"/>
			<point x="1121" y="-319" type="line"/>
			<point x="1082" y="-355"/>
			<point x="1048" y="-370"/>
			<point x="1008" y="-370" type="curve" smooth="yes"/>
			<point x="960" y="-370"/>
			<point x="926" y="-349"/>
		</contour>
	</outline>
</glyph>
<glyph name="aogonek" format="2">
	<unicode hex="0105"/>
	<advance width="1040"/>
	<outline>
		<contour>
			<point x="1002" y="323" type="curve"/>
			<point x="993" y="330" type="line"/>
			<point x="842" y="152"/>
			<point x="731" y="100"/>
			<point x="678" y="118" type="curve"/>
			<point x="699" y="87" type="line"/>
			<point x="1014" y="1024" type="line"/>
			<point x="851" y="1024" type="line"/>
			<point x="816" y="923" type="line"/>
			<point x="651" y="446" type="line"/>
			<point x="474" y="193"/>
			<point x="354" y="111"/>
			<point x="277" y="111" type="curve" smooth="yes"/>
			<point x="219" y="111"/>
			<point x="180" y="143"/>
			<point x="180" y="226" type="curve" smooth="yes"/>
			<point x="180" y="511"/>
			<point x="475" y="975"/>
			<point x="688" y="975" type="curve" smooth="yes"/>
			<point x="745" y="975"/>
			<point x="790" y="953"/>
			<point x="825" y="882" type="curve"/>
			<point x="834" y="908" type="line"/>
			<point x="787" y="995"/>
			<point x="718" y="1040"/>
			<point x="642" y="1040" type="curve" smooth="yes"/>
			<point x="353" y="1040"/>
			<point x="3" y="525"/>
			<point x="3" y="169" type="curve" smooth="yes"/>
			<point x="3" y="45"/>
			<point x="80" y="-20"/>
			<point x="185" y="-20" type="curve" smooth="yes"/>
			<point x="296" y="-20"/>
			<point x="424" y="71"/>
			<point x="669" y="441" type="curve"/>
			<point x="658" y="441" type="line"/>
			<point x="537" y="63" type="line" smooth="yes"/>
			<point x="520" y="11"/>
			<point x="547" y="-20"/>
			<point x="613" y="-20" type="curve" smooth="yes"/>
			<point x="655" y="-20"/>
			<point x="703" y="-4"/>
			<point x="758" y="36" type="curve"/>
			<point x="751" y="46" type="line"/>
			<point x="614" y="-88" type="line" smooth="yes"/>
			<point x="464" y="-236"/>
			<point x="424" y="-287"/>
			<point x="424" y="-365" type="curve" smooth="yes"/>
			<point x="424" y="-424"/>
			<point x="464" y="-465"/>
			<point x="551" y="-465" type="curve" smooth="yes"/>
			<point x="619" y="-465"/>
			<point x="672" y="-429"/>
			<point x="745" y="-328" type="curve"/>
			<point x="737" y="-319" type="line"/>
			<point x="698" y="-355"/>
			<point x="664" y="-370"/>
			<point x="624" y="-370" type="curve" smooth="yes"/>
			<point x="576" y="-370"/>
			<point x="546" y="-352"/>
			<point x="546" y="-306" type="curve" smooth="yes"/>
			<point x="546" y="-261"/>
			<point x="563" y="-191"/>
			<point x="691" y="-51" type="curve" smooth="yes"/>
			<point x="863" y="136" type="line" smooth="yes"/>
			<point x="917" y="194"/>
			<point x="958" y="253"/>
		</contour>
	</outline>
</glyph>
<glyph name="Dcroat" format="2">
	<unicode hex="0110"/>
	<advance width="1499"/>
	<outline>
		<contour>
			<point x="143" y="715" type="line"/>
			<point x="820" y="715" type="line"/>
			<point x="839" y="779" type="line"/>
			<point x="162" y="779" type="line"/>
		</contour>
		<contour>
			<point x="529" y="56" type="curve" smooth="yes"/>
			<point x="188" y="56" type="line"/>
			<point x="172" y="0" type="line"/>
			<point x="505" y="0" type="line" smooth="yes"/>
			<point x="1129" y="0"/>
			<point x="1482" y="422"/>
			<point x="1482" y="895" type="curve" smooth="yes"/>
			<point x="1482" y="1245"/>
			<point x="1213" y="1430"/>
			<point x="838" y="1430" type="curve" smooth="yes"/>
			<point x="610" y="1430" type="line"/>
			<point x="594" y="1374" type="line"/>
			<point x="823" y="1374" type="line" smooth="yes"/>
			<point x="1126" y="1374"/>
			<point x="1283" y="1212"/>
			<point x="1283" y="941" type="curve" smooth="yes"/>
			<point x="1283" y="393"/>
			<point x="941" y="56"/>
		</contour>
		<contour>
			<point x="507" y="1370" type="line"/>
			<point x="108" y="60" type="line"/>
			<point x="-70" y="20" type="line"/>
			<point x="-76" y="0" type="line"/>
			<point x="285" y="0" type="line"/>
			<point x="720" y="1430" type="line"/>
			<point x="350" y="1430" type="line"/>
			<point x="344" y="1410" type="line"/>
		</contour>
	</outline>
</glyph>
<glyph name="Eogonek" format="2">
	<unicode hex="0118"/>
	<advance width="1291"/>
	<outline>
		<contour>
			<point x="505" y="1370" type="line"/>
			<point x="106" y="60" type="line"/>
			<point x="-72" y="20" type="line"/>
			<point x="-78" y="0" type="line"/>
			<point x="283" y="0" type="line"/>
			<point x="718" y="1430" type="line"/>
			<point x="348" y="1430" type="line"/>
			<point x="342" y="1410" type="line"/>
		</contour>
		<contour>
			<point x="850" y="455" type="line"/>
			<point x="871" y="455" type="line"/>
			<point x="928" y="746" type="line"/>
			<point x="1050" y="1039" type="line"/>
			<point x="1029" y="1039" type="line"/>
			<point x="846" y="784" type="line"/>
			<point x="382" y="756" type="line"/>
			<point x="375" y="737" type="line"/>
			<point x="831" y="713" type="line"/>
		</contour>
		<contour>
			<point x="1342" y="1031" type="line"/>
			<point x="1416" y="1484" type="line"/>
			<point x="1409" y="1484" type="line"/>
			<point x="1262" y="1430" type="line"/>
			<point x="582" y="1430" type="line"/>
			<point x="564" y="1374" type="line"/>
			<point x="1376" y="1374" type="line"/>
			<point x="1251" y="1394" type="line"/>
			<point x="1318" y="1031" type="line"/>
		</contour>
		<contour>
			<point x="965" y="-54" type="line"/>
			<point x="972" y="-54" type="line"/>
			<point x="1202" y="369" type="line"/>
			<point x="1182" y="384" type="line"/>
			<point x="822" y="38" type="line"/>
			<point x="918" y="56" type="line"/>
			<point x="163" y="56" type="line"/>
			<point x="145" y="0" type="line"/>
			<point x="838" y="0" type="line"/>
		</contour>
		<contour>
			<point x="702" y="-293" type="curve" smooth="yes"/>
			<point x="702" y="-241"/>
			<point x="720" y="-179"/>
			<point x="807" y="-60" type="curve" smooth="yes"/>
			<point x="903" y="71" type="line"/>
			<point x="882" y="71" type="line"/>
			<point x="738" y="-97" type="line" smooth="yes"/>
			<point x="599" y="-259"/>
			<point x="586" y="-307"/>
			<point x="586" y="-362" type="curve" smooth="yes"/>
			<point x="586" y="-424"/>
			<point x="626" y="-465"/>
			<point x="713" y="-465" type="curve" smooth="yes"/>
			<point x="781" y="-465"/>
			<point x="834" y="-429"/>
			<point x="907" y="-328" type="curve"/>
			<point x="899" y="-319" type="line"/>
			<point x="860" y="-355"/>
			<point x="826" y="-370"/>
			<point x="786" y="-370" type="curve" smooth="yes"/>
			<point x="730" y="-370"/>
			<point x="702" y="-347"/>
		</contour>
	</outline>
</glyph>
<glyph name="eogonek" format="2">
	<unicode hex="0119"/>
	<advance width="808"/>
	<outline>
		<contour>
			<point x="576" y="145" type="line" smooth="yes"/>
			<point x="622" y="204"/>
			<point x="666" y="290"/>
			<point x="708" y="395" type="curve"/>
			<point x="697" y="397" type="line"/>
			<point x="578" y="177"/>
			<point x="464" y="109"/>
			<point x="353" y="109" type="curve" smooth="yes"/>
			<point x="256" y="109"/>
			<point x="204" y="163"/>
			<point x="204" y="305" type="curve" smooth="yes"/>
			<point x="204" y="536"/>
			<point x="362" y="1004"/>
			<point x="586" y="1004" type="curve" smooth="yes"/>
			<point x="644" y="1004"/>
			<point x="678" y="960"/>
			<point x="678" y="892" type="curve" smooth="yes"/>
			<point x="678" y="747"/>
			<point x="582" y="646"/>
			<point x="192" y="524" type="curve"/>
			<point x="186" y="493" type="line"/>
			<point x="420" y="552"/>
			<point x="687" y="646"/>
			<point x="765" y="695" type="curve"/>
			<point x="805" y="754"/>
			<point x="820" y="816"/>
			<point x="820" y="873" type="curve" smooth="yes"/>
			<point x="820" y="969"/>
			<point x="762" y="1044"/>
			<point x="623" y="1044" type="curve" smooth="yes"/>
			<point x="297" y="1044"/>
			<point x="35" y="602"/>
			<point x="35" y="246" type="curve" smooth="yes"/>
			<point x="35" y="73"/>
			<point x="130" y="-20"/>
			<point x="294" y="-20" type="curve" smooth="yes"/>
			<point x="358" y="-20"/>
			<point x="420" y="-3"/>
			<point x="480" y="43" type="curve"/>
			<point x="475" y="49" type="line"/>
			<point x="430" y="-5" type="line" smooth="yes"/>
			<point x="242" y="-230"/>
			<point x="220" y="-280"/>
			<point x="220" y="-349" type="curve" smooth="yes"/>
			<point x="220" y="-409"/>
			<point x="254" y="-465"/>
			<point x="347" y="-465" type="curve" smooth="yes"/>
			<point x="415" y="-465"/>
			<point x="468" y="-429"/>
			<point x="541" y="-328" type="curve"/>
			<point x="533" y="-319" type="line"/>
			<point x="494" y="-355"/>
			<point x="460" y="-370"/>
			<point x="420" y="-370" type="curve" smooth="yes"/>
			<point x="361" y="-370"/>
			<point x="329" y="-344"/>
			<point x="329" y="-282" type="curve" smooth="yes"/>
			<point x="329" y="-229"/>
			<point x="363" y="-127"/>
			<point x="493" y="39" type="curve" smooth="yes"/>
		</contour>
	</outline>
</glyph>
<glyph name="Hbar" format="2">
	<unicode hex="0126"/>
	<advance width="1588"/>
	<outline>
		<contour>
			<point x="385" y="712" type="line"/>
			<point x="1319" y="712" type="line"/>
			<point x="1338" y="768" type="line"/>
			<point x="403" y="768" type="line"/>
		</contour>
		<contour>
			<point x="246" y="1056" type="line"/>
			<point x="1683" y="1056" type="line"/>
			<point x="1703" y="1120" type="line"/>
			<point x="265" y="1120" type="line"/>
		</contour>
		<contour>
			<point x="506" y="1370" type="line"/>
			<point x="107" y="60" type="line"/>
			<point x="-71" y="20" type="line"/>
			<point x="-77" y="0" type="line"/>
			<point x="459" y="0" type="line"/>
			<point x="464" y="20" type="line"/>
			<point x="302" y="60" type="line"/>
			<point x="701" y="1370" type="line"/>
			<point x="879" y="1410" type="line"/>
			<point x="885" y="1430" type="line"/>
			<point x="349" y="1430" type="line"/>
			<point x="343" y="1410" type="line"/>
		</contour>
		<contour>
			<point x="1407" y="1370" type="line"/>
			<point x="1008" y="60" type="line"/>
			<point x="830" y="20" type="line"/>
			<point x="824" y="0" type="line"/>
			<point x="1360" y="0" type="line"/>
			<point x="1366" y="20" type="line"/>
			<point x="1204" y="60" type="line"/>
			<point x="1603" y="1370" type="line"/>
			<point x="1780" y="1410" type="line"/>
			<point x="1786" y="1430" type="line"/>
			<point x="1250" y="1430" type="line"/>
			<point x="1245" y="1410" type="line"/>
		</contour>
	</outline>
</glyph>
<glyph name="Iogonek" format="2">
	<unicode hex="012E"/>
	<advance width="684"/>
	<outline>
		<contour>
			<point x="505" y="1370" type="line"/>
			<point x="106" y="60" type="line"/>
			<point x="-72" y="20" type="line"/>
			<point x="-78" y="0" type="line"/>
			<point x="458" y="0" type="line"/>
			<point x="463" y="20" type="line"/>
			<point x="301" y="60" type="line"/>
			<point x="700" y="1370" type="line"/>
			<point x="878" y="1410" type="line"/>
			<point x="884" y="1430" type="line"/>
			<point x="348" y="1430" type="line"/>
			<point x="342" y="1410" type="line"/>
		</contour>
		<contour>
			<point x="30" y="-296" type="curve" smooth="yes"/>
			<point x="30" y="-251"/>
			<point x="46" y="-199"/>
			<point x="151" y="-60" type="curve" smooth="yes"/>
			<point x="250" y="71" type="line"/>
			<point x="233" y="71" type="line"/>
			<point x="81" y="-97" type="line" smooth="yes"/>
			<point x="-69" y="-262"/>
			<point x="-90" y="-299"/>
			<point x="-90" y="-365" type="curve" smooth="yes"/>
			<point x="-90" y="-424"/>
			<point x="-50" y="-465"/>
			<point x="37" y="-465" type="curve" smooth="yes"/>
			<point x="105" y="-465"/>
			<point x="158" y="-429"/>
			<point x="231" y="-328" type="curve"/>
			<point x="223" y="-319" type="line"/>
			<point x="184" y="-355"/>
			<point x="150" y="-370"/>
			<point x="110" y="-370" type="curve" smooth="yes"/>
			<point x="62" y="-370"/>
			<point x="30" y="-342"/>
		</contour>
	</outline>
</glyph>
<glyph name="iogonek" format="2">
	<unicode hex="012F"/>
	<advance width="589"/>
	<outline>
		<contour>
			<point x="454" y="1341" type="curve" smooth="yes"/>
			<point x="454" y="1275"/>
			<point x="502" y="1212"/>
			<point x="580" y="1212" type="curve" smooth="yes"/>
			<point x="657" y="1212"/>
			<point x="702" y="1275"/>
			<point x="702" y="1341" type="curve" smooth="yes"/>
			<point x="702" y="1405"/>
			<point x="657" y="1461"/>
			<point x="580" y="1461" type="curve" smooth="yes"/>
			<point x="502" y="1461"/>
			<point x="454" y="1405"/>
		</contour>
		<contour>
			<point x="328" y="74" type="line" smooth="yes"/>
			<point x="391" y="129"/>
			<point x="462" y="211"/>
			<point x="541" y="323" type="curve"/>
			<point x="532" y="330" type="line"/>
			<point x="328" y="123"/>
			<point x="242" y="97"/>
			<point x="199" y="124" type="curve"/>
			<point x="223" y="88" type="line"/>
			<point x="538" y="932" type="line" smooth="yes"/>
			<point x="565" y="1003"/>
			<point x="547" y="1044"/>
			<point x="466" y="1044" type="curve" smooth="yes"/>
			<point x="359" y="1044"/>
			<point x="234" y="944"/>
			<point x="62" y="701" type="curve"/>
			<point x="71" y="694" type="line"/>
			<point x="250" y="881"/>
			<point x="345" y="920"/>
			<point x="399" y="906" type="curve"/>
			<point x="380" y="936" type="line"/>
			<point x="65" y="92" type="line" smooth="yes"/>
			<point x="35" y="11"/>
			<point x="59" y="-20"/>
			<point x="138" y="-20" type="curve" smooth="yes"/>
			<point x="168" y="-20"/>
			<point x="202" y="-10"/>
			<point x="239" y="10" type="curve"/>
			<point x="235" y="17" type="line"/>
			<point x="93" y="-97" type="line" smooth="yes"/>
			<point x="-94" y="-247"/>
			<point x="-112" y="-294"/>
			<point x="-112" y="-355" type="curve" smooth="yes"/>
			<point x="-112" y="-414"/>
			<point x="-72" y="-465"/>
			<point x="15" y="-465" type="curve" smooth="yes"/>
			<point x="83" y="-465"/>
			<point x="136" y="-429"/>
			<point x="209" y="-328" type="curve"/>
			<point x="201" y="-319" type="line"/>
			<point x="162" y="-355"/>
			<point x="128" y="-370"/>
			<point x="88" y="-370" type="curve" smooth="yes"/>
			<point x="33" y="-370"/>
			<point x="7" y="-346"/>
			<point x="7" y="-296" type="curve" smooth="yes"/>
			<point x="7" y="-251"/>
			<point x="22" y="-196"/>
			<point x="176" y="-60" type="curve" smooth="yes"/>
		</contour>
	</outline>
</glyph>
<glyph name="dotlessi" format="2">
	<unicode hex="0131"/>
	<advance width="588"/>
	<outline>
		<contour>
			<point x="65" y="92" type="line" smooth="yes"/>
			<point x="35" y="11"/>
			<point x="59" y="-20"/>
			<point x="138" y="-20" type="curve" smooth="yes"/>
			<point x="237" y="-20"/>
			<point x="369" y="80"/>
			<point x="541" y="323" type="curve"/>
			<point x="532" y="330" type="line"/>
			<point x="328" y="123"/>
			<point x="242" y="97"/>
			<point x="199" y="124" type="curve"/>
			<point x="223" y="88" type="line"/>
			<point x="538" y="932" type="line" smooth="yes"/>
			<point x="565" y="1003"/>
			<point x="547" y="1044"/>
			<point x="466" y="1044" type="curve" smooth="yes"/>
			<point x="359" y="1044"/>
			<point x="234" y="944"/>
			<point x="62" y="701" type="curve"/>
			<point x="71" y="694" type="line"/>
			<point x="250" y="881"/>
			<point x="345" y="920"/>
			<point x="399" y="906" type="curve"/>
			<point x="380" y="936" type="line"/>
		</contour>
	</outline>
	<anchor name="top" x="464" y="1024"/>
	<anchor name="bottom" x="130" y="0"/>
	<anchor name="right" x="271" y="0"/>
</glyph>
<glyph name="kgreenlandic" format="2">
	<unicode hex="0138"/>
	<advance width="1070"/>
	<outline>
		<contour>
			<point x="567" y="1017" type="line"/>
			<point x="529" y="1033"/>
			<point x="494" y="1044"/>
			<point x="446" y="1044" type="curve" smooth="yes"/>
			<point x="307" y="1044"/>
			<point x="200" y="940"/>
			<point x="62" y="614" type="curve"/>
			<point x="73" y="609" type="line"/>
			<point x="209" y="849"/>
			<point x="299" y="907"/>
			<point x="342" y="907" type="curve" smooth="yes"/>
			<point x="365" y="907"/>
			<point x="368" y="887"/>
			<point x="360" y="862" type="curve" smooth="yes"/>
			<point x="77" y="0" type="line"/>
			<point x="240" y="0" type="line"/>
		</contour>
		<contour>
			<point x="994" y="782" type="curve" smooth="yes"/>
			<point x="1068" y="782"/>
			<point x="1137" y="843"/>
			<point x="1137" y="934" type="curve" smooth="yes"/>
			<point x="1137" y="997"/>
			<point x="1099" y="1044"/>
			<point x="1014" y="1044" type="curve" smooth="yes"/>
			<point x="926" y="1044"/>
			<point x="802" y="971"/>
			<point x="407" y="540" type="curve"/>
			<point x="405" y="532" type="line"/>
			<point x="520" y="111"/>
			<point x="593" y="-20"/>
			<point x="686" y="-20" type="curve" smooth="yes"/>
			<point x="776" y="-20"/>
			<point x="859" y="40"/>
			<point x="1010" y="321" type="curve"/>
			<point x="998" y="328" type="line"/>
			<point x="874" y="144"/>
			<point x="815" y="100"/>
			<point x="776" y="100" type="curve" smooth="yes"/>
			<point x="726" y="100"/>
			<point x="654" y="227"/>
			<point x="526" y="649" type="curve"/>
			<point x="466" y="570" type="line"/>
			<point x="689" y="821"/>
			<point x="850" y="920"/>
			<point x="910" y="920" type="curve" smooth="yes"/>
			<point x="930" y="920"/>
			<point x="937" y="908"/>
			<point x="929" y="859" type="curve" smooth="yes"/>
			<point x="921" y="810"/>
			<point x="937" y="782"/>
		</contour>
	</outline>
</glyph>
<glyph name="Lslash" format="2">
	<unicode hex="0141"/>
	<advance width="1207"/>
	<outline>
		<contour>
			<point x="720" y="1370" type="line"/>
			<point x="898" y="1410" type="line"/>
			<point x="904" y="1430" type="line"/>
			<point x="368" y="1430" type="line"/>
			<point x="362" y="1410" type="line"/>
			<point x="525" y="1370" type="line"/>
			<point x="126" y="60" type="line"/>
			<point x="-52" y="20" type="line"/>
			<point x="-58" y="0" type="line"/>
			<point x="303" y="0" type="line"/>
		</contour>
		<contour>
			<point x="758" y="38" type="line"/>
			<point x="819" y="56" type="line"/>
			<point x="189" y="56" type="line"/>
			<point x="171" y="0" type="line"/>
			<point x="774" y="0" type="line"/>
			<point x="901" y="-54" type="line"/>
			<point x="908" y="-54" type="line"/>
			<point x="1150" y="387" type="line"/>
			<point x="1130" y="402" type="line"/>
		</contour>
		<contour>
			<point x="913" y="947" type="line"/>
			<point x="476" y="735" type="line"/>
			<point x="379" y="718" type="line"/>
			<point x="123" y="594" type="line"/>
			<point x="100" y="516" type="line"/>
			<point x="356" y="640" type="line"/>
			<point x="453" y="658" type="line"/>
			<point x="891" y="870" type="line"/>
		</contour>
	</outline>
</glyph>
<glyph name="lslash" format="2">
	<unicode hex="0142"/>
	<advance width="638"/>
	<outline>
		<contour>
			<point x="77" y="585" type="line"/>
			<point x="51" y="499" type="line"/>
			<point x="305" y="662" type="line"/>
			<point x="361" y="663" type="line"/>
			<point x="630" y="837" type="line"/>
			<point x="657" y="923" type="line"/>
			<point x="387" y="749" type="line"/>
			<point x="331" y="748" type="line"/>
		</contour>
		<contour>
			<point x="456" y="1303" type="curve"/>
			<point x="68" y="92" type="line" smooth="yes"/>
			<point x="41" y="9"/>
			<point x="62" y="-20"/>
			<point x="148" y="-20" type="curve" smooth="yes"/>
			<point x="236" y="-20"/>
			<point x="368" y="80"/>
			<point x="540" y="323" type="curve"/>
			<point x="531" y="330" type="line"/>
			<point x="338" y="127"/>
			<point x="235" y="99"/>
			<point x="204" y="124" type="curve"/>
			<point x="224" y="87" type="line"/>
			<point x="672" y="1484" type="line"/>
			<point x="669" y="1484" type="line"/>
			<point x="306" y="1407" type="line"/>
			<point x="305" y="1401" type="line"/>
			<point x="362" y="1364.0066225166"/>
			<point x="420" y="1326.3642384106"/>
		</contour>
	</outline>
</glyph>
<glyph name="Eng" format="2">
	<unicode hex="014A"/>
	<advance width="1493"/>
	<outline>
		<contour>
			<point x="1160" y="231" type="line"/>
			<point x="709" y="1430" type="line"/>
			<point x="339" y="1430" type="line"/>
			<point x="333" y="1410" type="line"/>
			<point x="505" y="1353" type="line"/>
			<point x="110" y="58" type="line"/>
			<point x="-68" y="20" type="line"/>
			<point x="-74" y="0" type="line"/>
			<point x="344" y="0" type="line"/>
			<point x="350" y="20" type="line"/>
			<point x="168" y="58" type="line"/>
			<point x="566" y="1360" type="line"/>
			<point x="541" y="1322" type="line"/>
			<point x="1062" y="-40" type="line"/>
		</contour>
		<contour>
			<point x="1068" y="-133" type="curve" smooth="yes"/>
			<point x="1526" y="1372" type="line"/>
			<point x="1704" y="1410" type="line"/>
			<point x="1710" y="1430" type="line"/>
			<point x="1292" y="1430" type="line"/>
			<point x="1286" y="1410" type="line"/>
			<point x="1468" y="1372" type="line"/>
			<point x="1023" y="-88" type="line" smooth="yes"/>
			<point x="962" y="-286"/>
			<point x="890" y="-354"/>
			<point x="779" y="-354" type="curve" smooth="yes"/>
			<point x="682" y="-354"/>
			<point x="643" y="-276"/>
			<point x="612" y="-276" type="curve" smooth="yes"/>
			<point x="569" y="-276"/>
			<point x="523" y="-313"/>
			<point x="523" y="-367" type="curve" smooth="yes"/>
			<point x="523" y="-422"/>
			<point x="562" y="-465"/>
			<point x="673" y="-465" type="curve" smooth="yes"/>
			<point x="877" y="-465"/>
			<point x="998" y="-362"/>
		</contour>
	</outline>
</glyph>
<glyph name="eng" format="2">
  <advance width="1090"/>
  <unicode hex="014B"/>
  <outline>
    <contour>
      <point x="340" y="-465" type="curve" smooth="yes"/>
      <point x="505" y="-465"/>
      <point x="682" y="-307"/>
      <point x="811" y="85" type="curve" smooth="yes"/>
      <point x="1012" y="694" type="line" smooth="yes"/>
      <point x="1046" y="797"/>
      <point x="1055" y="850"/>
      <point x="1055" y="887" type="curve" smooth="yes"/>
      <point x="1055" y="982"/>
      <point x="1004" y="1044"/>
      <point x="881" y="1044" type="curve" smooth="yes"/>
      <point x="752" y="1044"/>
      <point x="659" y="979"/>
      <point x="419" y="598" type="curve"/>
      <point x="434" y="598" type="line"/>
      <point x="567" y="1021" type="line"/>
      <point x="528" y="1037"/>
      <point x="497" y="1044"/>
      <point x="448" y="1044" type="curve" smooth="yes"/>
      <point x="309" y="1044"/>
      <point x="202" y="940"/>
      <point x="64" y="614" type="curve"/>
      <point x="75" y="609" type="line"/>
      <point x="211" y="849"/>
      <point x="301" y="907"/>
      <point x="344" y="907" type="curve" smooth="yes"/>
      <point x="367" y="907"/>
      <point x="370" y="885"/>
      <point x="362" y="862" type="curve" smooth="yes"/>
      <point x="72" y="0" type="line"/>
      <point x="235" y="0" type="line"/>
      <point x="411" y="524" type="line" smooth="yes"/>
      <point x="450" y="641"/>
      <point x="628" y="903"/>
      <point x="793" y="903" type="curve" smooth="yes"/>
      <point x="867" y="903"/>
      <point x="891" y="869"/>
      <point x="891" y="833" type="curve" smooth="yes"/>
      <point x="891" y="818"/>
      <point x="886" y="790"/>
      <point x="855" y="692" type="curve" smooth="yes"/>
      <point x="616" y="-58" type="line" smooth="yes"/>
      <point x="520" y="-359"/>
      <point x="465" y="-418"/>
      <point x="397" y="-418" type="curve" smooth="yes"/>
      <point x="359.0" y="-418"/>
      <point x="345" y="-400"/>
      <point x="357" y="-337" type="curve" smooth="yes"/>
      <point x="369" y="-274.0"/>
      <point x="354.0" y="-251.0"/>
      <point x="305" y="-251" type="curve" smooth="yes"/>
      <point x="247" y="-251"/>
      <point x="213" y="-298"/>
      <point x="213" y="-352" type="curve" smooth="yes"/>
      <point x="213" y="-414"/>
      <point x="258" y="-465"/>
    </contour>
  </outline>
</glyph>
<glyph name="OE" format="2">
	<unicode hex="0152"/>
	<advance width="2105"/>
	<outline>
		<contour>
			<point x="1337" y="1430" type="line"/>
			<point x="902" y="0" type="line"/>
			<point x="1097" y="0" type="line"/>
			<point x="1532" y="1430" type="line"/>
		</contour>
		<contour>
			<point x="1117" y="1430" type="line" smooth="yes"/>
			<point x="493" y="1430"/>
			<point x="140" y="1008"/>
			<point x="140" y="535" type="curve" smooth="yes"/>
			<point x="140" y="185"/>
			<point x="409" y="0"/>
			<point x="784" y="0" type="curve"/>
			<point x="1652" y="0" type="line"/>
			<point x="1779" y="-54" type="line"/>
			<point x="1786" y="-54" type="line"/>
			<point x="2016" y="369" type="line"/>
			<point x="1996" y="384" type="line"/>
			<point x="1636" y="38" type="line"/>
			<point x="1817" y="56" type="line"/>
			<point x="799" y="56" type="line" smooth="yes"/>
			<point x="496" y="56"/>
			<point x="339" y="218"/>
			<point x="339" y="489" type="curve" smooth="yes"/>
			<point x="339" y="1037"/>
			<point x="681" y="1374"/>
			<point x="1093" y="1374" type="curve" smooth="yes"/>
			<point x="2190" y="1374" type="line"/>
			<point x="2065" y="1394" type="line"/>
			<point x="2132" y="1031" type="line"/>
			<point x="2156" y="1031" type="line"/>
			<point x="2230" y="1484" type="line"/>
			<point x="2223" y="1484" type="line"/>
			<point x="2076" y="1430" type="line"/>
		</contour>
		<contour>
			<point x="1685" y="455" type="line"/>
			<point x="1742" y="746" type="line"/>
			<point x="1864" y="1039" type="line"/>
			<point x="1843" y="1039" type="line"/>
			<point x="1660" y="784" type="line"/>
			<point x="1196" y="756" type="line"/>
			<point x="1189" y="737" type="line"/>
			<point x="1645" y="713" type="line"/>
			<point x="1664" y="455" type="line"/>
		</contour>
	</outline>
</glyph>
<glyph name="oe" format="2">
	<unicode hex="0153"/>
	<advance width="1411"/>
	<outline>
		<contour>
			<point x="629" y="1044" type="curve" smooth="yes"/>
			<point x="319" y="1044"/>
			<point x="40" y="643"/>
			<point x="40" y="274" type="curve" smooth="yes"/>
			<point x="40" y="87"/>
			<point x="125" y="-20"/>
			<point x="290" y="-20" type="curve" smooth="yes"/>
			<point x="423" y="-20"/>
			<point x="585" y="56"/>
			<point x="710" y="216" type="curve"/>
			<point x="665" y="216" type="line"/>
			<point x="669" y="58"/>
			<point x="749" y="-20"/>
			<point x="897" y="-20" type="curve" smooth="yes"/>
			<point x="1043" y="-20"/>
			<point x="1180" y="68"/>
			<point x="1311" y="395" type="curve"/>
			<point x="1300" y="397" type="line"/>
			<point x="1181" y="177"/>
			<point x="1067" y="109"/>
			<point x="956" y="109" type="curve" smooth="yes"/>
			<point x="859" y="109"/>
			<point x="807" y="163"/>
			<point x="807" y="305" type="curve" smooth="yes"/>
			<point x="807" y="536"/>
			<point x="965" y="1004"/>
			<point x="1189" y="1004" type="curve" smooth="yes"/>
			<point x="1247" y="1004"/>
			<point x="1281" y="960"/>
			<point x="1281" y="892" type="curve" smooth="yes"/>
			<point x="1281" y="747"/>
			<point x="1185" y="646"/>
			<point x="795" y="524" type="curve"/>
			<point x="789" y="493" type="line"/>
			<point x="1023" y="552"/>
			<point x="1290" y="646"/>
			<point x="1368" y="695" type="curve"/>
			<point x="1408" y="754"/>
			<point x="1423" y="816"/>
			<point x="1423" y="873" type="curve" smooth="yes"/>
			<point x="1423" y="969"/>
			<point x="1365" y="1044"/>
			<point x="1226" y="1044" type="curve" smooth="yes"/>
			<point x="1070" y="1044"/>
			<point x="904" y="943"/>
			<point x="799" y="798" type="curve"/>
			<point x="853" y="798" type="line"/>
			<point x="839" y="955"/>
			<point x="779" y="1044"/>
		</contour>
		<contour>
			<point x="293" y="14" type="curve" smooth="yes"/>
			<point x="225" y="14"/>
			<point x="197" y="69"/>
			<point x="197" y="184" type="curve" smooth="yes"/>
			<point x="197" y="556"/>
			<point x="425" y="1010"/>
			<point x="626" y="1010" type="curve" smooth="yes"/>
			<point x="694" y="1010"/>
			<point x="722" y="955"/>
			<point x="722" y="840" type="curve" smooth="yes"/>
			<point x="722" y="468"/>
			<point x="494" y="14"/>
		</contour>
	</outline>
	<anchor name="top" x="904" y="1024"/>
	<anchor name="bottom" x="590" y="0"/>
</glyph>
<glyph name="Scedilla" format="2">
	<unicode hex="015E"/>
	<advance width="1077"/>
	<outline>
		<contour>
			<point x="1034" y="1249" type="curve"/>
			<point x="992" y="1343" type="line"/>
			<point x="1070" y="1021" type="line"/>
			<point x="1091" y="1021" type="line"/>
			<point x="1148" y="1484" type="line"/>
			<point x="1132" y="1484" type="line"/>
			<point x="1010" y="1374" type="line"/>
			<point x="1116" y="1342" type="line"/>
			<point x="1009" y="1413"/>
			<point x="908" y="1450"/>
			<point x="768" y="1450" type="curve" smooth="yes"/>
			<point x="483" y="1450"/>
			<point x="300" y="1282"/>
			<point x="300" y="1045" type="curve" smooth="yes"/>
			<point x="300" y="865"/>
			<point x="387" y="782"/>
			<point x="505" y="707" type="curve" smooth="yes"/>
			<point x="623" y="632"/>
			<point x="792" y="573"/>
			<point x="792" y="365" type="curve" smooth="yes"/>
			<point x="792" y="129"/>
			<point x="637" y="20"/>
			<point x="399" y="20" type="curve" smooth="yes"/>
			<point x="271" y="20"/>
			<point x="196" y="60"/>
			<point x="108" y="126" type="curve"/>
			<point x="205" y="22" type="line"/>
			<point x="74" y="413" type="line"/>
			<point x="46" y="413" type="line"/>
			<point x="51" y="42" type="line"/>
			<point x="143" y="1"/>
			<point x="263" y="-20"/>
			<point x="387" y="-20" type="curve" smooth="yes"/>
			<point x="727" y="-20"/>
			<point x="944" y="171"/>
			<point x="944" y="444" type="curve" smooth="yes"/>
			<point x="944" y="680"/>
			<point x="793" y="762"/>
			<point x="669" y="836" type="curve" smooth="yes"/>
			<point x="545" y="910"/>
			<point x="436" y="976"/>
			<point x="436" y="1139" type="curve" smooth="yes"/>
			<point x="436" y="1303"/>
			<point x="543" y="1404"/>
			<point x="739" y="1404" type="curve" smooth="yes"/>
			<point x="874" y="1404"/>
			<point x="976" y="1340"/>
		</contour>
		<contour>
			<point x="244" y="-465" type="curve" smooth="yes"/>
			<point x="387" y="-465"/>
			<point x="495" y="-372"/>
			<point x="495" y="-270" type="curve" smooth="yes"/>
			<point x="495" y="-204"/>
			<point x="460" y="-152"/>
			<point x="334" y="-108" type="curve"/>
			<point x="313" y="-163" type="line"/>
			<point x="475" y="15" type="line"/>
			<point x="434" y="15" type="line"/>
			<point x="245" y="-192" type="line"/>
			<point x="245" y="-196" type="line"/>
			<point x="375" y="-233"/>
			<point x="411" y="-278"/>
			<point x="411" y="-327" type="curve" smooth="yes"/>
			<point x="411" y="-387"/>
			<point x="360" y="-426"/>
			<point x="294" y="-426" type="curve" smooth="yes"/>
			<point x="220" y="-426"/>
			<point x="195" y="-348"/>
			<point x="180" y="-348" type="curve" smooth="yes"/>
			<point x="149" y="-348"/>
			<point x="129" y="-370"/>
			<point x="129" y="-402" type="curve" smooth="yes"/>
			<point x="129" y="-436"/>
			<point x="156" y="-465"/>
		</contour>
	</outline>
</glyph>
<glyph name="uni0162" format="2">
	<unicode hex="0162"/>
	<advance width="1373"/>
	<outline>
		<contour>
			<point x="1484" y="1374" type="line"/>
			<point x="1398" y="1389" type="line"/>
			<point x="1447" y="991" type="line"/>
			<point x="1477" y="991" type="line"/>
			<point x="1573" y="1503" type="line"/>
			<point x="1556" y="1503" type="line"/>
			<point x="1389" y="1414" type="line"/>
			<point x="1479" y="1430" type="line"/>
			<point x="452" y="1430" type="line"/>
			<point x="541" y="1414" type="line"/>
			<point x="420" y="1503" type="line"/>
			<point x="403" y="1503" type="line"/>
			<point x="190" y="1000" type="line"/>
			<point x="213" y="988" type="line"/>
			<point x="538" y="1389" type="line"/>
			<point x="410" y="1374" type="line"/>
		</contour>
		<contour>
			<point x="863" y="1400" type="line"/>
			<point x="455" y="60" type="line"/>
			<point x="277" y="20" type="line"/>
			<point x="271" y="0" type="line"/>
			<point x="807" y="0" type="line"/>
			<point x="812" y="20" type="line"/>
			<point x="650" y="60" type="line"/>
			<point x="1058" y="1400" type="line"/>
		</contour>
		<contour>
			<point x="368" y="-465" type="curve" smooth="yes"/>
			<point x="511" y="-465"/>
			<point x="619" y="-372"/>
			<point x="619" y="-270" type="curve" smooth="yes"/>
			<point x="619" y="-204"/>
			<point x="584" y="-152"/>
			<point x="458" y="-108" type="curve"/>
			<point x="437" y="-163" type="line"/>
			<point x="599" y="15" type="line"/>
			<point x="558" y="15" type="line"/>
			<point x="369" y="-192" type="line"/>
			<point x="369" y="-196" type="line"/>
			<point x="499" y="-233"/>
			<point x="535" y="-278"/>
			<point x="535" y="-327" type="curve" smooth="yes"/>
			<point x="535" y="-387"/>
			<point x="484" y="-426"/>
			<point x="418" y="-426" type="curve" smooth="yes"/>
			<point x="344" y="-426"/>
			<point x="319" y="-348"/>
			<point x="304" y="-348" type="curve" smooth="yes"/>
			<point x="273" y="-348"/>
			<point x="253" y="-370"/>
			<point x="253" y="-402" type="curve" smooth="yes"/>
			<point x="253" y="-436"/>
			<point x="280" y="-465"/>
		</contour>
	</outline>
</glyph>
<glyph name="uni0163" format="2">
	<unicode hex="0163"/>
	<advance width="629"/>
	<outline>
		<contour>
			<point x="146" y="972" type="line"/>
			<point x="714" y="972" type="line"/>
			<point x="727" y="1024" type="line"/>
			<point x="162" y="1024" type="line"/>
		</contour>
		<contour>
			<point x="262" y="234" type="curve" smooth="yes"/>
			<point x="594" y="1270" type="line"/>
			<point x="428" y="1270" type="line"/>
			<point x="105" y="262" type="line" smooth="yes"/>
			<point x="71" y="157"/>
			<point x="69" y="119"/>
			<point x="69" y="93" type="curve" smooth="yes"/>
			<point x="69" y="12"/>
			<point x="114" y="-20"/>
			<point x="173" y="-20" type="curve" smooth="yes"/>
			<point x="262" y="-20"/>
			<point x="384" y="27"/>
			<point x="586" y="333" type="curve"/>
			<point x="577" y="340" type="line"/>
			<point x="423" y="150"/>
			<point x="336" y="117"/>
			<point x="289" y="117" type="curve" smooth="yes"/>
			<point x="260" y="117"/>
			<point x="244" y="127"/>
			<point x="244" y="152" type="curve" smooth="yes"/>
			<point x="244" y="167"/>
			<point x="247" y="188"/>
		</contour>
		<contour>
			<point x="15" y="-465" type="curve" smooth="yes"/>
			<point x="158" y="-465"/>
			<point x="266" y="-372"/>
			<point x="266" y="-270" type="curve" smooth="yes"/>
			<point x="266" y="-204"/>
			<point x="231" y="-152"/>
			<point x="105" y="-108" type="curve"/>
			<point x="84" y="-163" type="line"/>
			<point x="246" y="15" type="line"/>
			<point x="205" y="15" type="line"/>
			<point x="16" y="-192" type="line"/>
			<point x="16" y="-196" type="line"/>
			<point x="146" y="-233"/>
			<point x="182" y="-278"/>
			<point x="182" y="-327" type="curve" smooth="yes"/>
			<point x="182" y="-387"/>
			<point x="131" y="-426"/>
			<point x="65" y="-426" type="curve" smooth="yes"/>
			<point x="-9" y="-426"/>
			<point x="-34" y="-348"/>
			<point x="-49" y="-348" type="curve" smooth="yes"/>
			<point x="-80" y="-348"/>
			<point x="-100" y="-370"/>
			<point x="-100" y="-402" type="curve" smooth="yes"/>
			<point x="-100" y="-436"/>
			<point x="-73" y="-465"/>
		</contour>
	</outline>
</glyph>
<glyph name="Tbar" format="2">
	<unicode hex="0166"/>
	<advance width="1376"/>
	<outline>
		<contour>
			<point x="380" y="705" type="line"/>
			<point x="1119" y="705" type="line"/>
			<point x="1138" y="769" type="line"/>
			<point x="399" y="769" type="line"/>
		</contour>
		<contour>
			<point x="1484" y="1374" type="line"/>
			<point x="1398" y="1389" type="line"/>
			<point x="1447" y="991" type="line"/>
			<point x="1477" y="991" type="line"/>
			<point x="1573" y="1503" type="line"/>
			<point x="1556" y="1503" type="line"/>
			<point x="1389" y="1414" type="line"/>
			<point x="1479" y="1430" type="line"/>
			<point x="452" y="1430" type="line"/>
			<point x="541" y="1414" type="line"/>
			<point x="420" y="1503" type="line"/>
			<point x="403" y="1503" type="line"/>
			<point x="190" y="1000" type="line"/>
			<point x="213" y="988" type="line"/>
			<point x="538" y="1389" type="line"/>
			<point x="410" y="1374" type="line"/>
		</contour>
		<contour>
			<point x="863" y="1400" type="line"/>
			<point x="455" y="60" type="line"/>
			<point x="277" y="20" type="line"/>
			<point x="271" y="0" type="line"/>
			<point x="807" y="0" type="line"/>
			<point x="812" y="20" type="line"/>
			<point x="650" y="60" type="line"/>
			<point x="1058" y="1400" type="line"/>
		</contour>
	</outline>
</glyph>
<glyph name="tbar" format="2">
	<unicode hex="0167"/>
	<advance width="639"/>
	<outline>
		<contour>
			<point x="67" y="579" type="line"/>
			<point x="587" y="579" type="line"/>
			<point x="606" y="643" type="line"/>
			<point x="86" y="643" type="line"/>
		</contour>
		<contour>
			<point x="151" y="972" type="line"/>
			<point x="719" y="972" type="line"/>
			<point x="732" y="1024" type="line"/>
			<point x="167" y="1024" type="line"/>
		</contour>
		<contour>
			<point x="249" y="152" type="curve" smooth="yes"/>
			<point x="249" y="167"/>
			<point x="252" y="188"/>
			<point x="267" y="234" type="curve" smooth="yes"/>
			<point x="599" y="1270" type="line"/>
			<point x="433" y="1270" type="line"/>
			<point x="110" y="262" type="line" smooth="yes"/>
			<point x="76" y="157"/>
			<point x="74" y="119"/>
			<point x="74" y="93" type="curve" smooth="yes"/>
			<point x="74" y="12"/>
			<point x="119" y="-20"/>
			<point x="178" y="-20" type="curve" smooth="yes"/>
			<point x="267" y="-20"/>
			<point x="389" y="27"/>
			<point x="591" y="333" type="curve"/>
			<point x="582" y="340" type="line"/>
			<point x="428" y="150"/>
			<point x="341" y="117"/>
			<point x="294" y="117" type="curve" smooth="yes"/>
			<point x="265" y="117"/>
			<point x="249" y="127"/>
		</contour>
	</outline>
</glyph>
<glyph name="Uogonek" format="2">
	<unicode hex="0172"/>
	<advance width="1528"/>
	<outline>
		<contour>
			<point x="445" y="603" type="curve" smooth="yes"/>
			<point x="679" y="1370" type="line"/>
			<point x="857" y="1410" type="line"/>
			<point x="863" y="1430" type="line"/>
			<point x="327" y="1430" type="line"/>
			<point x="321" y="1410" type="line"/>
			<point x="484" y="1370" type="line"/>
			<point x="262" y="645" type="line" smooth="yes"/>
			<point x="121" y="184"/>
			<point x="337" y="-20"/>
			<point x="699" y="-20" type="curve" smooth="yes"/>
			<point x="1024" y="-20"/>
			<point x="1204" y="155"/>
			<point x="1323" y="543" type="curve" smooth="yes"/>
			<point x="1577" y="1372" type="line"/>
			<point x="1755" y="1410" type="line"/>
			<point x="1761" y="1430" type="line"/>
			<point x="1343" y="1430" type="line"/>
			<point x="1337" y="1410" type="line"/>
			<point x="1519" y="1372" type="line"/>
			<point x="1277" y="583" type="line" smooth="yes"/>
			<point x="1167" y="225"/>
			<point x="994" y="94"/>
			<point x="746" y="94" type="curve" smooth="yes"/>
			<point x="462" y="94"/>
			<point x="332" y="233"/>
		</contour>
		<contour>
			<point x="563" y="-306" type="curve" smooth="yes"/>
			<point x="563" y="-253"/>
			<point x="582" y="-190"/>
			<point x="689" y="-58" type="curve" smooth="yes"/>
			<point x="793" y="71" type="line"/>
			<point x="772" y="71" type="line"/>
			<point x="596" y="-118" type="line" smooth="yes"/>
			<point x="458" y="-267"/>
			<point x="441" y="-315"/>
			<point x="441" y="-365" type="curve" smooth="yes"/>
			<point x="441" y="-424"/>
			<point x="481" y="-465"/>
			<point x="568" y="-465" type="curve" smooth="yes"/>
			<point x="636" y="-465"/>
			<point x="689" y="-429"/>
			<point x="762" y="-328" type="curve"/>
			<point x="754" y="-319" type="line"/>
			<point x="715" y="-355"/>
			<point x="681" y="-370"/>
			<point x="641" y="-370" type="curve" smooth="yes"/>
			<point x="593" y="-370"/>
			<point x="563" y="-352"/>
		</contour>
	</outline>
</glyph>
<glyph name="uogonek" format="2">
	<unicode hex="0173"/>
	<advance width="1071"/>
	<outline>
		<contour>
			<point x="1040" y="323" type="curve"/>
			<point x="1031" y="330" type="line"/>
			<point x="880" y="152"/>
			<point x="769" y="100"/>
			<point x="716" y="118" type="curve"/>
			<point x="734" y="87" type="line"/>
			<point x="1051" y="1024" type="line"/>
			<point x="888" y="1024" type="line"/>
			<point x="690" y="435" type="line" smooth="yes"/>
			<point x="651" y="319"/>
			<point x="482" y="121"/>
			<point x="365" y="121" type="curve" smooth="yes"/>
			<point x="304" y="121"/>
			<point x="271" y="138"/>
			<point x="271" y="186" type="curve" smooth="yes"/>
			<point x="271" y="209"/>
			<point x="279" y="241"/>
			<point x="295" y="281" type="curve" smooth="yes"/>
			<point x="550" y="932" type="line" smooth="yes"/>
			<point x="582" y="1013"/>
			<point x="549" y="1044"/>
			<point x="471" y="1044" type="curve" smooth="yes"/>
			<point x="365" y="1044"/>
			<point x="235" y="942"/>
			<point x="61" y="696" type="curve"/>
			<point x="70" y="689" type="line"/>
			<point x="255" y="896"/>
			<point x="367" y="925"/>
			<point x="403" y="903" type="curve"/>
			<point x="379" y="936" type="line"/>
			<point x="122" y="254" type="line" smooth="yes"/>
			<point x="106" y="211"/>
			<point x="96" y="167"/>
			<point x="96" y="128" type="curve" smooth="yes"/>
			<point x="96" y="45"/>
			<point x="140" y="-20"/>
			<point x="261" y="-20" type="curve" smooth="yes"/>
			<point x="388" y="-20"/>
			<point x="492" y="70"/>
			<point x="678" y="364" type="curve"/>
			<point x="669" y="364" type="line"/>
			<point x="575" y="63" type="line" smooth="yes"/>
			<point x="559" y="11"/>
			<point x="585" y="-20"/>
			<point x="651" y="-20" type="curve" smooth="yes"/>
			<point x="688" y="-20"/>
			<point x="730" y="-7"/>
			<point x="777" y="23" type="curve"/>
			<point x="772" y="30" type="line"/>
			<point x="656" y="-77" type="line" smooth="yes"/>
			<point x="503" y="-219"/>
			<point x="456" y="-287"/>
			<point x="456" y="-365" type="curve" smooth="yes"/>
			<point x="456" y="-424"/>
			<point x="496" y="-465"/>
			<point x="583" y="-465" type="curve" smooth="yes"/>
			<point x="651" y="-465"/>
			<point x="704" y="-429"/>
			<point x="777" y="-328" type="curve"/>
			<point x="769" y="-319" type="line"/>
			<point x="730" y="-355"/>
			<point x="696" y="-370"/>
			<point x="656" y="-370" type="curve" smooth="yes"/>
			<point x="608" y="-370"/>
			<point x="578" y="-352"/>
			<point x="578" y="-306" type="curve" smooth="yes"/>
			<point x="578" y="-261"/>
			<point x="600" y="-176"/>
			<point x="733" y="-40" type="curve" smooth="yes"/>
			<point x="860" y="89" type="line" smooth="yes"/>
			<point x="914" y="144"/>
			<point x="975" y="220"/>
		</contour>
	</outline>
</glyph>
<glyph name="uni018F" format="2">
	<unicode hex="018F"/>
	<advance width="1400"/>
	<outline>
		<contour>
			<point x="128" y="546" type="line"/>
			<point x="120" y="494"/>
			<point x="116" y="445"/>
			<point x="116" y="399" type="curve" smooth="yes"/>
			<point x="116" y="147"/>
			<point x="253" y="-20"/>
			<point x="598" y="-20" type="curve" smooth="yes"/>
			<point x="971" y="-20"/>
			<point x="1381" y="364"/>
			<point x="1381" y="925" type="curve" smooth="yes"/>
			<point x="1381" y="1270"/>
			<point x="1189" y="1450"/>
			<point x="862" y="1450" type="curve" smooth="yes"/>
			<point x="635" y="1450"/>
			<point x="442" y="1342"/>
			<point x="203" y="1062" type="curve"/>
			<point x="220" y="1042" type="line"/>
			<point x="418" y="1237"/>
			<point x="576" y="1321"/>
			<point x="789" y="1321" type="curve" smooth="yes"/>
			<point x="1053" y="1321"/>
			<point x="1210" y="1159"/>
			<point x="1210" y="846" type="curve" smooth="yes"/>
			<point x="1210" y="367"/>
			<point x="934" y="27"/>
			<point x="605" y="27" type="curve" smooth="yes"/>
			<point x="409" y="27"/>
			<point x="295" y="127"/>
			<point x="295" y="374" type="curve" smooth="yes"/>
			<point x="295" y="421"/>
			<point x="299" y="474"/>
			<point x="308" y="533" type="curve"/>
			<point x="229" y="490" type="line"/>
			<point x="1176" y="490" type="line"/>
			<point x="1194" y="546" type="line"/>
		</contour>
	</outline>
</glyph>
<glyph name="Ohorn" format="2">
	<unicode hex="01A0"/>
	<advance width="1544"/>
	<outline>
		<contour>
			<point x="319" y="451" type="curve" smooth="yes"/>
			<point x="319" y="851"/>
			<point x="576" y="1403"/>
			<point x="999" y="1403" type="curve" smooth="yes"/>
			<point x="1217" y="1403"/>
			<point x="1346" y="1259"/>
			<point x="1346" y="979" type="curve" smooth="yes"/>
			<point x="1346" y="579"/>
			<point x="1089" y="27"/>
			<point x="666" y="27" type="curve" smooth="yes"/>
			<point x="448" y="27"/>
			<point x="319" y="171"/>
		</contour>
		<contour>
			<point x="1528" y="907" type="curve" smooth="yes"/>
			<point x="1528" y="1139"/>
			<point x="1426" y="1299"/>
			<point x="1290" y="1375" type="curve"/>
			<point x="1290" y="1365" type="line"/>
			<point x="1508" y="1335"/>
			<point x="1660" y="1442"/>
			<point x="1660" y="1633" type="curve" smooth="yes"/>
			<point x="1660" y="1696"/>
			<point x="1630" y="1739"/>
			<point x="1576" y="1739" type="curve" smooth="yes"/>
			<point x="1523" y="1739"/>
			<point x="1483" y="1697"/>
			<point x="1483" y="1667" type="curve" smooth="yes"/>
			<point x="1483" y="1656"/>
			<point x="1521" y="1620"/>
			<point x="1521" y="1555" type="curve" smooth="yes"/>
			<point x="1521" y="1460"/>
			<point x="1460" y="1404"/>
			<point x="1338" y="1404" type="curve" smooth="yes"/>
			<point x="1227" y="1404"/>
			<point x="1136" y="1450"/>
			<point x="985" y="1450" type="curve" smooth="yes"/>
			<point x="505" y="1450"/>
			<point x="137" y="987"/>
			<point x="137" y="523" type="curve" smooth="yes"/>
			<point x="137" y="186"/>
			<point x="345" y="-20"/>
			<point x="680" y="-20" type="curve" smooth="yes"/>
			<point x="1160" y="-20"/>
			<point x="1528" y="443"/>
		</contour>
	</outline>
	<anchor name="UCtop" x="1051" y="1430"/>
	<anchor name="bottom" x="583" y="0"/>
</glyph>
<glyph name="ohorn" format="2">
	<unicode hex="01A1"/>
	<advance width="945"/>
	<outline>
		<contour>
			<point x="293" y="14" type="curve" smooth="yes"/>
			<point x="225" y="14"/>
			<point x="197" y="69"/>
			<point x="197" y="184" type="curve" smooth="yes"/>
			<point x="197" y="556"/>
			<point x="425" y="1010"/>
			<point x="626" y="1010" type="curve" smooth="yes"/>
			<point x="694" y="1010"/>
			<point x="722" y="955"/>
			<point x="722" y="840" type="curve" smooth="yes"/>
			<point x="722" y="468"/>
			<point x="494" y="14"/>
		</contour>
		<contour>
			<point x="879" y="750" type="curve" smooth="yes"/>
			<point x="879" y="864"/>
			<point x="846" y="943"/>
			<point x="798" y="985" type="curve"/>
			<point x="798" y="975" type="line"/>
			<point x="1005" y="944"/>
			<point x="1131" y="1063"/>
			<point x="1131" y="1227" type="curve" smooth="yes"/>
			<point x="1131" y="1290"/>
			<point x="1101" y="1333"/>
			<point x="1047" y="1333" type="curve" smooth="yes"/>
			<point x="994" y="1333"/>
			<point x="954" y="1291"/>
			<point x="954" y="1261" type="curve" smooth="yes"/>
			<point x="954" y="1250"/>
			<point x="992" y="1214"/>
			<point x="992" y="1149" type="curve" smooth="yes"/>
			<point x="992" y="1066"/>
			<point x="926" y="1011"/>
			<point x="832" y="1011" type="curve" smooth="yes"/>
			<point x="749" y="1011"/>
			<point x="720" y="1044"/>
			<point x="629" y="1044" type="curve" smooth="yes"/>
			<point x="319" y="1044"/>
			<point x="40" y="643"/>
			<point x="40" y="274" type="curve" smooth="yes"/>
			<point x="40" y="87"/>
			<point x="125" y="-20"/>
			<point x="290" y="-20" type="curve" smooth="yes"/>
			<point x="600" y="-20"/>
			<point x="879" y="381"/>
		</contour>
	</outline>
	<anchor name="top" x="616" y="1024"/>
	<anchor name="bottom" x="282" y="0"/>
</glyph>
